<svg width="159" height="96" viewBox="0 0 159 96" fill="none" xmlns="http://www.w3.org/2000/svg">
<g clip-path="url(#clip0_20_3917)">
<path d="M79.6689 43.5248C80.0025 43.1772 80.2667 42.6489 80.6699 42.5098C83.7148 41.4393 86.718 40.2296 89.7074 39.02C91.7234 38.1997 93.7951 37.5184 95.8251 36.6981C96.3533 36.4895 96.7983 36.0585 97.2293 35.6692C97.6881 35.2382 97.285 35.0992 96.9373 35.1687C95.7555 35.405 95.8529 34.6125 95.9501 33.9173C95.9919 33.6254 96.409 33.3612 96.4229 33.0831C96.4508 32.5409 96.4924 32.0681 96.9651 31.7345C96.4785 31.651 95.9641 31.6232 95.5052 31.4703C95.2689 31.3869 95.0882 31.0949 94.8934 30.9002C95.0603 30.7473 95.2411 30.4414 95.3662 30.4692C96.0753 30.5804 96.7427 30.2746 96.854 29.7184C97.0486 28.7591 97.271 27.6885 96.6731 26.743C96.1031 25.8393 95.6025 24.8382 94.8378 24.1152C94.1565 23.4617 94.1843 22.3494 93.0303 21.9184C92.3908 21.6821 92.1961 20.4029 91.6817 19.6799C90.6111 18.1922 89.3876 16.8019 88.3866 15.2724C87.4272 13.7986 86.3148 12.45 85.2721 11.0457C84.0208 9.33551 82.5747 7.75048 81.6988 5.73444C81.2817 4.76118 80.2251 4.06599 79.4604 3.25957C78.4175 4.42749 78.6956 1.95263 77.8197 2.67562C77.7641 2.55049 77.6667 2.32802 77.6806 2.31412C78.64 1.74407 77.055 1.38257 77.5555 0.854234C77.055 0.590063 76.5822 0.214663 76.0539 0.0895294C75.5812 -0.0217004 75.0389 0.089532 74.5523 0.200762C74.01 0.325895 73.3428 0.423221 72.9812 0.770815C72.4667 1.27134 72.1608 1.98043 71.7994 2.62C71.1598 3.76011 70.8956 5.03925 70.4924 6.27669C69.9084 8.11198 68.8658 9.82214 68.3512 11.6714C67.5032 14.7302 66.1127 17.5805 65.2368 20.5976C64.6945 22.4746 63.7491 24.1986 63.3876 26.1313C63.0261 28.05 61.8443 29.7184 61.4828 31.6232C61.1213 33.4863 60.148 35.1826 59.8839 36.9623C59.5641 39.1034 58.1737 39.9655 56.6165 40.2853C55.5042 40.5216 55.0036 41.6895 53.655 41.5505C52.7651 41.4532 51.7502 42.3013 50.8186 42.7879C49.0112 43.7056 46.8979 43.8307 45.2015 45.082C44.7427 45.4157 44.117 44.9846 43.6443 44.512C41.4475 42.2596 39.2507 40.0211 36.9705 37.8521C35.9833 36.9205 35.1769 35.8361 33.9395 35.0992C32.9245 34.4874 32.271 33.2639 31.4646 32.3045C30.7416 31.4564 29.8657 30.8307 28.5866 30.6083C28.4336 30.6639 28.517 30.5526 28.5866 30.4553L28.8229 30.6917C28.7256 30.7751 28.6144 30.8585 28.5031 30.928C28.4892 30.928 28.3919 30.8307 28.5727 30.6083C28.1973 29.4125 27.4186 28.5644 26.4732 27.7719C25.5277 26.9794 24.3598 26.2425 24.0261 24.8799C22.9695 24.4906 22.5384 23.4895 21.8433 22.7387C20.731 21.5569 19.4379 20.5559 18.2561 19.4297C17.8668 19.0543 17.6582 18.4842 17.2411 18.1366C16.963 17.9142 16.963 17.2885 16.1149 17.5944C15.2529 17.9142 16.0315 16.7462 15.6005 16.4265C15.2529 16.1762 14.8636 16.204 14.5577 15.6061C14.0433 14.5634 12.9866 13.7847 12.0828 12.9644C11.6101 12.5195 10.6925 12.3109 10.5395 11.8104C10.331 11.1708 9.92781 10.7954 9.5246 10.3922C8.12033 8.9601 6.71605 7.52802 5.25616 6.13764C4.85295 5.74834 4.33851 5.41465 3.81017 5.22C1.05723 4.1216 0.12568 4.92802 0.528889 7.20823C0.765252 8.54299 0.834773 9.93336 1.79413 11.1569C2.29467 11.7826 2.39199 12.6446 3.28183 13.1174C4.01873 13.5067 4.43584 14.5912 5.18664 14.8553C6.45188 15.3002 6.98022 16.1623 7.56418 17.2329C7.91177 17.8863 8.81551 18.2339 9.39947 18.804C9.92781 19.3323 10.3171 19.9997 10.8315 20.5559C11.4155 21.2093 11.9577 22.0575 12.6946 22.3494C13.8347 22.8083 13.9598 24.004 14.8358 24.6297C15.7395 25.2831 16.5459 26.1452 17.2272 27.035C17.4497 27.327 17.5609 27.5772 17.9085 27.8414C18.8818 28.6061 19.7855 29.4542 20.5085 30.5804C21.2176 31.6927 22.0657 33.1526 23.8454 33.0553C24.3737 33.0275 23.6646 34.2649 24.5823 33.8339C25.7224 33.3056 24.6935 34.8906 25.5138 34.7794C25.6807 34.7516 26.5288 35.2938 25.7363 35.8361C25.8614 36.0168 25.9866 36.2115 26.1256 36.3922C28.8924 39.8403 32.1042 42.8574 35.1908 45.9997C35.7192 46.5419 36.1502 47.1815 36.6646 47.7376C36.8454 47.9462 37.1236 48.0991 37.3737 48.2104C37.5962 48.3077 38.0689 48.3355 38.0689 48.3633C37.9577 49.6703 38.9448 50.1152 39.7652 50.7965C40.5438 51.4221 41.086 52.3398 41.7812 53.0906C42.5598 53.9248 43.3941 54.6895 44.1726 55.5098C44.548 55.8991 44.7427 56.1494 45.3406 55.635C45.6465 55.3708 46.6475 54.6617 47.1063 55.8157C47.9962 55.635 48.9277 55.5237 49.7758 55.2457C50.6241 54.9676 51.3748 54.3419 52.7512 54.5227H52.3619C52.4176 54.3697 52.4454 54.1473 52.5566 54.0916C52.9737 53.8553 53.4186 53.6606 53.8635 53.4938C53.9887 53.4521 54.1694 53.5633 54.3224 53.605C54.225 53.7858 54.1694 54.0499 54.0165 54.1473C53.6689 54.3558 53.2796 54.4671 52.7512 54.5227C52.3619 54.7868 52.3619 55.051 52.3619 55.3152C52.5427 55.3152 52.779 55.3569 52.9042 55.2735C53.4603 54.912 53.8496 54.8564 53.9192 55.6628C53.947 56.0104 55.101 56.636 53.6411 56.6916C53.363 56.6916 52.9181 57.4703 52.9181 57.8874C52.9181 58.9441 51.3887 59.6949 52.3341 60.9184C52.3758 60.9601 52.1534 61.3216 52.0978 61.3077C50.9438 61.0296 51.055 62.2671 50.9159 62.6285C50.5684 63.5323 50.0539 64.436 49.8315 65.312C49.5673 66.313 49.4282 67.2168 48.7192 68.0232C48.5662 68.19 48.3577 68.9687 49.178 69.2328C50.0261 69.497 50.6936 69.9141 49.8037 71.0542C49.4283 71.5547 49.6785 72.5697 49.748 73.3483C49.7619 73.5569 50.1651 73.7098 50.3598 73.9184C50.471 74.0296 50.6101 74.2799 50.5544 74.3633C49.748 75.559 50.3181 76.4071 51.194 77.2553C51.9449 77.9783 52.3202 79.5216 53.794 78.1312C53.9609 77.9783 54.4475 78.1312 54.7812 78.2146C54.8646 78.2424 54.9758 78.5205 54.9341 78.6456C54.8924 78.7986 54.6978 78.9098 54.5726 79.0349C54.517 78.9793 54.4336 78.8542 54.3919 78.8542C53.7245 79.0071 53.071 79.174 52.4175 79.3269C52.9042 79.9943 53.6272 79.6467 54.2111 79.6467C56.1298 79.6328 57.9929 79.2435 59.8421 78.7291C60.871 78.4371 62.0667 78.9237 62.9844 78.1034C65.4314 78.1173 67.67 76.8103 70.1449 77.0606C71.8411 76.1569 73.8015 76.3376 75.5951 75.6842C76.8464 75.2253 78.3619 75.2392 79.7523 74.989C80.3223 74.8777 80.8507 74.7526 81.4068 74.5718C82.5608 74.1964 83.7844 73.9184 85.0774 73.8628C86.4261 73.8071 87.8442 73.5847 89.1512 73.0146C90.0688 72.6114 91.056 72.9173 92.071 72.4585C93.3084 71.8884 94.8518 72.0414 96.2561 71.8328C96.979 71.7216 97.6881 71.4852 98.3972 71.3184C99.5373 71.0542 100.691 70.8874 101.831 70.7066C102.888 70.5398 103.945 70.2756 105.029 70.2478C105.321 70.2478 105.599 69.928 105.919 69.8863C107.143 69.6916 108.283 69.2328 109.576 69.1494C111.439 69.0382 113.26 68.4264 115.109 68.0093C115.415 67.9398 115.707 67.6478 115.999 67.6617C118.71 67.7729 121.269 66.7302 123.952 66.5911C125.301 65.5205 127.053 66.4521 128.526 65.59C129.778 64.8531 131.405 65.159 132.809 64.5612C133.615 64.2136 134.7 64.4916 136.313 64.4916C136.702 64.4916 136.438 64.5195 136.187 64.4916C136.007 64.4638 135.84 64.3248 135.659 64.2414C135.798 64.158 135.937 64.005 136.076 63.9911C136.827 63.9494 137.536 64.0189 138.245 63.5045C138.537 63.282 139.26 63.6574 139.802 63.7687C139.288 64.0189 138.801 64.3248 138.273 64.4777C137.87 64.589 137.411 64.5055 136.326 64.5055C135.451 64.6863 135.242 64.9366 134.992 65.0061C134.588 65.1173 134.116 65.0061 133.74 65.159C133.476 65.2564 133.323 65.6317 133.115 65.8681C133.351 65.9376 133.587 66.0628 133.824 66.0628C135.075 66.0628 136.201 65.5066 137.383 65.1729C137.703 65.0756 138.078 64.9644 138.356 65.0617C138.565 65.1312 138.843 65.7152 138.801 65.743C137.411 66.9943 136.827 68.8991 135.478 70.1227C134.255 71.2211 133.601 72.6949 132.642 73.9462C131.683 75.1975 130.501 76.2542 129.611 77.5751C128.346 79.4521 126.802 81.1344 125.384 82.9141C125.064 83.3173 125.009 83.7483 125.607 83.8734C126.775 84.1376 126.274 84.8328 126.024 85.4028C125.787 85.9173 125.495 86.4595 125.092 86.8349C124.633 87.2659 124.772 87.5162 125.176 87.7804C126.024 88.3226 125.774 89.1847 125.704 89.9076C125.593 91.006 125.537 91.0895 126.483 92.2713C126.622 92.452 126.705 92.7023 126.761 92.9248C126.914 93.467 126.302 94.482 127.567 94.3429C128.137 94.2734 128.638 95.205 129.263 94.3847C129.388 94.2178 129.931 94.3847 130.278 94.3429C130.515 94.3151 130.932 94.1066 130.918 94.0927C130.515 92.8413 131.822 92.5494 132.267 91.7986C132.767 90.9504 133.532 90.2692 133.587 89.1847C133.587 88.9761 133.782 88.6285 133.907 88.6007C135.145 88.4617 134.63 87.6831 134.422 87.113C134.324 86.821 133.838 86.5708 134.519 86.4873C135.437 86.3761 135.617 86.3344 136.104 85.7782C136.66 85.1387 137.216 84.4991 137.759 83.8456C138.384 83.067 138.134 82.5665 136.994 82.4414C136.841 82.497 136.924 82.3857 136.994 82.2884L137.23 82.5248C137.133 82.6082 137.022 82.6916 136.91 82.7611C136.897 82.7611 136.799 82.6638 136.98 82.4414C137.272 81.9686 137.23 81.5793 137.397 81.3569C137.8 80.8285 138.76 80.3141 138.704 79.9109C138.551 78.8403 140.025 79.4799 139.941 78.298C139.802 78.312 139.677 78.6039 139.594 78.59C139.316 78.5344 139.052 78.3815 138.787 78.2702C138.94 78.0339 139.038 77.6863 139.246 77.6029C139.399 77.5333 139.691 77.8114 139.928 78.298C140.901 78.6317 141.957 78.6874 141.944 77.1162C141.944 76.9216 142.319 76.7269 142.5 76.5045C142.611 76.3793 142.806 76.1291 142.792 76.1013C141.902 75.2114 142.597 75.0863 143.32 74.7943C143.932 74.544 143.821 74.113 143.556 73.4735C143.223 72.6809 144.071 72.8617 144.544 72.8339C144.599 72.6809 144.627 72.4446 144.738 72.4029C145.183 72.236 146.045 72.1665 146.059 71.9997C146.142 71.1237 147.144 70.6232 146.907 69.6777C146.865 69.5248 146.949 69.3441 146.977 69.1772C148.2 69.5943 148.478 68.4125 148.687 67.8424C149.229 66.3408 150.759 65.7013 151.384 64.2553C152.163 62.4756 153.317 60.8767 154.276 59.1665C154.36 59.0275 154.095 58.6799 153.998 58.4435C154.29 58.3184 154.679 58.2767 154.874 58.0542C155.333 57.5676 155.694 56.9975 156.084 56.4692C156.501 55.9131 157.001 55.3847 156.153 54.7451C156.098 54.7034 156.598 53.9665 156.793 53.5355C157.238 52.5901 157.849 51.6585 158.03 50.6574C158.183 49.8371 157.975 48.8361 157.599 48.0713C157.307 47.4735 156.515 47.0981 155.917 46.6671C155.68 46.5002 155.361 46.4585 155.069 46.3612C155.319 46.1109 155.541 45.6938 155.819 45.6521C156.515 45.5687 156.862 45.4574 156.139 44.8874C155.694 44.5398 155.208 44.22 154.693 43.9558C152.524 42.8713 150.425 41.7034 148.159 40.7858C146.699 40.1879 145.211 39.4788 143.765 38.7697C140.706 37.296 137.689 35.7665 134.602 34.3484C131.961 33.1387 129.208 32.1794 126.622 30.8724C125.593 30.358 124.647 30.3719 123.674 30.4553C123.104 30.497 122.298 30.9002 122.117 31.3591C121.88 31.9152 122.506 32.3462 123.16 32.527C123.368 32.5826 123.465 32.9997 123.618 33.25C123.41 33.3473 123.201 33.4724 122.979 33.5419C122.812 33.5837 122.631 33.528 122.464 33.5558C122.145 33.6254 121.839 33.7227 121.533 33.82C121.658 34.112 121.7 34.5152 121.922 34.696C122.478 35.1409 122.409 35.4885 122.103 36.0863C121.95 36.3922 122.339 36.9901 122.52 37.435C123.479 39.7986 125.843 40.6328 127.72 41.8703C129.18 42.8435 130.779 43.7056 132.364 44.5398C133.518 45.1377 134.922 45.2489 135.77 46.4585C136.16 47.0147 137.175 46.2917 137.564 47.1954C137.759 47.6403 137.953 48.0296 137.425 48.2104C136.66 48.4746 135.826 48.7248 135.033 48.7248C134.074 48.7248 133.24 48.989 132.364 49.2671C131.502 49.5312 130.57 49.0307 129.653 49.7259C128.971 50.2403 127.762 49.3783 127.039 50.3237C124.814 50.0318 122.784 51.0606 120.699 51.4917C117.918 52.0617 115.026 52.2703 112.356 53.4104C111.494 53.7858 110.326 53.2852 109.464 53.9943C107.421 53.7858 105.641 55.1066 103.611 55.0371C102.93 55.774 102.04 55.4681 101.22 55.5794C100.497 55.6767 99.8014 55.9548 99.0785 56.0799C97.841 56.2884 96.3811 56.0799 95.4218 56.7056C94.2539 57.4564 92.9191 56.6639 91.8207 57.6093C91.2785 58.082 90.1245 57.2339 89.4155 58.0681C87.2048 57.8596 85.3278 59.5419 83.0892 59.236C81.8378 59.9451 80.3502 59.5975 79.0433 60.2093C78.6262 60.4039 77.8475 61.0713 77.1801 60.3483C76.6378 61.1965 75.609 60.4457 75.0807 60.9323C74.4411 61.5302 73.6347 61.0296 73.1619 61.3772C72.4529 61.8916 71.6742 61.6414 71.0069 61.8916C68.7544 62.712 66.1962 62.1141 64.0411 63.3932C63.6518 63.6157 63.0122 63.435 62.4838 63.4211C61.163 63.4072 60.9544 63.1708 61.455 61.9612C61.6218 61.558 61.9694 61.3216 61.5801 60.8628C60.732 59.8478 61.7191 59.6253 62.3031 59.236C62.4282 58.8606 62.4282 58.2767 62.6785 58.1237C64.1106 57.2756 64.3469 55.9548 64.4304 54.4532C64.4721 53.6744 63.7909 52.4927 65.3203 52.2842C65.223 52.1034 65.0979 51.9227 65.0283 51.728C64.8615 51.297 64.792 50.8938 65.4454 50.8382C65.1256 49.5729 66.3631 49.7398 66.9192 49.2949C67.2251 49.0446 67.9898 49.6008 68.0732 48.7526H67.2945C67.3642 48.5024 67.3642 48.113 67.5171 48.0435C68.977 47.3762 70.4229 46.6254 71.9523 46.1804C73.1202 45.8467 74.0378 44.7066 75.4143 45.082C76.5822 43.9558 77.9587 43.358 79.5993 43.5109L79.6689 43.5248ZM16.2679 22.5719C16.2122 22.7109 16.1566 22.8639 16.101 23.0029C15.9898 22.8639 15.8647 22.7109 15.7534 22.5719C15.5727 22.3911 15.4058 22.2243 15.2251 21.8211V22.0575C15.086 22.0158 14.9331 21.9879 14.8219 21.9045C14.7941 21.8767 14.8775 21.696 14.9053 21.5847C15.0026 21.6682 15.1139 21.7516 15.2112 22.0575C15.3919 22.2382 15.5588 22.4051 15.7395 22.5858H16.4903H16.254C16.2957 22.4468 16.3235 22.2938 16.4069 22.1826C16.4347 22.1548 16.6155 22.2382 16.7267 22.266C16.6433 22.3633 16.5598 22.4746 16.254 22.5719H16.2679ZM83.854 39.8681C83.8122 40.6467 83.2004 40.3131 82.8111 40.3965C82.5609 41.4115 81.7544 40.7163 81.2401 40.9248C81.1983 41.7034 80.5865 41.3697 78.932 41.7729C79.3352 41.6061 79.5159 41.5088 79.7106 41.4671C79.8635 41.4254 80.0304 41.4671 80.1973 41.4671C80.0722 41.6478 79.9886 41.912 79.8218 41.9676C79.641 42.0232 79.3909 41.8981 80.1973 41.4671C80.239 40.6885 80.8508 41.0222 81.2401 40.9387C81.4902 39.9238 82.2968 40.6189 82.8111 40.4104C82.8529 39.6318 83.4646 39.9655 84.3266 39.9933C84.1459 39.8542 83.993 39.7569 83.854 39.6457C83.979 39.5484 84.1042 39.3815 84.2154 39.3815C84.4378 39.3815 84.6464 39.5066 84.8549 39.5762C84.702 39.7013 84.5352 39.8125 83.854 39.882V39.8681ZM78.0421 42.5933C77.8614 42.4542 77.7085 42.3569 77.5695 42.2457C77.6945 42.1484 77.8197 41.9815 77.9309 41.9815C78.1533 41.9815 78.3619 42.1066 78.5705 42.1762C78.4175 42.3013 78.2507 42.4125 77.5695 42.482C77.5277 43.2607 76.9159 42.927 76.5266 43.0104C76.2765 44.0254 75.4699 43.3302 72.8004 44.1644C73.2871 43.9419 73.7181 43.7056 74.1769 43.5526C74.4132 43.4692 74.6914 43.5387 74.9556 43.5526C74.9556 43.5526 74.9834 43.7751 74.9556 43.789C74.3716 44.0671 73.7877 44.3312 73.1898 44.5676C73.148 44.5815 72.9951 44.3729 74.9556 43.5387C75.2058 42.5238 76.0123 43.2189 76.5266 43.0104C76.5684 42.2318 77.1801 42.5655 78.0421 42.5933ZM55.0454 50.8799C55.5737 51.8392 55.5459 51.881 52.3619 52.5622C52.8486 52.3398 53.2796 52.1034 53.7384 51.9505C53.9748 51.8671 54.2528 51.9366 54.517 51.9505C54.517 51.9505 54.5448 52.1729 54.517 52.1868C53.9331 52.4649 53.3491 52.7291 52.7512 52.9654C52.7095 52.9794 52.5566 52.7708 54.517 51.9366C54.6004 51.5334 54.2528 50.9355 55.2678 50.8938H55.0315C55.0732 50.7548 55.101 50.6018 55.1844 50.4906C55.2122 50.4628 55.3929 50.5462 55.5042 50.574C55.4208 50.6713 55.3373 50.7826 55.0315 50.8799H55.0454ZM86.4818 38.8254C86.732 37.8104 87.5385 38.5056 88.0528 38.297C88.0946 37.5184 88.7064 37.8521 89.9576 37.7687H89.0956C89.2346 37.5879 89.3459 37.3099 89.5127 37.2681C90.194 37.1152 90.7502 36.2254 91.5844 36.8649C91.6262 36.8927 91.6678 37.0318 91.6678 37.0318C91.0005 37.3238 90.347 37.6018 89.1096 37.7687C89.0678 38.5473 88.456 38.2136 88.0667 38.297C87.8165 39.312 87.01 38.6168 85.2303 39.1451C85.6336 38.9783 85.8143 38.881 86.009 38.8393C86.1619 38.7976 86.3288 38.8393 86.4957 38.8393C86.3706 39.02 86.287 39.2842 86.1202 39.3398C85.9394 39.3954 85.6893 39.2703 86.4957 38.8393L86.4818 38.8254ZM125.94 64.5055C125.69 64.5055 125.44 64.5334 125.19 64.5055C125.051 64.4916 124.911 64.3665 124.772 64.297C124.87 64.1997 124.967 64.0189 125.064 64.005C125.565 63.9771 126.065 63.9771 126.566 64.005C126.649 64.005 126.733 64.158 126.816 64.2414C126.691 64.3387 126.566 64.4638 126.427 64.5055C126.274 64.5473 126.093 64.5055 127.817 63.9911C127.651 63.9911 127.47 64.0189 127.317 63.9911C127.136 63.9494 126.983 63.8382 126.816 63.7547C127.025 63.6574 127.233 63.5184 127.456 63.4906C127.79 63.4489 128.123 63.4628 128.457 63.4906C128.596 63.4906 128.735 63.6296 128.874 63.6991C128.693 63.7965 128.526 63.9355 128.332 63.9911C128.179 64.0328 127.998 63.9911 125.94 64.5195V64.5055ZM89.6239 71.3184C89.4154 71.4991 89.2207 71.7911 88.9983 71.8189C88.3448 71.8884 87.6774 71.8467 87.01 71.8467C86.7877 72.0275 86.5929 72.3055 86.3567 72.3473C85.7866 72.4307 85.1052 72.2221 84.6186 72.4585C82.8667 73.2788 81.0453 73.5013 79.1544 73.4178C78.9459 73.5986 78.7513 73.8906 78.5287 73.9184C77.8754 73.9879 77.2079 73.9462 66.7384 76.143C66.5576 76.0039 66.3631 75.8371 66.1684 75.6702C66.7384 75.5312 67.1972 75.267 67.2389 74.5996C67.4197 74.697 67.6143 74.8777 67.7952 74.8638C68.2262 74.8221 68.81 74.4467 69.0186 74.6136C69.5748 75.0446 70.0475 75.0446 70.6592 74.8499C72.4111 74.3216 74.163 73.835 76.0261 73.9462C76.2068 73.9462 76.3737 74.113 76.5545 74.1964C76.3321 74.2799 76.1095 74.4189 75.8731 74.4467C74.3993 74.6831 72.8421 74.6692 71.4796 75.1836C70.687 75.4895 69.9781 75.3226 69.269 75.5034C68.4764 75.698 67.6839 75.8927 76.5545 73.9323C76.7631 73.7515 76.9576 73.4595 77.1801 73.4317C77.8336 73.3622 78.501 73.4039 79.1684 73.4039C79.1684 73.3205 79.1684 73.1537 79.1684 73.1537C79.7245 73.0563 80.2945 72.9173 80.8646 72.8895C81.671 72.8478 80.1973 71.5964 81.4485 71.8328C82.1437 70.9708 82.7139 71.2906 83.2839 71.9857C83.3812 72.1109 83.701 72.2082 83.8122 72.1526C84.841 71.513 85.9672 71.9718 87.0378 71.8328C87.2465 71.6521 87.441 71.3601 87.6636 71.3323C88.3171 71.2628 88.9844 71.3045 90.917 71.3045C90.6667 71.3045 90.4025 71.3323 90.1524 71.3045C89.9715 71.2767 89.8186 71.1515 89.6378 71.0681C89.8465 70.9847 90.0549 70.8317 90.2775 70.8039C90.778 70.7622 91.2924 70.7761 91.7929 70.8039C91.9319 70.8039 92.071 70.943 92.21 71.0125C92.0293 71.1098 91.8485 71.2628 91.6539 71.3045C91.4175 71.3601 91.1534 71.3045 89.6239 71.3045V71.3184ZM103.986 68.7045C103.736 68.7045 103.472 68.7323 103.222 68.7045C103.041 68.6767 102.888 68.5515 102.707 68.4681C102.916 68.3847 103.124 68.2317 103.347 68.2039C103.847 68.1622 104.362 68.1761 104.862 68.2039C105.001 68.2039 105.14 68.343 105.279 68.4125C105.099 68.5098 104.918 68.6628 104.723 68.7045C104.487 68.7601 104.223 68.7045 101.817 69.2467C101.567 69.2467 101.317 69.2745 101.067 69.2467C100.928 69.2328 100.789 69.1077 100.649 69.0382C100.747 68.9408 100.844 68.7601 100.941 68.7462C101.442 68.7184 101.943 68.7184 102.443 68.7462C102.526 68.7462 102.61 68.8991 102.693 68.9826C102.568 69.0799 102.443 69.205 102.304 69.2467C102.151 69.2884 101.97 69.2467 103.959 68.7323L103.986 68.7045ZM91.5148 66.758C91.1672 66.5772 90.8335 66.5216 90.6945 66.3269C90.5277 66.0906 91.2785 64.9783 91.3897 65.1034C91.6956 65.4371 91.9319 65.8403 92.1127 66.2574C92.1405 66.313 91.7512 66.5633 90.041 67.2168C89.7351 67.1194 89.4432 67.0082 89.1373 66.9109C89.318 66.8136 89.4988 66.6189 89.6656 66.6189C89.9994 66.6328 90.333 66.7719 90.6667 66.8414C90.4721 66.9526 90.2775 67.0638 91.5148 66.7441V66.758ZM48.7331 53.5911C48.8026 53.4521 48.8999 53.2296 48.9972 53.0072C49.4701 53.7023 50.193 53.4799 50.8603 53.5077C50.8047 53.6606 50.7631 53.9109 50.6657 53.9387C50.2626 54.036 49.7202 53.9387 49.47 54.1612C48.4411 55.0927 48.8443 54.0638 51.3331 53.605C51.1523 53.466 50.9994 53.3687 50.8603 53.2574C50.9855 53.1601 51.1106 52.9933 51.2218 52.9933C51.4443 52.9933 51.6528 53.1184 51.8614 53.1879C51.7085 53.313 51.5416 53.4243 48.7331 53.5772V53.5911ZM69.5191 46.1665H68.6711C68.7267 46.0136 68.7544 45.7772 68.8518 45.7355C69.8111 45.3323 70.7706 44.9569 71.7438 44.6093C71.8689 44.5676 72.0496 44.6788 72.2026 44.7344C72.1748 44.8596 72.1609 45.0542 72.0913 45.082C71.146 45.4992 70.1865 45.8885 67.4058 46.4863C67.809 46.3195 67.9897 46.2221 68.1844 46.1804C68.3373 46.1387 68.5042 46.1804 68.6711 46.1804C68.546 46.3612 68.4625 46.6254 68.2956 46.681C68.1149 46.7366 67.8646 46.6115 69.5191 46.1804V46.1665ZM62.0945 77.0745C61.5801 77.0745 61.3159 77.1023 61.0657 77.0745C60.8015 77.0328 60.5373 76.9077 60.2871 76.8242C60.5095 76.7408 60.732 76.6157 60.9544 76.5601C62.317 76.2681 63.6796 75.99 65.0421 75.7398C65.1951 75.712 65.3619 75.8232 65.5288 75.8649C65.4453 76.0873 65.4036 76.4906 65.2646 76.5184C64.1384 76.7547 62.9983 76.9355 59.0218 77.3943C59.425 77.2275 59.6059 77.1301 59.8004 77.0884C59.9534 77.0467 60.1202 77.0884 60.2871 77.0884C60.1619 77.2692 60.0785 77.5333 59.9117 77.589C59.7309 77.6446 59.4806 77.5194 62.0945 77.0884V77.0745ZM64.4721 71.8328C64.1662 72.2221 63.8742 72.6392 63.5405 73.0007C63.4154 73.1398 63.1096 73.2788 63.0122 73.2093C61.8027 72.4446 60.4817 73.0563 58.7576 73.1676C58.8411 73.0702 58.9245 72.959 59.0079 72.8617L59.2443 73.0981C59.147 73.1815 59.0496 73.2649 58.9245 73.3344C58.9106 73.3344 58.8133 73.2371 59.2443 72.8617C59.7726 72.5558 63.1373 71.221 63.3876 71.3045C63.7631 71.4296 64.1106 71.6382 65.0978 72.0275C64.7641 71.7911 64.486 71.6521 64.4999 71.5686C64.5555 71.2906 64.7085 71.0264 64.8197 70.7622C65.056 70.9152 65.4036 71.0125 65.4871 71.2211C65.5566 71.374 65.2785 71.666 64.4721 71.805V71.8328ZM110.062 67.6339C109.256 67.6339 108.992 67.6339 108.728 67.6339C108.658 67.6339 108.547 67.4949 108.547 67.467C108.602 67.3419 108.686 67.1473 108.783 67.1473C109.298 67.1055 109.854 67.2168 110.326 67.0777C111.175 66.8275 112.092 66.5772 112.76 66.0489C113.691 65.2981 114.414 66.5077 115.234 66.0906C115.304 66.0489 115.457 66.1184 115.485 66.0906C116.319 65.1173 117.431 65.743 118.418 65.59C118.571 65.5622 118.766 65.743 118.933 65.8403C118.794 65.9237 118.655 66.0906 118.516 66.0906C116.236 66.0489 114.094 66.8275 111.884 67.1612C111.077 67.2863 110.313 67.5783 119.934 65.5761C119.767 65.5761 119.586 65.6039 119.433 65.5761C119.253 65.5344 119.1 65.4232 118.933 65.3398C119.141 65.2424 119.35 65.1034 119.572 65.0756C119.906 65.0339 120.24 65.0478 120.574 65.0756C120.713 65.0756 120.852 65.2146 120.991 65.2842C120.81 65.3815 120.643 65.5205 120.448 65.5761C120.295 65.6178 120.115 65.5761 110.048 67.6756L110.062 67.6339ZM81.5321 68.774C81.254 68.6489 80.9758 68.5376 80.6977 68.4125C80.8646 68.3291 81.0453 68.1622 81.1983 68.1761C81.546 68.2178 81.8935 68.3569 82.2271 68.4681C82.0186 68.5654 81.81 68.6489 73.9822 70.2756C73.7181 70.2617 73.3567 70.3034 73.0508 70.1783C72.9117 70.1227 72.8978 69.7473 72.8282 69.5109C73.009 69.5109 73.2315 69.4136 73.3428 69.5109C73.8571 69.8585 74.2742 70.0114 74.3854 69.1911C74.4828 68.4959 75.0946 68.6071 75.3448 68.7462C76.2625 69.2467 77.0271 69.3858 77.6528 68.3569C77.6806 68.3152 77.9171 68.3569 78.0005 68.4125C78.9043 69.0382 79.4881 68.8574 79.8079 67.7729C79.8357 67.7034 80.2667 67.7034 80.4753 67.7729C80.5726 67.8007 80.6978 68.1066 80.6422 68.19C80.4059 68.5654 80.1694 69.1355 79.8218 69.205C77.9031 69.636 75.9566 69.9419 81.4763 68.8018L81.5321 68.774ZM74.4133 25.4917V25.728C74.2742 25.6863 74.1213 25.6585 74.01 25.5751C73.9822 25.5473 74.0658 25.3665 74.0936 25.2553C74.1908 25.3387 74.302 25.4222 72.5084 33.0414C72.4528 32.8607 72.2444 32.5409 72.3278 32.4296C73.1898 31.1783 73.0785 29.6211 73.6764 28.2863C74.1908 27.1462 74.5385 25.9644 74.9277 24.7826C75.3309 23.5452 76.2904 22.4885 75.9845 21.0425C75.9427 20.8617 76.1373 20.542 76.3042 20.4168C76.9715 19.958 76.9715 19.3323 77.0411 18.6232C77.1245 17.8446 77.4999 17.0938 77.7501 16.3291C78.2368 16.8019 78.7651 17.2468 79.2239 17.7473C79.6132 18.1644 79.9053 18.6789 80.2112 19.1377C81.7406 21.404 83.423 23.573 85.133 25.7141C86.1758 27.035 86.2454 27.035 84.7438 27.8136C83.9651 28.2168 83.1031 28.481 82.3245 28.8842C81.0175 29.5377 79.6272 29.927 78.3064 30.497C76.5406 31.2617 74.8304 32.1933 73.1063 33.0414C72.9673 33.1109 72.7726 33.0414 74.3993 25.5056L74.4133 25.4917ZM102.707 58.4991V58.7355C102.568 58.6938 102.415 58.666 102.304 58.5826C102.276 58.5548 102.36 58.374 102.387 58.2628C102.485 58.3462 102.596 58.4296 102.693 58.7355C103.083 58.6104 103.5 58.5548 103.847 58.3462C104.487 57.9708 105.154 57.9291 105.863 57.9291C107.546 57.9013 107.532 57.8735 109.117 56.8168C109.312 56.6917 109.701 56.8168 109.993 56.8724C110.299 56.928 110.744 57.1922 110.869 57.081C111.786 56.2467 112.857 56.8168 113.844 56.6499C114.261 56.5804 114.734 56.6916 115.095 56.5248C115.471 56.3441 115.679 55.774 116.055 55.6767C116.416 55.5794 117.098 56.066 117.264 55.8991C118.015 55.1761 119.044 55.8991 119.892 55.1483C120.532 54.5922 121.825 55.3708 122.812 54.6756C123.438 54.2168 124.272 53.7997 125.134 54.3975C125.774 53.6606 126.677 54.328 127.317 53.9943C128.026 53.6189 128.721 53.4243 129.472 53.5216C130.07 53.605 130.403 53.2713 130.821 52.9377C131.293 52.5623 132.128 51.9644 132.406 52.1173C134.213 53.2296 135.854 51.6863 137.564 51.9227C138.259 50.9494 138.982 52.451 139.733 51.8671C140.942 50.9216 142.388 51.5751 143.723 51.4082C143.834 51.3943 143.973 51.5751 144.099 51.6724C143.96 51.7558 143.821 51.8671 143.682 51.9088C141.304 52.5483 138.871 53.0906 136.465 53.3965C134.06 53.6884 131.669 54.1751 129.347 54.6617C126.58 55.2457 123.674 55.4542 121.032 56.636C118.571 56.4275 116.319 57.7205 113.872 57.6788C112.954 58.5408 111.703 57.8874 110.757 58.3601C110.034 58.7077 109.284 58.805 108.575 59.0275C107.601 59.3612 106.698 59.0553 105.794 59.2638C105.405 59.3473 104.89 59.4307 104.682 59.7088C104.167 60.39 103.5 60.2649 102.818 60.3205C101.72 60.4179 100.649 60.2371 99.5234 60.5569C97.7298 61.0713 95.8667 61.5023 94.0314 61.8082C92.7245 62.0307 91.3341 61.9334 90.0828 62.4339C88.8315 62.9344 87.6357 63.4071 86.2731 62.9344C85.717 63.9077 84.6048 63.1013 83.9512 63.6435C83.1726 64.297 82.2829 63.7965 81.4763 63.9911C80.6977 64.1858 79.8079 64.3248 79.2239 64.8114C78.9181 65.0617 79.0711 65.8542 78.4314 65.0895C78.0699 64.6724 77.7779 64.3387 77.3052 65.02C76.9159 65.5761 76.4432 65.8681 75.8453 65.1729C75.7341 65.0478 75.3031 65.0061 75.164 65.1034C73.4678 66.3826 70.9234 65.2424 69.4496 67.1194C69.394 67.0638 69.3107 67.0082 69.269 66.9387C68.4903 65.8681 68.0036 67.3002 67.2667 67.189C66.4881 67.0777 65.5984 66.7997 64.8197 67.5366C64.1245 68.19 63.2068 66.7719 62.4143 67.6339C62.3727 67.6756 62.1085 67.5644 61.9694 67.4949C61.747 67.3836 61.5523 67.2585 60.8571 67.4392C60.9405 67.3419 61.024 67.2307 61.1074 67.1334C61.1908 67.2168 61.2603 67.2863 61.3437 67.3697C61.2464 67.4531 61.1352 67.5366 61.024 67.6061C61.0101 67.6061 60.9127 67.5088 61.3437 67.1334C61.3994 66.9804 61.4828 66.7023 61.5245 66.7023C63.7491 66.9387 65.6122 65.1868 67.8646 65.5622C68.4207 64.4777 69.5749 65.2563 70.423 64.7558C71.2016 64.297 72.425 64.6307 73.44 64.4916C74.0658 64.4082 74.8027 64.2691 75.2615 63.8938C75.9984 63.2959 76.0261 63.6018 76.04 64.2692C76.04 64.3109 76.2764 64.3526 76.3876 64.3943C76.61 62.7815 77.4026 63.7408 78.0977 63.9633C78.3758 64.0467 79.0154 63.8938 79.0154 63.8104C79.1127 62.4895 80.0999 63.0874 80.7394 62.9344C81.1566 62.8371 81.4624 63.9077 81.9074 63.0317C82.255 62.3644 82.7416 62.712 83.2004 62.7815C83.3533 61.4189 84.41 62.0446 85.133 61.8638C85.6197 61.7387 86.4818 63.0318 86.5929 61.4884C86.8849 61.5163 87.2326 61.4883 87.4828 61.5997C88.2615 61.989 88.9845 62.1697 89.8186 60.974C89.5406 61.1965 89.4571 61.3355 89.3737 61.3355C89.1512 61.3355 88.9287 61.2521 88.6925 61.2104C88.7203 61.0991 88.748 60.8767 88.7758 60.8767C89.0539 60.8767 89.3459 60.9184 89.61 61.3355C90.0549 61.1687 90.7641 60.7376 90.8893 60.8767C91.5565 61.5719 92.0294 61.4189 92.5576 60.7654C92.6967 60.5986 93.0581 60.3761 93.072 60.3901C93.948 61.4189 94.3373 60.39 94.8934 60.0007C95.0742 59.8617 95.5052 59.7366 95.547 59.7922C96.131 60.5986 96.9651 59.9034 97.1459 59.7227C97.8271 59.0553 98.272 59.2082 98.856 59.7644C98.9394 59.8478 99.287 59.6392 99.5234 59.5697C98.5362 58.3045 99.8016 58.8189 100.205 58.7633C100.872 58.666 101.539 58.7216 102.082 59.2499C102.109 59.2777 102.499 58.9302 102.721 58.513L102.707 58.4991ZM70.6036 37.5184C71.4796 37.3516 70.9651 36.2671 72.0219 36.128C73.1619 35.9751 74.2048 35.1409 75.3031 34.6542C76.4154 34.1676 77.6389 33.9312 78.5705 33.0692C80.0443 33.4446 80.7534 32.0403 81.8935 31.6232C82.1993 31.512 82.5747 31.4564 82.8806 31.512C83.7844 31.6927 84.5074 31.2061 85.2303 30.8446C85.9672 30.4831 86.5373 29.8157 87.2742 29.4403C87.4828 29.3291 87.9972 29.7323 88.3031 29.9826C88.3727 30.0382 88.2057 30.5805 88.0389 30.6778C87.1074 31.1505 86.1758 31.6927 85.1748 31.9569C83.8261 32.3323 82.6443 33.0275 81.4068 33.6115C79.071 34.7238 76.5544 35.3494 74.2742 36.5869C73.3566 37.0874 72.3555 37.4072 71.3683 37.7687C71.2015 37.8243 70.9512 37.6435 70.6036 37.5323V37.5184ZM47.2732 47.8072C46.9812 47.6542 46.7309 47.5986 46.717 47.5152C46.6754 47.2927 46.6754 46.959 46.8004 46.8339C47.0924 46.5558 47.4539 46.3195 47.8293 46.1804C48.9556 45.7494 50.1373 45.4296 51.2496 44.9569C52.9459 44.22 54.6004 43.3719 56.2828 42.5794C56.4218 42.5098 56.6304 42.482 56.7694 42.5237C57.0753 42.5933 57.3812 42.6906 57.6314 42.8713C57.6871 42.9131 57.5619 43.358 57.409 43.5248C56.2689 44.8596 54.5865 45.1516 53.0432 45.6104C52.1534 45.8745 51.2775 45.9858 50.5962 46.681C49.6368 47.6681 48.163 47.0286 47.2732 47.835V47.8072ZM98.9811 69.1772C99.1758 69.2467 99.5929 69.3997 100.01 69.5526C99.5929 69.6082 99.1898 69.6637 98.7727 69.7473C98.5363 69.789 98.2999 69.8724 98.0635 69.928C96.4507 70.3034 94.8656 70.8317 93.1833 70.7761C93.0443 70.7761 92.9053 70.6232 92.7663 70.5398C92.8774 70.4146 92.9747 70.2756 93.1138 70.1783C93.3084 70.0253 93.5448 69.7334 93.7116 69.7612C95.4496 70.0948 97.0485 69.1911 98.995 69.1772H98.9811ZM66.1684 71.2071C66.1266 71.1237 66.071 71.0125 66.071 70.9986C66.21 70.9152 66.363 70.8595 66.502 70.7761C67.656 69.9697 68.9631 70.2895 70.2143 70.2617C70.8817 70.2617 71.563 70.3729 72.2304 70.4285C71.7298 71.0959 70.9234 70.4702 70.4507 70.8039C69.394 71.5269 68.1009 70.9569 67.0999 71.5686C66.4325 71.9719 66.4882 71.2349 66.1684 71.1932V71.2071ZM48.2186 50.6018C48.3438 50.4767 48.4689 50.3655 48.5801 50.2403C49.609 49.1419 50.9577 48.8221 52.3897 48.7943C52.5427 48.7943 52.6817 48.9056 52.8347 48.9751C52.6678 49.0863 52.5289 49.2254 52.348 49.3088C51.1801 49.8371 50.0122 50.3655 48.8443 50.8799C48.7192 50.9355 48.5245 50.8382 48.3716 50.7965C48.302 50.7687 48.2603 50.6852 48.2186 50.6157V50.6018ZM95.2411 66.0767C95.0742 66.0767 94.8934 66.1045 94.7405 66.0767C94.4346 66.0211 94.1287 65.9237 93.8228 65.8542C94.0453 65.6179 94.254 65.3676 94.4902 65.1451C95.3523 64.3248 95.6164 64.3248 96.2561 65.1451C96.5759 65.5622 96.4646 66.035 96.0196 66.0906C95.7694 66.1184 95.5191 66.0906 95.255 66.0906L95.2411 66.0767ZM122.965 65.0339C122.743 64.4638 121.95 65.6457 121.644 64.6863C122.131 64.6307 122.631 64.5612 123.118 64.5194C123.368 64.4916 123.632 64.4916 123.883 64.5194C123.966 64.5334 124.036 64.728 124.077 64.8531C124.077 64.8949 123.966 65.02 123.897 65.02C123.646 65.0339 123.382 65.02 122.951 65.02L122.965 65.0339ZM24.624 30.4553C24.624 30.205 24.5962 29.9409 24.6379 29.7045C24.6518 29.6072 24.8326 29.5377 24.9577 29.4821C24.9855 29.4821 25.0967 29.5794 25.1245 29.6489C25.3053 29.9965 25.5973 30.3441 25.6112 30.6917C25.6112 30.928 25.1941 31.1644 24.9716 31.4008C24.8604 31.2478 24.7074 31.1088 24.6379 30.9419C24.5823 30.789 24.6379 30.6083 24.6379 30.4414L24.624 30.4553ZM107.143 68.1761C106.795 68.1761 106.461 68.2039 106.114 68.1622C106.03 68.1622 105.989 67.9398 105.919 67.8285H107.838C107.782 67.9398 107.74 68.1205 107.657 68.1622C107.504 68.2178 107.323 68.1761 107.143 68.1761ZM76.5127 39.4232C76.2904 39.3398 76.1651 39.3259 76.1512 39.2703C76.1234 39.1591 76.0956 38.9922 76.1512 38.9227C76.3737 38.7002 76.6239 38.4778 76.902 38.3248C76.9993 38.2692 77.2079 38.3665 77.3608 38.3943C77.3052 38.5751 77.2913 38.7976 77.1662 38.9227C76.9576 39.1451 76.6796 39.2981 76.4988 39.4232H76.5127ZM130.987 63.4628C130.737 63.4628 130.473 63.4906 130.223 63.4489C130.139 63.4489 130.098 63.2264 130.042 63.1152H131.961C131.891 63.2403 131.849 63.435 131.766 63.4489C131.516 63.4906 131.252 63.4628 131.001 63.4628H130.987ZM74.455 3.82963C74.163 3.64888 74.024 3.55155 73.8988 3.46813C74.1908 3.23177 74.4828 2.99541 74.7747 2.77295C74.8305 2.91198 74.9695 3.10664 74.9277 3.20396C74.8166 3.44033 74.6218 3.63497 74.4689 3.82963H74.455ZM79.9192 37.7965C79.8219 37.6435 79.6271 37.4489 79.6689 37.3794C79.794 37.143 79.9747 36.9206 80.1833 36.7398C80.2112 36.712 80.4753 36.9484 80.6283 37.0596C80.3919 37.2959 80.1694 37.5462 79.933 37.7826L79.9192 37.7965ZM20.4112 25.9783C20.731 25.7419 21.0229 25.5195 21.3149 25.2831C21.3705 25.4222 21.5235 25.6446 21.4818 25.7002C21.3149 25.9088 21.0925 26.1034 20.8561 26.2286C20.7866 26.2703 20.5919 26.0895 20.4112 25.9783ZM78.8068 38.3804C78.4592 38.2414 78.3203 38.1858 78.1674 38.1302C78.4036 37.8382 78.6401 37.5462 78.8624 37.2542C78.946 37.3933 79.1127 37.5323 79.0988 37.6435C79.0432 37.8938 78.9042 38.1302 78.7929 38.3665L78.8068 38.3804ZM139.636 77.3665C139.052 76.9355 138.885 76.8521 138.773 76.713C138.634 76.5601 138.551 76.3654 138.44 76.1847C138.662 76.1291 139.024 75.9622 139.107 76.0596C139.288 76.2542 139.344 76.574 139.649 77.3665H139.636ZM138.704 61.989C138.342 61.8638 138.12 61.7943 137.898 61.7109C138.134 61.5997 138.356 61.4188 138.593 61.3772C138.815 61.3493 139.052 61.4745 139.288 61.5302C139.093 61.6831 138.885 61.8499 138.704 61.989ZM136.062 61.7804C136.257 61.9195 136.465 62.0724 136.674 62.2253C136.438 62.281 136.201 62.42 135.979 62.3922C135.729 62.3644 135.492 62.1836 135.256 62.0724C135.478 61.989 135.701 61.9055 136.048 61.7943L136.062 61.7804ZM133.462 63.0317C133.101 62.9066 132.878 62.8371 132.656 62.7537C132.892 62.6425 133.115 62.4617 133.351 62.42C133.574 62.3922 133.81 62.5173 134.046 62.5729C133.852 62.7259 133.643 62.8927 133.462 63.0317ZM121.394 60.9184C121.088 60.7933 120.796 60.682 120.504 60.5708C120.726 60.4874 120.949 60.3205 121.157 60.3205C121.463 60.3344 121.769 60.4735 122.075 60.5708C121.867 60.682 121.658 60.7793 121.394 60.9184ZM72.2026 3.46813C72.286 3.42642 72.4667 3.3569 72.6614 3.27348C72.717 3.41252 72.856 3.57936 72.8282 3.70449C72.7865 3.87134 72.6197 4.01038 72.4945 4.16332C72.4389 4.02428 72.3694 3.87134 72.2026 3.48203V3.46813ZM72.286 5.66492C72.1052 5.65101 71.8829 5.65102 71.8829 5.62321C71.855 5.40075 71.8689 5.16439 71.8829 4.94193C71.8829 4.94193 72.2026 4.91412 72.2165 4.94193C72.2582 5.16439 72.2721 5.40075 72.286 5.66492ZM18.3256 22.4607C18.0475 22.5024 17.8112 22.558 17.5748 22.5441C17.5053 22.5441 17.4358 22.3355 17.3802 22.2104C17.6026 22.1548 17.839 22.0714 18.0614 22.0436C18.1171 22.0436 18.2005 22.2521 18.3256 22.4468V22.4607ZM62.1085 57.2617C62.0667 57.1783 61.9972 56.9975 61.9138 56.8029C62.0528 56.7473 62.2197 56.6082 62.3448 56.636C62.5117 56.6777 62.6507 56.8446 62.8036 56.9697C62.6646 57.0253 62.5117 57.0949 62.1224 57.2617H62.1085ZM54.4475 47.6542C54.5726 47.4596 54.67 47.3205 54.7534 47.1954C54.8368 47.4179 54.9758 47.6264 55.0036 47.8489C55.0036 47.974 54.8507 48.113 54.7534 48.2382C54.6421 48.0296 54.5448 47.8211 54.4475 47.6542ZM135.492 78.1868C135.353 77.9783 135.186 77.8392 135.2 77.7141C135.228 77.4916 135.353 77.2831 135.451 77.0606C135.534 77.1997 135.701 77.3248 135.701 77.4638C135.701 77.6863 135.59 77.9087 135.506 78.1868H135.492ZM97.4795 65.4371C97.6047 65.2424 97.6742 65.0339 97.7438 65.0339C97.9801 65.0478 98.2025 65.1312 98.425 65.2007C98.3555 65.312 98.2999 65.5205 98.2303 65.5344C98.0079 65.5344 97.7715 65.4788 97.4795 65.451V65.4371ZM53.8913 58.5408C53.8218 58.6104 53.7662 58.666 53.7106 58.7216C53.655 58.6104 53.5716 58.4991 53.5438 58.374C53.5438 58.3323 53.655 58.2628 53.7106 58.2072C53.7801 58.3184 53.8358 58.4296 53.8913 58.5408ZM21.5513 29.051C21.6208 28.9815 21.6764 28.9259 21.732 28.8703C21.7876 28.9815 21.8711 29.0927 21.8989 29.2179C21.8989 29.2596 21.7876 29.3291 21.732 29.3847C21.6625 29.2735 21.6069 29.1623 21.5513 29.051ZM26.5288 29.9826L26.7096 30.1633C26.5983 30.219 26.4871 30.3024 26.362 30.3302C26.3203 30.3302 26.2507 30.219 26.1951 30.1633C26.3063 30.0938 26.4176 30.0382 26.5288 29.9826ZM52.3202 50.6852C52.2507 50.7548 52.1951 50.8104 52.1395 50.866C52.084 50.7548 52.0005 50.6435 51.9726 50.5184C51.9726 50.4767 52.084 50.4072 52.1395 50.3516C52.209 50.4628 52.2646 50.574 52.3202 50.6852ZM53.363 60.6403C53.2935 60.7098 53.2379 60.7654 53.1823 60.8211C53.1266 60.7098 53.0433 60.5986 53.0154 60.4735C53.0154 60.4318 53.1266 60.3622 53.1823 60.3066C53.2518 60.4178 53.3074 60.5291 53.363 60.6403ZM55.532 47.4596C55.532 47.4596 55.6572 47.2927 55.6988 47.2927C55.824 47.3205 55.9352 47.404 56.0464 47.4596C55.9908 47.5152 55.9213 47.6264 55.8796 47.6264C55.7544 47.5986 55.6432 47.5152 55.532 47.4596ZM65.3064 74.8916C65.1952 74.836 65.0838 74.7665 64.9726 74.7109C65.0283 74.6553 65.0978 74.544 65.1395 74.544C65.2646 74.5719 65.3758 74.6553 65.4871 74.7109C65.4314 74.7665 65.3759 74.8221 65.3064 74.8916ZM66.3492 74.8916C66.238 74.836 66.1266 74.7665 66.0154 74.7109C66.0711 74.6553 66.1405 74.544 66.1823 74.544C66.3074 74.5719 66.4186 74.6553 66.5298 74.7109C66.4742 74.7665 66.4187 74.8221 66.3492 74.8916ZM69.6861 37.5045C69.6861 37.5045 69.8111 37.3377 69.8528 37.3377C69.978 37.3655 70.0892 37.4489 70.2004 37.5045C70.1448 37.5601 70.0753 37.6713 70.0336 37.6713C69.9084 37.6435 69.7972 37.5601 69.6861 37.5045ZM73.6208 39.8681C73.6208 39.8681 73.4539 39.743 73.4539 39.7013C73.4818 39.5762 73.5651 39.4649 73.6208 39.3537C73.6764 39.4093 73.7877 39.4788 73.7877 39.5205C73.7598 39.6457 73.6764 39.7569 73.6208 39.8681ZM76.5822 1.95263C76.6379 1.8414 76.7074 1.73016 76.763 1.61893C76.8186 1.67455 76.9298 1.74407 76.9298 1.78578C76.902 1.91092 76.8186 2.02215 76.763 2.13338C76.7074 2.07776 76.6518 2.02214 76.5822 1.95263ZM77.486 72.6809C77.4165 72.7505 77.3608 72.8061 77.3052 72.8617C77.2496 72.7505 77.1663 72.6392 77.1385 72.5141C77.1385 72.4724 77.2496 72.4029 77.3052 72.3473C77.3747 72.4585 77.4304 72.5697 77.486 72.6809ZM78.4175 8.34834C78.3064 8.29272 78.1951 8.22321 78.0838 8.16759C78.1395 8.11198 78.209 8.00075 78.2507 8.00075C78.3758 8.02855 78.4871 8.11198 78.5984 8.16759C78.5427 8.22321 78.4872 8.27882 78.4175 8.34834ZM78.1535 70.5954C78.2091 70.4841 78.2785 70.3729 78.3341 70.2617C78.3897 70.3173 78.5009 70.3868 78.5009 70.4285C78.4731 70.5537 78.3897 70.6649 78.3341 70.7761L78.1535 70.5954ZM78.9459 10.9762C78.8346 10.9206 78.7234 10.8511 78.6123 10.7954C78.6679 10.7398 78.7373 10.6286 78.779 10.6286C78.9041 10.6564 79.0154 10.7398 79.1266 10.7954L78.9459 10.9762ZM81.6711 8.25101C81.6015 8.32053 81.546 8.37615 81.4902 8.43176C81.4346 8.32053 81.3512 8.2093 81.3234 8.08417C81.3234 8.04246 81.4346 7.97294 81.4902 7.91733C81.5599 8.02856 81.6154 8.13978 81.6711 8.25101ZM82.6025 36.128C82.4913 36.0724 82.3801 36.0029 82.269 35.9473C82.3246 35.8917 82.394 35.7804 82.4357 35.7804C82.5608 35.8082 82.6721 35.8917 82.7833 35.9473C82.7277 36.0029 82.6721 36.0585 82.6025 36.128ZM84.1041 68.1622C84.1041 68.1622 83.9373 68.0371 83.9373 67.9954C83.9651 67.8702 84.0485 67.759 84.1041 67.6478C84.1599 67.7034 84.271 67.7729 84.271 67.8146C84.2432 67.9398 84.1599 68.051 84.1041 68.1622ZM84.8968 35.4189C84.8968 35.4189 85.0218 35.2521 85.0635 35.2521C85.1886 35.2799 85.2999 35.3633 85.4111 35.4189C85.3555 35.4746 85.286 35.5858 85.2443 35.5858C85.1191 35.558 85.0079 35.4746 84.8968 35.4189ZM86.2037 35.1548C86.2037 35.1548 86.0368 35.0296 86.0368 34.9879C86.0647 34.8628 86.148 34.7516 86.2037 34.6403C86.2593 34.696 86.3704 34.7655 86.3704 34.8072C86.3426 34.9323 86.2593 35.0435 86.2037 35.1548ZM86.6485 67.5644C86.579 67.4949 86.5235 67.4392 86.4678 67.3836C86.579 67.328 86.6902 67.2446 86.8154 67.2168C86.8571 67.2168 86.9266 67.328 86.9822 67.3836C86.871 67.4531 86.7598 67.5088 86.6485 67.5644ZM87.3298 34.1815C87.3994 34.251 87.4549 34.3067 87.5107 34.3623C87.3994 34.4179 87.2881 34.5013 87.163 34.5291C87.1213 34.5291 87.0518 34.4179 86.9961 34.3623C87.1074 34.2927 87.2187 34.2371 87.3298 34.1815ZM92.3074 36.5452C92.3631 36.4339 92.4325 36.3227 92.4882 36.2115C92.5438 36.2671 92.6549 36.3366 92.6549 36.3783C92.6271 36.5034 92.5438 36.6147 92.4882 36.7259L92.3074 36.5452ZM101.664 67.912C101.664 67.912 101.79 67.7451 101.831 67.7451C101.956 67.7729 102.068 67.8563 102.179 67.912C102.123 67.9676 102.054 68.0788 102.012 68.0788C101.887 68.051 101.776 67.9676 101.664 67.912ZM123.674 60.0564C123.674 60.0564 123.799 59.8895 123.841 59.8895C123.966 59.9173 124.077 60.0007 124.188 60.0564C124.133 60.112 124.063 60.2232 124.022 60.2232C123.897 60.1954 123.785 60.112 123.674 60.0564ZM128.318 85.8061L128.137 85.9868C128.082 85.8756 127.998 85.7643 127.97 85.6392C127.97 85.5975 128.082 85.528 128.137 85.4724C128.207 85.5836 128.262 85.6948 128.318 85.8061ZM132.656 58.0403C132.711 57.9291 132.781 57.8179 132.837 57.7066C132.892 57.7622 133.003 57.8318 133.003 57.8735C132.976 57.9986 132.892 58.1098 132.837 58.2211C132.781 58.1654 132.725 58.1098 132.656 58.0403ZM136.952 57.6232C136.883 57.5537 136.827 57.4981 136.771 57.4425C136.883 57.3868 136.994 57.3034 137.119 57.2756C137.161 57.2756 137.23 57.3868 137.286 57.4425C137.175 57.512 137.063 57.5676 136.952 57.6232ZM138.259 78.9932C138.19 79.0628 138.134 79.1184 138.078 79.174C138.023 79.0627 137.939 78.9515 137.911 78.8264C137.911 78.7847 138.023 78.7152 138.078 78.6595C138.148 78.7708 138.203 78.882 138.259 78.9932ZM140.623 73.4874C140.734 73.543 140.845 73.6125 140.956 73.6681C140.901 73.7237 140.831 73.8349 140.79 73.8349C140.664 73.8071 140.553 73.7237 140.442 73.6681L140.623 73.4874ZM141.554 75.3227C141.61 75.2114 141.679 75.1002 141.735 74.989C141.791 75.0446 141.902 75.1141 141.902 75.1558C141.874 75.2809 141.791 75.3922 141.735 75.5034C141.679 75.4478 141.624 75.3922 141.554 75.3227Z" fill="#FC2424"/>
<path d="M100.093 72.4307C100.052 72.2778 100.052 72.0692 99.9545 71.9719C99.8572 71.8745 99.6347 71.7911 99.5096 71.8328C97.7021 72.4863 95.7834 72.5558 93.962 72.9729C92.085 73.404 90.0411 73.3344 88.3171 74.4189C86.8711 74.2243 85.5085 74.7387 84.1042 74.9612C83.0476 75.128 81.9909 75.2949 80.9481 75.5312C80.823 75.559 80.7813 75.9622 80.6978 76.1847C80.8647 76.2264 81.0454 76.3237 81.1845 76.2959C82.3802 76.0457 83.562 75.7259 84.7577 75.5034C85.9813 75.281 87.4411 75.4895 88.4005 74.8778C89.5684 74.1409 90.8058 74.6553 92.0016 74.0435C93.2529 73.404 94.9353 73.5986 96.423 73.3901C97.5631 73.2371 98.7032 73.0425 99.8433 72.8339C99.9406 72.82 100.01 72.5697 100.093 72.4307Z" fill="#FF001F"/>
<path d="M120.087 68.7741C120.991 68.5655 121.88 68.3569 122.756 68.1484C123.646 67.9537 124.578 68.4543 125.495 67.7452C125.926 67.3976 126.844 67.7035 127.511 67.6061C128.151 67.5088 128.763 67.2446 129.388 67.1056C130.264 66.9109 131.168 66.758 132.044 66.5634C132.197 66.5216 132.322 66.327 132.461 66.2019C132.211 65.9933 131.961 65.7848 131.724 65.5901C131.043 66.4104 130.084 65.8404 129.305 66.0628C126.51 66.8414 123.688 67.4532 120.796 67.6478C120.504 67.6617 120.254 68.0094 119.962 68.1345C119.67 68.2596 119.322 68.2874 119.002 68.3569C119.35 68.4821 119.711 68.6211 120.087 68.7601V68.7741Z" fill="#FF001F"/>
<path d="M109.033 70.8595C109.979 70.6648 110.924 70.4285 111.898 70.2616C112.787 70.0948 113.816 70.6648 114.539 69.7333C115.846 70.0392 116.972 69.2606 118.21 69.1354C118.307 69.1354 118.363 68.7044 118.432 68.482C118.266 68.4541 118.085 68.3846 117.918 68.4124C116.375 68.6627 114.817 68.8295 113.302 69.2328C111.884 69.6082 110.354 69.483 109.033 70.2477C108.728 70.4285 108.352 70.4702 108.005 70.5814C108.324 70.6648 108.63 70.7622 109.006 70.8595H109.033Z" fill="#FF001F"/>
<path d="M78.9598 75.8511C78.4175 76.0596 77.8197 76.4628 77.2079 76.5045C74.9694 76.6575 72.8004 77.1719 70.6175 77.589C69.7277 77.7559 68.8518 77.9227 67.9758 78.1174C67.8507 78.1452 67.7535 78.2981 67.6422 78.3954C67.7813 78.4789 67.9341 78.6318 68.0593 78.6179C69.6165 78.4093 71.2015 78.3259 72.717 77.9227C74.0657 77.5612 75.4282 77.3249 76.7908 77.1024C77.6111 76.9634 78.4315 77.0329 79.1823 76.5462C79.4465 76.3794 79.8079 76.3933 80.1277 76.3238C79.794 76.1848 79.4464 76.0457 78.9598 75.8511Z" fill="#FF001F"/>
<path d="M105.571 70.7759C104.918 70.9011 103.861 71.068 102.818 71.3183C102.109 71.4851 101.428 71.7632 100.747 71.9857C100.719 71.9857 100.705 72.1525 100.719 72.1525C101.456 72.375 102.151 72.5835 102.86 71.9996C103.083 71.8188 103.514 71.8049 103.82 71.8327C104.862 71.9439 105.794 71.6242 106.739 71.2905C106.962 71.207 107.198 71.1235 107.421 71.0401C107.212 70.9428 107.003 70.8176 106.781 70.7759C106.531 70.7342 106.253 70.7759 105.571 70.7759Z" fill="#FF001F"/>
<path d="M57.284 80.7311C58.577 80.5365 59.8562 80.3418 61.1492 80.1055C61.2326 80.0916 61.3439 79.8135 61.316 79.6884C61.2743 79.5215 61.038 79.2434 60.9824 79.2712C59.6198 79.8135 58.1599 79.9108 56.7417 80.2028C56.5193 80.2445 56.3107 80.3835 56.1021 80.467C56.3246 80.5504 56.5471 80.6616 56.7695 80.7172C56.9364 80.7589 57.1171 80.7172 57.284 80.7172V80.7311Z" fill="#FF001F"/>
<path d="M75.3865 46.1387C76.1373 45.8606 76.8881 45.5965 77.6111 45.2906C77.7919 45.2072 77.8892 44.9429 78.0143 44.7622C77.778 44.7066 77.3469 44.5676 77.3469 44.5816C76.9854 45.6243 75.6785 44.5815 75.2892 45.5408C75.2336 45.6798 75.0806 45.7911 74.9694 45.9023C75.1084 45.9857 75.2475 46.0692 75.3865 46.1387Z" fill="#FF001F"/>
<path d="M94.3373 38.2831C93.3084 38.2275 92.3352 38.3248 91.7234 39.3259C92.7523 39.3815 93.7255 39.2841 94.3373 38.2831Z" fill="#FF001F"/>
<path d="M63.1373 79.1461C62.6229 79.1461 62.3587 79.1461 62.1084 79.1461C62.0389 79.1461 61.9277 79.2852 61.9416 79.313C61.9833 79.4381 62.0528 79.6329 62.1502 79.6468C62.4004 79.6885 62.6646 79.6885 62.9149 79.6468C63.2347 79.6051 63.5544 79.5355 63.8742 79.466C63.5683 79.3131 63.2486 79.1739 63.1512 79.1183L63.1373 79.1461Z" fill="#FF001F"/>
<path d="M84.8967 41.9537C85.4111 41.759 86.2175 42.4403 86.4678 41.4253C85.9533 41.62 85.1469 40.9387 84.8967 41.9537Z" fill="#FF001F"/>
<path d="M89.0956 40.3826C88.5811 40.5772 87.7747 39.8959 87.5245 40.9109C88.0389 40.7162 88.8453 41.3975 89.0956 40.3826Z" fill="#FF001F"/>
<path d="M70.7566 47.7097C70.2421 47.9044 69.4357 47.2231 69.1854 48.2381C69.6999 48.0434 70.5063 48.7247 70.7566 47.7097Z" fill="#FF001F"/>
<path d="M65.1673 79.2574C65.5149 79.1323 65.7373 79.0488 65.9598 78.9793C65.7234 78.8681 65.4871 78.6873 65.2368 78.6595C65.0143 78.6317 64.778 78.7568 64.5416 78.8264C64.7502 78.9793 64.9587 79.1322 65.1534 79.2713L65.1673 79.2574Z" fill="#FF001F"/>
<path d="M79.6689 43.5248V44.0531C79.8357 44.0531 80.0304 44.0948 80.1833 44.0531C80.3501 43.9836 80.4893 43.8307 80.6283 43.7055C80.4754 43.6499 80.3362 43.5665 80.1833 43.5387C80.0164 43.5109 79.8357 43.5387 79.6689 43.5387V43.5248Z" fill="#FF001F"/>
<path d="M81.0176 43.3163C81.4764 43.4275 81.7267 43.5527 81.9075 43.497C82.0743 43.4414 82.1577 43.1773 82.2829 42.9965C82.116 42.9965 81.9492 42.9687 81.7962 42.9965C81.6016 43.0382 81.4347 43.1355 81.0176 43.3024V43.3163Z" fill="#FF001F"/>
<path d="M68.1288 48.7666C68.532 48.6832 69.1298 49.0308 69.1715 48.2383C68.7683 48.3217 68.1705 47.9741 68.1288 48.7666Z" fill="#FF001F"/>
<path d="M82.7555 43.1076C82.9779 42.9408 83.1309 42.8157 83.2838 42.7044C83.0753 42.6349 82.8528 42.5098 82.6442 42.5098C82.533 42.5098 82.4079 42.6766 82.2828 42.774C82.4218 42.8852 82.5747 42.9825 82.7555 43.1215V43.1076Z" fill="#FF001F"/>
<path d="M83.6453 42.2734C84.1041 42.3847 84.3544 42.5098 84.5352 42.4542C84.702 42.3986 84.7854 42.1344 84.9106 41.9536C84.7437 41.9536 84.5769 41.9258 84.4239 41.9536C84.2293 41.9954 84.0624 42.0927 83.6453 42.2595V42.2734Z" fill="#FF001F"/>
<path d="M87.5246 40.897C87.1214 40.9805 86.5235 40.6329 86.4818 41.4254C86.885 41.342 87.4829 41.6896 87.5246 40.897Z" fill="#FF001F"/>
<path d="M90.4583 39.6457C90.9171 39.7569 91.1673 39.8821 91.3481 39.8264C91.5149 39.7708 91.5984 39.5067 91.7235 39.3259C91.5567 39.3259 91.3898 39.2981 91.2369 39.3259C91.0422 39.3676 90.8754 39.4649 90.4583 39.6318V39.6457Z" fill="#FF001F"/>
<path d="M94.81 38.3805C95.0325 38.2137 95.1854 38.0885 95.3384 37.9773C95.1298 37.9078 94.9073 37.7827 94.6988 37.7827C94.5876 37.7827 94.4624 37.9495 94.3373 38.0468C94.4763 38.1581 94.6293 38.2554 94.81 38.3944V38.3805Z" fill="#FF001F"/>
<path d="M48.3021 56.9558L48.4829 57.1365C48.5385 57.0253 48.6219 56.9141 48.6497 56.789C48.6497 56.7472 48.5385 56.6777 48.4829 56.6221C48.4134 56.7333 48.3578 56.8446 48.3021 56.9558Z" fill="#FF001F"/>
<path d="M50.6519 56.0243C50.7214 55.9548 50.777 55.8992 50.8326 55.8436C50.7214 55.788 50.6102 55.7045 50.485 55.6767C50.4433 55.6767 50.3738 55.788 50.3182 55.8436C50.4294 55.9131 50.5406 55.9687 50.6519 56.0243Z" fill="#FF001F"/>
<path d="M62.6785 59.7226C62.6785 59.7226 62.8454 59.5697 62.8454 59.5558C62.7897 59.4446 62.6924 59.3472 62.609 59.236L62.3726 59.4724C62.47 59.5558 62.5812 59.6392 62.6785 59.7226Z" fill="#FF001F"/>
<path d="M65.8208 51.3387C65.8208 51.3387 65.9877 51.1857 65.9877 51.1718C65.9321 51.0606 65.8348 50.9633 65.7513 50.852L65.515 51.0884C65.6123 51.1718 65.7235 51.2552 65.8208 51.3387Z" fill="#FF001F"/>
<path d="M70.993 47.7098C71.0765 47.6124 71.1599 47.5012 71.2294 47.4039C71.1182 47.3761 70.9374 47.2788 70.9096 47.3205C70.8262 47.4317 70.7984 47.5846 70.7567 47.7237C70.8401 47.7237 70.9096 47.7237 70.993 47.7237V47.7098Z" fill="#FF001F"/>
<path d="M73.3705 46.4029C73.4817 46.4585 73.5929 46.5419 73.7181 46.5698C73.7598 46.5698 73.8293 46.4585 73.8849 46.4029C73.7737 46.3473 73.6624 46.2639 73.5373 46.2361C73.4956 46.2361 73.4261 46.3473 73.3705 46.4029Z" fill="#FF001F"/>
<path d="M79.1823 44.3451C79.1823 44.3451 79.3353 44.5119 79.3492 44.5119C79.4604 44.4563 79.5576 44.359 79.6689 44.2756C79.5854 44.1922 79.5159 44.1226 79.4325 44.0392C79.3491 44.1365 79.2658 44.2478 79.1823 44.3451Z" fill="#FF001F"/>
<path d="M89.332 40.3827C89.4154 40.2853 89.4988 40.1741 89.5683 40.0768C89.4571 40.049 89.2763 39.9516 89.2485 39.9934C89.1651 40.1046 89.1373 40.2575 89.0956 40.3966H89.332V40.3827Z" fill="#FF001F"/>
<path d="M144.933 73.3484C144.933 73.3484 145.1 73.1954 145.1 73.1815C145.044 73.0703 144.947 72.973 144.863 72.8617L144.627 73.0981C144.724 73.1815 144.836 73.265 144.933 73.3484Z" fill="#FF001F"/>
</g>
<defs>
<clipPath id="clip0_20_3917">
<rect width="158" height="95" fill="white" transform="translate(0.439148 0.043457)"/>
</clipPath>
</defs>
</svg>
