<svg width="112" height="135" viewBox="0 0 112 135" fill="none" xmlns="http://www.w3.org/2000/svg">
<g clip-path="url(#clip0_20_3963)">
<path d="M16.3371 67.57C16.1153 69.0115 17.0024 70.1343 17.6955 71.1739C18.1945 71.9224 18.7905 72.7264 19.5667 73.3501C20.2459 73.9046 20.842 74.653 21.2578 75.4154C21.7152 76.2471 22.6855 75.5818 23.032 76.1639C23.3093 76.6213 23.032 77.2728 23.6003 77.758C26.1924 80.0173 28.2161 82.8866 31.127 84.8133C31.5012 85.9499 32.3052 86.4766 33.4834 86.6014C33.7051 86.6291 33.8715 87.1142 34.0794 87.3637C34.6754 88.0707 35.2021 88.8746 35.9091 89.4568C36.5605 89.9835 38.0298 89.8033 38.1546 90.4825C38.3486 91.633 39.9843 91.1895 39.8318 92.3815C40.012 92.3815 40.206 92.3815 40.3862 92.3538C41.5367 92.1459 41.5367 92.1597 41.4813 93.3657C41.4674 93.6567 41.5367 94.0587 41.7308 94.2389C42.1466 94.6409 42.6733 94.9042 43.1308 95.2646C44.1288 96.027 45.1267 96.7894 46.0832 97.5933C46.6099 98.0369 47.0257 98.6468 47.5802 99.0349C48.0931 99.3953 48.7584 99.5477 49.3406 99.7972C49.6316 99.922 49.9366 100.047 50.2277 100.172C50.0752 100.352 49.9227 100.546 49.7702 100.726C50.0613 100.851 50.3802 100.92 50.6158 101.1C51.6138 101.876 52.6118 102.653 53.5267 103.512C53.9979 103.956 54.4553 104.177 55.1068 104.15C55.7583 104.122 55.2454 105.203 56.188 105.272C56.7563 105.314 57.7266 105.758 57.8652 106.742C57.8929 106.936 58.2672 107.268 58.4058 107.241C59.9444 106.825 60.2355 108.28 61.0949 108.918C61.58 109.278 62.7304 109.445 62.7166 109.694C62.7166 110.692 63.5898 110.359 63.978 110.706C64.477 111.163 64.7681 111.191 64.9067 111.385C65.073 111.607 65.3087 111.787 65.5166 111.967C67.3601 113.506 69.7996 114.185 71.3798 116.098C73.6669 116.888 75.358 118.635 77.4233 119.785C79.0451 120.686 80.4173 122.044 82.3302 122.46C82.8292 122.571 83.1619 123.347 83.6609 123.638C84.049 123.874 84.6034 123.957 85.047 123.888C85.5598 123.805 85.9895 123.777 86.1559 124.11C86.3499 124.47 86.4608 124.886 86.7242 125.177C87.0014 125.482 87.4033 125.69 87.7499 125.926C87.2509 125.981 86.7519 126.064 86.239 126.064C84.243 126.078 82.2054 126.3 80.2371 126.023C75.7877 125.399 71.269 126.009 66.8888 125.427C62.3978 124.844 57.9622 125.274 53.5128 125.025C52.1544 124.941 50.9069 125.316 49.8257 126.203C49.5901 126.397 49.2296 126.577 48.9386 126.549C48.1208 126.48 48.0653 126.965 48.1762 127.52C48.2871 128.074 48.5644 128.587 48.6752 129.141C48.9386 130.583 48.9802 130.444 49.9089 130.791C51.6415 131.456 53.7207 131.165 55.1207 132.718C55.2454 132.856 55.5919 132.815 55.8414 132.842C57.5048 133.022 59.182 133.258 60.8454 133.341C62.578 133.424 64.3245 133.3 66.071 133.383C68.3581 133.494 70.6313 133.785 72.9046 133.868C75.2471 133.951 77.6728 133.549 79.9322 133.979C82.5797 134.478 85.1995 134.339 87.8331 134.395C90.536 134.45 93.2389 134.339 95.928 134.422C98.3814 134.506 100.835 134.741 103.288 134.935C104.827 135.06 106.213 134.007 107.779 134.409C108.597 133.646 109.623 133.438 110.676 133.175C111.203 133.036 111.827 132.025 111.827 131.401C111.827 130.264 112.409 128.989 111.439 127.935C110.773 124.498 109.457 121.24 108.736 117.817C108.375 116.084 107.71 114.421 107.197 112.716C106.324 109.86 105.478 106.991 104.577 104.136C103.371 100.282 102.179 96.429 100.904 92.6033C100.502 91.3973 99.8507 90.2469 99.227 89.1241C99.0468 88.8053 98.5894 88.5697 98.2151 88.4727C97.9379 88.4034 97.5775 88.5697 97.3003 88.7222C97.2448 88.7499 97.3695 89.1796 97.4527 89.4013C98.3121 91.7439 99.4765 93.9894 99.8923 96.4844C100.849 97.0389 100.183 98.0646 100.571 98.8131C100.973 99.5893 101.209 100.463 101.445 101.322C101.667 102.112 101.639 103.013 102.013 103.692C103.385 106.229 103.136 109.264 104.591 111.773C104.564 113.783 105.187 115.682 105.645 117.609C106.185 119.896 106.975 122.128 107.433 124.442C107.641 125.468 108.001 126.48 108.209 127.506C108.251 127.672 107.876 127.935 107.682 128.143C107.516 127.991 107.253 127.88 107.211 127.7C106.49 124.941 105.977 122.128 105.049 119.452C104.3 117.304 104.065 115.031 103.233 112.896C102.623 111.316 102.401 109.583 101.971 107.934C101.223 105.106 100.447 102.292 99.6844 99.4784C99.2408 97.8428 98.8804 96.1517 98.2844 94.5716C97.6329 92.8389 96.7874 91.1894 95.9696 89.5261C95.8448 89.2766 95.4567 89.0133 95.1656 88.9994C94.4587 88.9439 94.7359 89.5538 94.6528 89.9142C94.5973 90.1221 94.4587 90.3023 94.3617 90.4964C94.2924 90.2607 94.2785 89.9558 94.126 89.831C93.8904 89.6508 93.5439 89.4984 93.2666 89.5123C92.5597 89.5816 90.9795 91.0508 91.0488 91.7023C91.2013 93.2548 90.6191 94.6963 90.5221 96.1934C90.4944 96.5537 90.7023 96.9141 90.8132 97.2884C90.8825 96.9696 90.9796 96.6507 91.0211 96.3319C91.0489 96.0686 90.9934 95.8052 91.0488 95.5557C91.0627 95.4587 91.2568 95.3894 91.3815 95.3339C91.4093 95.3339 91.5479 95.4448 91.5479 95.5141C91.5479 96.3042 91.5479 97.0805 91.5479 97.8705C91.7281 98.0785 92.0191 98.2725 92.0469 98.4943C92.1162 99.1457 92.0746 99.8111 92.0746 100.476C92.2548 100.684 92.5459 100.878 92.5736 101.1C92.6429 101.752 92.6013 102.417 92.6013 103.082C92.7815 103.29 93.0726 103.484 93.1003 103.706C93.1696 104.358 93.128 105.023 93.128 105.688C93.3082 105.896 93.5993 106.09 93.6271 106.312C93.6964 106.963 93.6548 107.629 93.6548 108.793C93.627 108.946 93.6548 109.126 93.6548 108.793C93.6963 108.613 93.8072 108.46 93.8904 108.294C93.9874 108.502 94.1261 108.71 94.1538 108.932C94.1954 109.264 94.1815 109.597 94.1538 109.93C94.1538 110.068 94.0151 110.207 93.9458 110.346C93.8488 110.165 93.7102 109.999 93.6548 109.805C93.6132 109.653 93.6548 109.472 93.6548 108.807C93.4746 108.308 93.3082 108.308 93.128 108.308C93.3221 109.278 92.8508 110.262 93.5855 111.274C94.0429 111.912 93.3914 113.09 94.1538 113.908C94.3201 114.074 94.1399 114.559 94.1122 114.906C93.7795 114.795 93.433 114.712 93.1142 114.573C92.1855 114.185 91.4647 113.298 90.6469 112.979C88.54 112.189 87.1955 110.443 85.3935 109.292C83.8133 108.266 82.15 107.338 80.6668 106.118C79.8074 105.411 78.6293 105.148 77.7837 104.261C76.9382 103.373 75.8015 102.777 74.8035 102.043C73.861 101.364 73.0016 100.546 71.9897 100.005C70.0907 98.9656 68.5522 97.4409 66.7502 96.2765C65.3641 95.3755 64.1304 94.2389 62.7305 93.3657C61.3166 92.4785 60.1245 91.3142 58.78 90.3301C55.7999 88.1677 53.0415 85.6727 50.1445 83.3718C47.5525 81.3203 45.1129 79.0886 42.5902 76.9679C40.8159 75.4708 39.2357 73.8075 37.5031 72.2828C36.4912 71.3957 35.4239 70.5779 34.4121 69.6769C34.218 69.5106 34.2042 69.0947 34.2042 68.8036C34.2042 68.7343 34.6338 68.6373 34.8695 68.6096C36.4081 68.4294 37.7803 69.2888 39.3605 69.1918C40.8298 69.0947 42.4238 68.6512 43.8654 69.6215C44.1704 69.8294 44.7109 69.6492 45.1545 69.6492C50.1168 69.6492 55.0791 69.5799 60.0414 69.7046C60.9562 69.7323 61.7325 69.0531 62.7859 69.566C63.5483 69.9402 64.6572 69.6353 65.6274 69.6353C66.667 69.6353 67.7344 69.5244 68.7601 69.663C71.1719 69.9957 73.5283 69.3581 75.8431 68.9977C78.7956 68.5541 81.8312 67.7363 83.8688 65.1027C84.243 64.6175 84.9222 64.3819 85.2965 63.8968C87.9855 60.4038 87.3756 57.7701 84.7282 54.7623C83.0509 52.8633 81.152 51.1168 79.156 49.4534C77.0213 47.6792 74.8313 45.9465 72.6412 44.2416C70.0214 42.2179 67.3739 40.208 64.7542 38.1843C61.7879 35.8972 58.6275 33.8596 55.7444 31.4616C53.9147 29.9369 51.8633 28.6755 49.9089 27.2894C47.6911 25.7231 45.4733 24.1429 43.2416 22.5766C41.5644 21.3984 39.8734 20.2202 38.1684 19.0697C34.4952 16.6024 30.8082 14.149 27.1349 11.6817C24.0855 9.64412 21.0915 7.52334 17.8064 5.86C16.5727 5.23625 15.5331 4.22436 14.2995 3.58675C12.0124 2.39468 9.6837 1.27195 7.31343 0.273944C6.50949 -0.0587243 5.44219 -0.225043 4.6937 0.592767C4.12538 1.21652 3.6541 1.46602 3.04421 0.67593C2.9749 0.592763 2.55906 0.648194 2.55906 0.662056C2.43431 1.8957 1.14521 1.50759 0.563041 2.08976C-0.0191272 2.67193 -0.143845 3.78081 0.161102 4.8897C0.313575 5.44415 0.493728 5.34711 0.77095 5.01445C1.20066 4.51544 1.92147 4.19668 1.75513 3.32342C1.71355 3.06006 1.7274 2.53331 2.2264 2.99072C2.4066 3.15706 2.58678 3.47589 2.55906 3.71153C2.48976 4.51548 2.68381 5.34714 3.2937 6.38673C3.47389 6.20654 3.64026 6.0402 3.93135 5.86C3.97293 5.86 3.88974 5.86 3.82043 5.86C3.86202 5.72139 3.88976 5.5689 3.97293 5.45801C4.00065 5.43029 4.18082 5.51345 4.2917 5.54118C4.20854 5.63821 4.1254 5.7491 3.93135 5.84613C3.64026 6.02632 3.46003 6.19266 3.2937 6.37286C3.86201 7.44017 4.77685 6.87188 5.59466 6.99663C6.24614 7.09366 5.71942 8.79858 6.98078 8.99264C7.78473 9.11739 8.04811 10.4065 9.157 10.0599C9.33719 10.0045 9.85005 10.4065 9.89163 10.656C10.1134 11.9728 11.2916 12.1114 12.2896 12.6381C12.3312 12.6381 12.248 12.6381 12.1787 12.6381C12.2203 12.4995 12.248 12.347 12.3312 12.2362C12.3589 12.2084 12.5391 12.2916 12.65 12.3193C12.5668 12.4163 12.4837 12.5272 12.2896 12.6243C12.9827 13.5114 13.6341 13.9133 14.9094 14.3292C15.0341 14.3707 15.2143 14.3569 15.2698 14.4262C15.4777 14.7727 15.5747 15.2163 15.8519 15.4797C16.3786 15.9787 17.0163 16.3529 17.5984 16.8103C18.6519 17.642 19.7053 18.4737 20.7172 19.3469C21.1192 19.6935 21.438 20.0677 22.0479 19.943C22.9904 19.7351 23.0182 20.2341 23.2677 21.038C23.4894 21.7449 24.5152 22.2439 25.2221 22.7707C26.4696 23.7132 27.7725 24.5865 29.0201 25.5429C32.125 27.927 35.2299 30.2972 38.2932 32.7368C40.4694 34.4695 42.4793 36.3962 44.7109 38.0457C47.1366 39.8199 49.1881 42.0377 51.7663 43.6456C52.9583 44.3941 53.8316 45.5861 55.0375 46.4317C56.7702 47.6376 58.1424 49.3425 59.8612 50.5762C61.5661 51.796 62.9938 53.3207 64.6988 54.5405C66.7641 56.0098 68.5383 57.9226 70.4096 59.6553C70.562 59.8077 70.7145 60.2374 70.6591 60.2929C70.4511 60.4869 70.1324 60.6671 69.8551 60.6671C62.4671 60.681 55.0791 60.681 47.6911 60.681C44.3367 59.6552 40.8852 60.3899 37.4754 60.1404C36.5883 60.0711 35.715 59.7384 34.8141 59.6553C33.9547 59.5721 33.0675 59.683 32.2081 59.6275C30.9329 59.5444 29.7408 59.8632 28.5072 60.1127C27.3844 60.3483 26.2063 60.0988 25.0696 60.6394C23.9885 61.1522 22.7687 61.3602 21.6182 61.7344C21.3132 61.8315 21.0637 62.0671 20.7865 62.2473C20.1766 62.677 19.5806 63.1067 18.9707 63.5364C18.3054 64.0215 17.64 64.5206 16.9747 65.0057C17.8756 65.9898 16.8915 67.473 17.9034 68.4571C18.1668 68.7205 18.2915 69.164 18.4301 69.5383C18.4717 69.6492 18.3331 69.8294 18.2776 69.9818C18.1529 69.9125 18.0281 69.8709 17.9034 69.7878C17.044 69.2472 17.3628 67.9027 16.3509 67.4591L16.3371 67.57ZM95.2072 115.1C95.027 114.892 94.7498 114.712 94.7082 114.476C94.6251 113.991 94.6805 113.492 94.1676 112.12C94.1676 111.87 94.1399 111.621 94.1676 111.371C94.1815 111.233 94.3063 111.094 94.3756 110.956C94.4726 111.053 94.6528 111.15 94.6666 111.247C94.6944 111.746 94.6944 112.245 94.6666 112.744C94.6666 112.827 94.5141 112.91 94.431 112.993C94.334 112.868 94.2092 112.744 94.1676 112.605C94.126 112.453 94.1676 112.272 94.6805 112.993C94.8607 113.201 95.1379 113.381 95.1795 113.617C95.2627 114.102 95.2072 114.601 95.0963 115.557C95.2349 115.377 95.332 115.225 95.4429 115.086C95.5399 115.211 95.7062 115.336 95.7062 115.447C95.7062 115.668 95.5815 115.876 95.5122 116.084C95.3874 115.932 95.2765 115.765 95.2072 115.086V115.1ZM80.6668 56.287C80.6668 56.287 80.6807 56.2038 80.7361 56.19C80.8886 56.1345 81.0827 56.0375 81.2074 56.0929C82.1639 56.4949 82.247 57.4929 82.649 58.2691C82.6906 58.3384 82.5381 58.6018 82.4134 58.6711C82.2747 58.7404 81.9698 58.7681 81.9282 58.6988C81.4846 57.9226 81.0965 57.1325 80.6668 56.3147V56.287ZM96.1498 113.173C96.2884 112.979 96.4408 112.771 96.5933 112.563C96.6488 112.799 96.7874 113.035 96.7596 113.256C96.7319 113.506 96.5518 113.742 96.4409 113.977C96.3577 113.755 96.2745 113.534 96.1636 113.187L96.1498 113.173ZM5.05409 1.66006C5.19271 1.86798 5.35903 2.00659 5.34517 2.13134C5.31745 2.35312 5.19271 2.56104 5.09568 2.78281C5.01251 2.6442 4.84615 2.51944 4.84615 2.38083C4.84615 2.15905 4.95706 1.93729 5.04022 1.66006H5.05409ZM6.3016 7.73127C6.46793 7.32929 6.52336 7.19068 6.59267 7.03821C6.70356 7.19068 6.86988 7.32928 6.92533 7.49561C6.95304 7.62036 6.8283 7.77283 6.759 7.9253C6.5788 7.84214 6.38476 7.77285 6.3016 7.73127ZM94.0567 104.371C94.2231 103.969 94.2785 103.831 94.3478 103.692C94.4587 103.845 94.625 103.983 94.6805 104.15C94.7082 104.274 94.5835 104.427 94.5141 104.579C94.3339 104.496 94.1399 104.427 94.0567 104.385V104.371ZM95.3181 108.322C95.5122 108.447 95.7201 108.516 95.7201 108.585C95.7062 108.821 95.623 109.043 95.5537 109.264C95.4428 109.195 95.2349 109.14 95.2211 109.07C95.2211 108.849 95.2765 108.613 95.3042 108.322H95.3181ZM95.8448 110.415C96.0389 110.54 96.2468 110.609 96.2468 110.678C96.2329 110.914 96.1498 111.136 96.0805 111.357C95.9696 111.288 95.7617 111.233 95.7478 111.163C95.7478 110.942 95.8033 110.706 95.831 110.415H95.8448ZM96.7458 115.682C96.8428 115.502 96.9399 115.308 97.0508 115.1C97.1339 115.239 97.3141 115.377 97.3003 115.488C97.2725 115.71 97.1478 115.918 97.0508 116.14C96.9676 116.001 96.8706 115.876 96.7458 115.682ZM93.9181 101.516C93.9181 101.516 94.0845 101.641 94.0845 101.682C94.0567 101.807 93.9736 101.918 93.9181 102.029C93.8627 101.973 93.7518 101.904 93.7518 101.863C93.7795 101.738 93.8627 101.627 93.9181 101.516ZM95.0409 106.298C95.1102 106.367 95.1656 106.423 95.2211 106.478C95.1102 106.534 94.9993 106.617 94.8745 106.645C94.833 106.645 94.7637 106.534 94.7082 106.478C94.8191 106.409 94.93 106.354 95.0409 106.298ZM85.4905 111.898C85.4212 111.829 85.3658 111.773 85.3103 111.718C85.4212 111.662 85.5321 111.579 85.6569 111.552C85.6985 111.552 85.7678 111.662 85.8232 111.718C85.7123 111.787 85.6014 111.843 85.4905 111.898ZM97.3141 117.456C97.3141 117.456 97.4389 117.29 97.4805 117.29C97.6052 117.318 97.7161 117.401 97.827 117.456C97.7715 117.512 97.7022 117.623 97.6607 117.623C97.5359 117.595 97.425 117.512 97.3141 117.456Z" fill="#FC2424"/>
<path d="M92.6013 105.702C92.6013 106.367 92.5597 107.033 92.629 107.684C92.6568 107.906 92.9478 108.1 93.128 108.308V105.702H92.6013Z" fill="#C400B8"/>
<path d="M92.0746 103.082C92.0746 103.748 92.033 104.413 92.1023 105.065C92.13 105.286 92.4211 105.48 92.6013 105.688V103.082H92.0746Z" fill="#C400B8"/>
<path d="M91.5617 100.477C91.5617 101.142 91.5201 101.807 91.5894 102.459C91.6171 102.68 91.9082 102.874 92.0884 103.082V100.477H91.5617Z" fill="#C400B8"/>
<path d="M91.5617 97.8567C90.8132 98.7023 90.8132 99.6171 91.5617 100.463V97.8567Z" fill="#C400B8"/>
<path d="M16.0321 67.085C16.0321 67.085 15.8658 67.2374 15.8658 67.2513C15.9212 67.3622 16.0183 67.4592 16.1015 67.5701L16.3371 67.3345C16.24 67.2513 16.1291 67.1681 16.0321 67.085Z" fill="#C400B8"/>
<path d="M90.1756 93.2408C90.1063 93.3102 90.0509 93.3656 89.9954 93.421C90.1063 93.4765 90.2172 93.5597 90.3419 93.5874C90.3835 93.5874 90.4528 93.4765 90.5083 93.421C90.3974 93.3517 90.2865 93.2963 90.1756 93.2408Z" fill="#C400B8"/>
</g>
<defs>
<clipPath id="clip0_20_3963">
<rect width="112" height="135" fill="white"/>
</clipPath>
</defs>
</svg>
