<svg width="76" height="91" viewBox="0 0 76 91" fill="none" xmlns="http://www.w3.org/2000/svg">
<path d="M64.9141 45.5656C65.0646 46.5377 64.4627 47.2948 63.9924 47.9959C63.6537 48.5006 63.2493 49.0428 62.7226 49.4634C62.2617 49.8373 61.8572 50.342 61.5751 50.8561C61.2647 51.417 60.6063 50.9684 60.3712 51.3609C60.183 51.6693 60.3712 52.1087 59.9855 52.4359C58.2266 53.9594 56.8534 55.8943 54.8781 57.1936C54.6242 57.9601 54.0786 58.3152 53.2792 58.3994C53.1287 58.4181 53.0158 58.7452 52.8747 58.9134C52.4703 59.3902 52.1129 59.9323 51.6331 60.3249C51.1911 60.6801 50.1941 60.5586 50.1094 61.0166C49.9778 61.7924 48.8678 61.4934 48.9713 62.2972C48.849 62.2972 48.7174 62.2972 48.5951 62.2785C47.8144 62.1383 47.8144 62.1476 47.852 62.9609C47.8614 63.1571 47.8144 63.4282 47.6827 63.5497C47.4006 63.8208 47.0432 63.9984 46.7327 64.2414C46.0555 64.7555 45.3784 65.2696 44.7293 65.8117C44.3719 66.1109 44.0897 66.5222 43.7135 66.7839C43.3654 67.0269 42.914 67.1297 42.5189 67.2979C42.3215 67.3821 42.1145 67.4664 41.917 67.5507C42.0204 67.6721 42.1239 67.8029 42.2274 67.9243C42.0299 68.0086 41.8135 68.0551 41.6536 68.1765C40.9764 68.6998 40.2992 69.2237 39.6784 69.803C39.3586 70.1024 39.0482 70.2514 38.6062 70.2332C38.1641 70.2143 38.5121 70.9433 37.8725 70.9899C37.4869 71.0182 36.8284 71.3176 36.7344 71.9811C36.7156 72.112 36.4616 72.3358 36.3675 72.3176C35.3235 72.0371 35.126 73.0183 34.5428 73.4485C34.2136 73.6913 33.433 73.8039 33.4424 73.9718C33.4424 74.6448 32.8498 74.4202 32.5864 74.6543C32.2478 74.9624 32.0503 74.9813 31.9562 75.1121C31.8434 75.2618 31.6834 75.3832 31.5424 75.5046C30.2914 76.5424 28.6361 77.0003 27.5638 78.2903C26.0118 78.8231 24.8643 80.0012 23.4628 80.7766C22.3623 81.3842 21.4312 82.3 20.1332 82.5805C19.7946 82.6554 19.5688 83.1787 19.2302 83.3749C18.9668 83.534 18.5906 83.59 18.2896 83.5435C17.9417 83.4875 17.6501 83.4686 17.5372 83.6932C17.4055 83.936 17.3303 84.2165 17.1515 84.4127C16.9634 84.6184 16.6907 84.7587 16.4555 84.9178C16.7941 84.9549 17.1327 85.0109 17.4808 85.0109C18.8352 85.0203 20.2178 85.17 21.5535 84.9832C24.5727 84.5624 27.639 84.9738 30.6112 84.5813C33.6587 84.1882 36.6686 84.4781 39.6878 84.3102C40.6096 84.2536 41.4561 84.5065 42.1898 85.1046C42.3496 85.2354 42.5942 85.3568 42.7917 85.3379C43.3466 85.2914 43.3843 85.6185 43.3091 85.9927C43.2338 86.3663 43.0456 86.7122 42.9704 87.0858C42.7917 88.0583 42.7635 87.9645 42.1333 88.1985C40.9576 88.6469 39.5467 88.4507 38.5967 89.498C38.5121 89.591 38.277 89.5634 38.1077 89.5816C36.9789 89.703 35.8408 89.8621 34.7121 89.9181C33.5364 89.9741 32.3513 89.8904 31.1662 89.9464C29.6142 90.0213 28.0717 90.2175 26.5291 90.2735C24.9395 90.3294 23.2935 90.0584 21.7604 90.3483C19.9639 90.6848 18.1861 90.5911 16.3991 90.6289C14.5649 90.6659 12.7308 90.5911 10.9061 90.6471C9.24129 90.7037 7.57635 90.8622 5.91181 90.993C4.86749 91.0773 3.927 90.3672 2.86436 90.6383C2.30929 90.1238 1.61307 89.9835 0.898537 89.8062C0.540932 89.7124 0.1175 89.0307 0.1175 88.6099C0.1175 87.8431 -0.277428 86.9833 0.380791 86.2726C0.832718 83.9548 1.72572 81.7578 2.21497 79.4495C2.45993 78.2809 2.91118 77.1595 3.25928 76.0097C3.85168 74.0838 4.42574 72.1491 5.03714 70.2238C5.85549 67.6249 6.66435 65.0266 7.52953 62.4468C7.80231 61.6335 8.24427 60.8577 8.6675 60.1006C8.78977 59.8856 9.10014 59.7267 9.35413 59.6613C9.54224 59.6146 9.78679 59.7267 9.97489 59.8295C10.0126 59.8482 9.92794 60.138 9.87148 60.2875C9.28831 61.8672 8.49818 63.3815 8.21603 65.064C7.56685 65.4379 8.01878 66.1296 7.75549 66.6343C7.4827 67.1577 7.32256 67.7469 7.16242 68.3262C7.01178 68.8589 7.03078 69.4665 6.77699 69.9244C5.84599 71.6352 6.01495 73.6818 5.02763 75.3738C5.04596 76.7292 4.62321 78.0098 4.31243 79.3093C3.946 80.8515 3.40993 82.3566 3.09914 83.9171C2.958 84.609 2.71371 85.2914 2.57257 85.9833C2.54408 86.0952 2.79854 86.2726 2.93018 86.4128C3.04282 86.3103 3.22128 86.2355 3.24979 86.1141C3.73904 84.2536 4.08714 82.3566 4.71685 80.5521C5.2251 79.1036 5.38457 77.5708 5.94913 76.1311C6.36307 75.0656 6.51371 73.897 6.8055 72.785C7.31306 70.8779 7.83963 68.9803 8.35711 67.083C8.65813 65.98 8.90268 64.8396 9.30711 63.7741C9.7492 62.6056 10.3229 61.4933 10.8779 60.3717C10.9626 60.2034 11.2259 60.0258 11.4234 60.0165C11.9031 59.979 11.715 60.3903 11.7714 60.6334C11.8091 60.7736 11.9031 60.8951 11.9689 61.026C12.016 60.867 12.0254 60.6614 12.1289 60.5773C12.2887 60.4557 12.5239 60.353 12.712 60.3623C13.1917 60.4091 14.264 61.3998 14.217 61.8392C14.1135 62.8861 14.5086 63.8582 14.5744 64.8677C14.5932 65.1107 14.4521 65.3537 14.3768 65.6061C14.3298 65.3912 14.2639 65.1761 14.2358 64.9611C14.2169 64.7836 14.2546 64.6059 14.217 64.4377C14.2075 64.3723 14.0758 64.3255 13.9912 64.2881C13.9724 64.2881 13.8783 64.3629 13.8783 64.4096C13.8783 64.9424 13.8783 65.4659 13.8783 65.9987C13.756 66.1389 13.5586 66.2698 13.5397 66.4193C13.4927 66.8586 13.5209 67.3073 13.5209 67.7557C13.3986 67.8959 13.2011 68.0268 13.1823 68.1765C13.1353 68.6161 13.1635 69.0646 13.1635 69.513C13.0412 69.6533 12.8437 69.7841 12.8249 69.9338C12.7779 70.3735 12.8061 70.8219 12.8061 71.2704C12.6838 71.4106 12.4863 71.5415 12.4674 71.6912C12.4204 72.1302 12.4486 72.5793 12.4486 73.3642C12.4675 73.4674 12.4486 73.5888 12.4486 73.3642C12.4205 73.2428 12.3452 73.1397 12.2887 73.0277C12.2229 73.168 12.1288 73.3083 12.11 73.458C12.0818 73.6818 12.0912 73.9064 12.11 74.131C12.11 74.224 12.2041 74.3177 12.2512 74.4115C12.317 74.2894 12.411 74.1775 12.4486 74.0467C12.4768 73.9442 12.4486 73.8221 12.4486 73.3737C12.5709 73.0372 12.6838 73.0372 12.8061 73.0372C12.6744 73.6913 12.9942 74.3548 12.4956 75.0373C12.1853 75.4675 12.6274 76.2619 12.11 76.8135C11.9972 76.9254 12.1194 77.2525 12.1382 77.4865C12.364 77.4117 12.5991 77.3557 12.8155 77.2619C13.4456 77.0003 13.9348 76.4022 14.4897 76.187C15.9194 75.6543 16.8317 74.4769 18.0545 73.7007C19.1268 73.0088 20.2554 72.383 21.2619 71.5603C21.8451 71.0836 22.6445 70.9062 23.2183 70.3081C23.792 69.7093 24.5633 69.3074 25.2406 68.8124C25.8801 68.3545 26.4633 67.8029 27.1499 67.4381C28.4385 66.7371 29.4825 65.709 30.7053 64.9238C31.6459 64.3162 32.483 63.5497 33.4329 62.9609C34.3924 62.3626 35.2013 61.5774 36.1136 60.9138C38.1358 59.4556 40.0076 57.7731 41.9734 56.2215C43.7323 54.8381 45.3877 53.3332 47.0995 51.9031C48.3035 50.8935 49.3758 49.7719 50.5515 48.7437C51.2381 48.1455 51.9624 47.594 52.649 46.9864C52.7807 46.8743 52.79 46.5938 52.79 46.3975C52.79 46.3508 52.4985 46.2854 52.3386 46.2667C51.2945 46.1452 50.3634 46.7247 49.2911 46.6593C48.2941 46.5938 47.2125 46.2947 46.2342 46.949C46.0273 47.0892 45.6605 46.9677 45.3595 46.9677C41.9922 46.9677 38.6249 46.921 35.2577 47.0051C34.6369 47.0238 34.1101 46.5657 33.3953 46.9116C32.878 47.164 32.1255 46.9584 31.4672 46.9584C30.7617 46.9584 30.0374 46.8836 29.3414 46.977C27.7048 47.2014 26.1059 46.7714 24.5351 46.5284C22.5316 46.2292 20.4718 45.6778 19.0891 43.9018C18.8352 43.5746 18.3743 43.4157 18.1203 43.0886C16.2956 40.7331 16.7095 38.9571 18.5059 36.9288C19.6441 35.6482 20.9327 34.4705 22.2871 33.3487C23.7356 32.1523 25.2217 30.9839 26.7078 29.8342C28.4855 28.4695 30.2821 27.1141 32.0597 25.7495C34.0726 24.2072 36.2171 22.8331 38.1735 21.216C39.4151 20.1879 40.8071 19.3372 42.1333 18.4025C43.6382 17.3463 45.1432 16.2807 46.6575 15.2245C47.7956 14.4299 48.9431 13.6354 50.1 12.8596C52.5926 11.1958 55.0945 9.54133 57.5871 7.87752C59.6563 6.50348 61.6879 5.07334 63.9171 3.95167C64.7543 3.53105 65.4597 2.84868 66.2968 2.41871C67.8487 1.61485 69.4289 0.857736 71.0373 0.184733C71.5829 -0.0396005 72.3071 -0.151757 72.815 0.399731C73.2006 0.820356 73.5204 0.988606 73.9343 0.455811C73.9813 0.399728 74.2635 0.437108 74.2635 0.446455C74.3482 1.27836 75.2229 1.01664 75.6179 1.40922C76.013 1.80181 76.0976 2.54958 75.8907 3.29735C75.7872 3.67125 75.665 3.60581 75.4769 3.38148C75.1853 3.04497 74.6961 2.83002 74.809 2.24114C74.8372 2.06354 74.8278 1.70833 74.4892 2.01678C74.367 2.12895 74.2447 2.34396 74.2635 2.50286C74.3105 3.045 74.1788 3.60583 73.765 4.30687C73.6427 4.18536 73.5298 4.07319 73.3323 3.95167C73.3041 3.95167 73.3605 3.95167 73.4076 3.95167C73.3793 3.8582 73.3605 3.75537 73.3041 3.68059C73.2853 3.6619 73.163 3.71798 73.0878 3.73668C73.1442 3.80211 73.2006 3.87689 73.3323 3.94232C73.5298 4.06383 73.6521 4.176 73.765 4.29752C73.3794 5.01726 72.7586 4.63403 72.2036 4.71816C71.7616 4.78359 72.119 5.9333 71.2631 6.06416C70.7175 6.14828 70.5388 7.01759 69.7863 6.78386C69.6641 6.7465 69.316 7.01759 69.2878 7.18584C69.1373 8.07382 68.3378 8.16728 67.6606 8.52246C67.6324 8.52246 67.6889 8.52246 67.7359 8.52246C67.7077 8.429 67.6889 8.32616 67.6324 8.25144C67.6136 8.2327 67.4913 8.2888 67.4161 8.30748C67.4725 8.37289 67.5289 8.44768 67.6606 8.51316C67.1903 9.11137 66.7483 9.38239 65.8829 9.66285C65.7983 9.69084 65.676 9.68153 65.6384 9.72826C65.4973 9.96192 65.4315 10.2611 65.2434 10.4387C64.886 10.7752 64.4532 11.0275 64.0582 11.336C63.3434 11.8968 62.6286 12.4577 61.9419 13.0465C61.6691 13.2803 61.4528 13.5326 61.0389 13.4485C60.3994 13.3083 60.3805 13.6448 60.2112 14.1869C60.0608 14.6636 59.3647 15.0001 58.885 15.3554C58.0385 15.9909 57.1544 16.5798 56.3078 17.2248C54.2009 18.8325 52.094 20.4308 50.0154 22.076C48.5387 23.2444 47.1748 24.5437 45.6605 25.656C44.0145 26.8524 42.6224 28.348 40.8729 29.4323C40.0641 29.937 39.4715 30.7408 38.6532 31.3111C37.4774 32.1243 36.5463 33.274 35.38 34.1059C34.2231 34.9285 33.2543 35.9566 32.0973 36.7792C30.6959 37.77 29.4919 39.0599 28.2221 40.2284C28.1187 40.3311 28.0152 40.6209 28.0528 40.6583C28.194 40.7892 28.4102 40.9107 28.5984 40.9107C33.6117 40.92 38.6249 40.92 43.6382 40.92C45.9144 40.2283 48.2565 40.7237 50.5703 40.5555C51.1723 40.5088 51.7649 40.2844 52.3762 40.2284C52.9593 40.1723 53.5614 40.247 54.1445 40.2096C55.0098 40.1536 55.8188 40.3686 56.6559 40.5368C57.4178 40.6957 58.2172 40.5274 58.9885 40.892C59.7221 41.2378 60.5498 41.3781 61.3305 41.6304C61.5375 41.6959 61.7068 41.8548 61.8949 41.9763C62.3088 42.266 62.7132 42.5558 63.127 42.8456C63.5785 43.1727 64.03 43.5093 64.4815 43.8364C63.8701 44.5 64.5379 45.5002 63.8513 46.1638C63.6725 46.3415 63.5879 46.6405 63.4939 46.8929C63.4656 46.9677 63.5597 47.0892 63.5974 47.192C63.682 47.1453 63.7667 47.1172 63.8513 47.0612C64.4344 46.6966 64.2181 45.79 64.9048 45.4908L64.9141 45.5656ZM11.3952 77.6173C11.5175 77.4771 11.7056 77.3557 11.7338 77.1965C11.7902 76.8695 11.7526 76.533 12.1006 75.6078C12.1006 75.4392 12.1194 75.2713 12.1006 75.1027C12.0912 75.0096 12.0065 74.9159 11.9595 74.8228C11.8937 74.8883 11.7714 74.9537 11.762 75.0191C11.7432 75.3556 11.7432 75.6921 11.762 76.0286C11.762 76.0845 11.8655 76.1405 11.9219 76.1965C11.9877 76.1122 12.0724 76.0286 12.1006 75.9348C12.1289 75.8323 12.1007 75.7103 11.7526 76.1965C11.6303 76.3367 11.4422 76.4581 11.414 76.6173C11.3576 76.9443 11.3952 77.2808 11.4705 77.9255C11.3764 77.8041 11.3105 77.7016 11.2353 77.6079C11.1694 77.6922 11.0566 77.7765 11.0566 77.8513C11.0566 78.0004 11.1412 78.1406 11.1882 78.2809C11.2729 78.1784 11.3482 78.0658 11.3952 77.6079V77.6173ZM21.2619 37.957C21.2619 37.957 21.2525 37.9009 21.2149 37.8916C21.1114 37.8541 20.9797 37.7887 20.8951 37.8261C20.246 38.0972 20.1896 38.7702 19.9168 39.2936C19.8886 39.3403 19.9921 39.5179 20.0767 39.5647C20.1708 39.6114 20.3777 39.6301 20.4059 39.5834C20.707 39.0599 20.9703 38.5271 21.2619 37.9756V37.957ZM10.7556 76.3179C10.6615 76.187 10.5581 76.0468 10.4546 75.9065C10.417 76.0657 10.3229 76.2248 10.3418 76.3738C10.3606 76.5424 10.4828 76.7016 10.5581 76.86C10.6145 76.7103 10.671 76.5613 10.7462 76.3273L10.7556 76.3179ZM72.5704 1.11946C72.4764 1.25967 72.3635 1.35314 72.3729 1.43726C72.3917 1.58682 72.4764 1.72703 72.5422 1.87658C72.5987 1.78311 72.7115 1.69898 72.7115 1.60551C72.7115 1.45595 72.6363 1.30641 72.5799 1.11946H72.5704ZM71.7239 5.21356C71.6111 4.94248 71.5734 4.84901 71.5264 4.7462C71.4512 4.84901 71.3383 4.94248 71.3007 5.05464C71.2819 5.13877 71.3665 5.24158 71.4135 5.3444C71.5358 5.28832 71.6675 5.2416 71.7239 5.21356ZM12.1759 70.3823C12.063 70.1112 12.0254 70.0181 11.9784 69.9244C11.9031 70.0276 11.7903 70.1206 11.7526 70.2332C11.7338 70.3168 11.8184 70.42 11.8655 70.5225C11.9878 70.4666 12.1194 70.42 12.1759 70.3917V70.3823ZM11.32 73.0466C11.1882 73.1309 11.0472 73.1774 11.0472 73.224C11.0566 73.3831 11.1131 73.5328 11.1601 73.6818C11.2353 73.6353 11.3764 73.5982 11.3858 73.551C11.3858 73.402 11.3482 73.2428 11.3294 73.0466H11.32ZM10.9625 74.458C10.8308 74.5423 10.6898 74.5888 10.6898 74.6354C10.6992 74.7945 10.7556 74.9442 10.8026 75.0933C10.8779 75.0467 11.0189 75.0096 11.0284 74.9624C11.0284 74.8134 10.9907 74.6543 10.9719 74.458H10.9625ZM10.3512 78.0098C10.2853 77.8884 10.2195 77.7576 10.1442 77.6173C10.0878 77.7111 9.96553 77.8041 9.97489 77.879C9.99376 78.0287 10.0784 78.1689 10.1442 78.3186C10.2007 78.2249 10.2665 78.1406 10.3512 78.0098ZM12.27 68.457C12.27 68.457 12.157 68.5413 12.157 68.5689C12.1759 68.6532 12.2323 68.7281 12.27 68.8029C12.3075 68.7652 12.3828 68.7187 12.3828 68.691C12.364 68.6067 12.3075 68.5319 12.27 68.457ZM11.5081 71.6817C11.461 71.7283 11.4234 71.766 11.3858 71.8031C11.461 71.8409 11.5363 71.8968 11.621 71.9157C11.6491 71.9157 11.6962 71.8409 11.7338 71.8031C11.6586 71.7566 11.5833 71.7195 11.5081 71.6817ZM17.9887 75.4581C18.0357 75.4115 18.0733 75.3738 18.111 75.3367C18.0357 75.2989 17.9604 75.243 17.8758 75.2247C17.8475 75.2247 17.8005 75.2989 17.7629 75.3367C17.8382 75.3832 17.9134 75.421 17.9887 75.4581ZM9.96553 79.2061C9.96553 79.2061 9.88084 79.0942 9.85262 79.0942C9.768 79.113 9.69274 79.169 9.61749 79.2061C9.65515 79.2439 9.70218 79.3187 9.73034 79.3187C9.81503 79.2998 9.89027 79.2439 9.96553 79.2061Z" fill="#FC2424"/>
</svg>
