<svg width="200" height="62" viewBox="0 0 200 62" fill="none" xmlns="http://www.w3.org/2000/svg">
<g clip-path="url(#clip0_20_5800)">
<mask id="path-1-outside-1_20_5800" maskUnits="userSpaceOnUse" x="44.1326" y="13.9995" width="149.243" height="32.9991" fill="black">
<rect fill="white" x="44.1326" y="13.9995" width="149.243" height="32.9991"/>
<path d="M51.844 28.1456L51.7123 45.9987H46.0834L46.3067 15.728H53.5469L66.7583 39.2313C66.5165 37.0542 66.4021 35.0849 66.4151 33.3232L66.5449 15.728H72.1739L71.9505 45.9987H64.5169L51.4975 22.6888C51.6181 23.8202 51.7036 24.8443 51.7541 25.7609C51.8191 26.6633 51.849 27.4582 51.844 28.1456ZM100.496 41.1004L100.46 45.9987H77.8802L78.1035 15.728H84.4414L84.2543 41.1004H100.496ZM115.741 33.581L115.65 45.9987H109.333L109.425 33.581L98.7715 15.728H105.41L112.577 28.5323L120.02 15.728H126.658L115.741 33.581ZM135.852 27.6515L135.716 45.9987H130.087L130.311 15.728H138.797L144.086 32.6572C144.323 33.6025 144.566 34.555 144.817 35.5146C145.068 36.4599 145.311 37.4051 145.548 38.3504C145.71 37.8062 145.864 37.2691 146.011 36.7392C146.158 36.1949 146.306 35.6506 146.453 35.1064C146.614 34.5621 146.776 34.025 146.937 33.4951L152.633 15.728H161.076L160.853 45.9987H155.224L155.359 27.6515C155.362 27.2362 155.383 26.4054 155.421 25.1594C155.473 23.899 155.54 22.5312 155.623 21.056C155.107 22.9752 154.651 24.608 154.255 25.9543C153.872 27.3006 153.557 28.3533 153.308 29.1124L147.726 45.9987H143.214L137.882 29.1124L135.642 21.056C135.716 22.7174 135.77 24.0995 135.805 25.2024C135.84 26.2909 135.856 27.1073 135.852 27.6515ZM191.461 41.1004L191.425 45.9987H166.74L166.963 15.728H190.768L190.731 20.6263H173.265L173.209 28.2316H189.365L189.329 33.1299H173.172L173.114 41.1004H191.461Z"/>
</mask>
<path d="M51.7123 45.9987L51.7049 46.9986H52.7049L52.7123 45.9987H51.7123ZM46.0834 45.9987H45.0834L45.076 46.9986H46.076L46.0834 45.9987ZM46.3067 15.728L46.314 14.728H45.314L45.3067 15.728H46.3067ZM53.5469 15.728L54.4195 15.2332L54.1356 14.728H53.5543L53.5469 15.728ZM66.7583 39.2313L65.8857 39.7261L67.7522 39.1137L66.7583 39.2313ZM66.5449 15.728L66.5523 14.728H65.5523L65.5449 15.728H66.5449ZM72.1739 15.728H73.1739L73.1812 14.728H72.1812L72.1739 15.728ZM71.9505 45.9987L71.9432 46.9986H72.9432L72.9505 45.9987H71.9505ZM64.5169 45.9987L63.643 46.4912L63.9265 46.9986H64.5096L64.5169 45.9987ZM51.4975 22.6888L52.3714 22.1963L50.5031 22.8019L51.4975 22.6888ZM51.7541 25.7609L50.7556 25.8233L50.7561 25.8317L50.7567 25.84L51.7541 25.7609ZM50.844 28.1456L50.7123 45.9987H52.7123L52.844 28.1456H50.844ZM51.7196 44.9987H46.0907L46.076 46.9986H51.7049L51.7196 44.9987ZM47.0834 45.9987L47.3067 15.728H45.3067L45.0834 45.9987H47.0834ZM46.2993 16.728H53.5395L53.5543 14.728H46.314L46.2993 16.728ZM52.6743 16.2228L65.8857 39.7261L67.6309 38.7364L54.4195 15.2332L52.6743 16.2228ZM67.7522 39.1137C67.5138 36.9667 67.4025 35.0375 67.4151 33.3232H65.4151C65.4018 35.1323 65.5193 37.1418 65.7644 39.3489L67.7522 39.1137ZM67.4151 33.3232L67.5449 15.728H65.5449L65.4151 33.3232H67.4151ZM66.5376 16.728H72.1665L72.1812 14.728H66.5523L66.5376 16.728ZM71.1739 15.728L70.9505 45.9987H72.9505L73.1739 15.728H71.1739ZM71.9579 44.9987H64.5243L64.5096 46.9986H71.9432L71.9579 44.9987ZM65.3909 45.5062L52.3714 22.1963L50.6236 23.1812L63.643 46.4912L65.3909 45.5062ZM50.5031 22.8019C50.6223 23.9203 50.7062 24.9271 50.7556 25.8233L52.7526 25.6986C52.701 24.7615 52.6139 23.7201 52.4919 22.5756L50.5031 22.8019ZM50.7567 25.84C50.8203 26.7237 50.8488 27.4913 50.844 28.1456H52.844C52.8493 27.425 52.8179 26.6028 52.7516 25.6818L50.7567 25.84ZM100.496 41.1004H101.496L101.504 40.1004H100.504L100.496 41.1004ZM100.46 45.9987L100.453 46.9986H101.453L101.46 45.9987H100.46ZM77.8802 45.9987H76.8802L76.8729 46.9986H77.8729L77.8802 45.9987ZM78.1035 15.728L78.1109 14.728H77.1109L77.1035 15.728H78.1035ZM84.4414 15.728H85.4414L85.4488 14.728H84.4488L84.4414 15.728ZM84.2543 41.1004H83.2543L83.2469 42.1003H84.2469L84.2543 41.1004ZM99.4964 41.1004L99.4603 45.9987H101.46L101.496 41.1004H99.4964ZM100.468 44.9987H77.8876L77.8729 46.9986H100.453L100.468 44.9987ZM78.8802 45.9987L79.1035 15.728H77.1035L76.8802 45.9987H78.8802ZM78.0962 16.728H84.4341L84.4488 14.728H78.1109L78.0962 16.728ZM83.4414 15.728L83.2543 41.1004H85.2543L85.4414 15.728H83.4414ZM84.2469 42.1003H100.489L100.504 40.1004H84.2616L84.2469 42.1003ZM115.741 33.581L114.889 33.064L114.743 33.3024L114.741 33.581H115.741ZM115.65 45.9987L115.642 46.9986H116.642L116.65 45.9987H115.65ZM109.333 45.9987H108.333L108.326 46.9986H109.326L109.333 45.9987ZM109.425 33.581H110.425L110.427 33.3024L110.285 33.064L109.425 33.581ZM98.7715 15.728L98.7789 14.728H97.0065L97.9117 16.2451L98.7715 15.728ZM105.41 15.728L106.284 15.2347L106 14.728H105.418L105.41 15.728ZM112.577 28.5323L111.704 29.0256L112.557 30.5504L113.441 29.03L112.577 28.5323ZM120.02 15.728L120.027 14.728H119.448L119.156 15.2303L120.02 15.728ZM126.658 15.728L127.51 16.2451L128.438 14.728H126.666L126.658 15.728ZM114.741 33.581L114.65 45.9987H116.65L116.741 33.581H114.741ZM115.657 44.9987H109.341L109.326 46.9986H115.642L115.657 44.9987ZM110.333 45.9987L110.425 33.581H108.425L108.333 45.9987H110.333ZM110.285 33.064L99.6313 15.211L97.9117 16.2451L108.565 34.0981L110.285 33.064ZM98.7641 16.728H105.403L105.418 14.728H98.7789L98.7641 16.728ZM104.537 16.2213L111.704 29.0256L113.451 28.0391L106.284 15.2347L104.537 16.2213ZM113.441 29.03L120.883 16.2257L119.156 15.2303L111.714 28.0347L113.441 29.03ZM120.012 16.728H126.651L126.666 14.728H120.027L120.012 16.728ZM125.806 15.211L114.889 33.064L116.593 34.0981L127.51 16.2451L125.806 15.211ZM135.716 45.9987L135.709 46.9986H136.709L136.716 45.9987H135.716ZM130.087 45.9987H129.087L129.08 46.9986H130.08L130.087 45.9987ZM130.311 15.728L130.318 14.728H129.318L129.311 15.728H130.311ZM138.797 15.728L139.752 15.4234L139.534 14.728H138.804L138.797 15.728ZM144.086 32.6572L145.056 32.4078L145.049 32.38L145.041 32.3526L144.086 32.6572ZM144.817 35.5146L143.849 35.774L143.85 35.7777L144.817 35.5146ZM145.548 38.3504L144.578 38.5999L145.464 42.141L146.506 38.6285L145.548 38.3504ZM146.011 36.7392L146.974 37.0001L146.976 36.9936L146.011 36.7392ZM146.453 35.1064L145.494 34.8283L145.491 34.8401L145.488 34.8519L146.453 35.1064ZM146.937 33.4951L145.985 33.1962L145.983 33.2032L145.981 33.2101L146.937 33.4951ZM152.633 15.728L152.64 14.728H151.906L151.681 15.4291L152.633 15.728ZM161.076 15.728H162.076L162.084 14.728H161.084L161.076 15.728ZM160.853 45.9987L160.846 46.9986H161.846L161.853 45.9987H160.853ZM155.224 45.9987H154.224L154.217 46.9986H155.217L155.224 45.9987ZM155.421 25.1594L154.421 25.1253L154.421 25.1364L155.421 25.1594ZM155.623 21.056L156.621 21.1045L154.657 20.8033L155.623 21.056ZM154.255 25.9543L153.296 25.6782L153.293 25.6877L154.255 25.9543ZM153.308 29.1124L154.257 29.4199L154.258 29.4178L153.308 29.1124ZM147.726 45.9987L147.719 46.9986H148.446L148.675 46.3062L147.726 45.9987ZM143.214 45.9987L142.26 46.3062L142.479 46.9986H143.207L143.214 45.9987ZM137.882 29.1124L136.918 29.3868L136.923 29.4034L136.928 29.4199L137.882 29.1124ZM135.642 21.056L136.606 20.7816L134.643 21.1076L135.642 21.056ZM135.805 25.2024L134.806 25.2413L134.806 25.2418L135.805 25.2024ZM134.852 27.6515L134.716 45.9987H136.716L136.852 27.6515H134.852ZM135.724 44.9987H130.095L130.08 46.9986H135.709L135.724 44.9987ZM131.087 45.9987L131.311 15.728H129.311L129.087 45.9987H131.087ZM130.303 16.728H138.79L138.804 14.728H130.318L130.303 16.728ZM137.842 16.0326L143.131 32.9618L145.041 32.3526L139.752 15.4234L137.842 16.0326ZM143.116 32.9067C143.353 33.8553 143.598 34.8111 143.849 35.774L145.785 35.2551C145.535 34.2988 145.292 33.3497 145.056 32.4078L143.116 32.9067ZM143.85 35.7777C144.1 36.7184 144.342 37.6592 144.578 38.5999L146.518 38.101C146.281 37.1511 146.036 36.2013 145.784 35.2515L143.85 35.7777ZM146.506 38.6285C146.67 38.0787 146.826 37.5359 146.974 37.0001L145.048 36.4782C144.902 37.0023 144.749 37.5336 144.589 38.0724L146.506 38.6285ZM146.976 36.9936C146.989 36.9469 147.019 36.8363 147.031 36.7895C147.044 36.7428 147.074 36.6322 147.087 36.5854C147.099 36.5387 147.129 36.4281 147.142 36.3814C147.155 36.3346 147.184 36.224 147.197 36.1773C147.266 35.9241 147.349 35.614 147.418 35.3609L145.488 34.8519C145.475 34.8986 145.445 35.0093 145.432 35.056C145.42 35.1027 145.39 35.2134 145.377 35.2601C145.365 35.3068 145.335 35.4175 145.322 35.4642C145.309 35.5109 145.279 35.6216 145.267 35.6683C145.198 35.9214 145.114 36.2315 145.046 36.4847L146.976 36.9936ZM147.411 35.3844C147.572 34.8424 147.733 34.3076 147.894 33.7801L145.981 33.2101C145.819 33.7424 145.656 34.2818 145.494 34.8283L147.411 35.3844ZM147.889 33.794L153.585 16.0269L151.681 15.4291L145.985 33.1962L147.889 33.794ZM152.625 16.728H161.069L161.084 14.728H152.64L152.625 16.728ZM160.076 15.728L159.853 45.9987H161.853L162.076 15.728H160.076ZM160.86 44.9987H155.231L155.217 46.9986H160.846L160.86 44.9987ZM156.224 45.9987L156.359 27.6515H154.359L154.224 45.9987H156.224ZM156.359 27.6515C156.362 27.2496 156.382 26.4303 156.42 25.1824L154.421 25.1364C154.383 26.3805 154.362 27.2227 154.359 27.6515H156.359ZM156.42 25.1935C156.472 23.9386 156.539 22.5757 156.621 21.1045L154.624 21.0075C154.542 22.4867 154.474 23.8594 154.422 25.1253L156.42 25.1935ZM154.657 20.8033C154.143 22.7176 153.689 24.3421 153.296 25.6782L155.214 26.2304C155.613 24.8738 156.072 23.2328 156.589 21.3087L154.657 20.8033ZM153.293 25.6877C152.912 27.0291 152.6 28.0668 152.358 28.807L154.258 29.4178C154.513 28.6398 154.833 27.5721 155.217 26.2209L153.293 25.6877ZM152.358 28.8049L146.777 45.6912L148.675 46.3062L154.257 29.4199L152.358 28.8049ZM147.733 44.9987H143.222L143.207 46.9986H147.719L147.733 44.9987ZM144.168 45.6912L138.836 28.8049L136.928 29.4199L142.26 46.3062L144.168 45.6912ZM138.845 28.838L136.606 20.7816L134.679 21.3304L136.918 29.3868L138.845 28.838ZM134.643 21.1076C134.717 22.7667 134.771 24.1442 134.806 25.2413L136.805 25.1634C136.77 24.0548 136.715 22.6681 136.641 21.0043L134.643 21.1076ZM134.806 25.2418C134.84 26.3274 134.855 27.1277 134.852 27.6515H136.852C136.856 27.0868 136.84 26.2543 136.805 25.1629L134.806 25.2418ZM191.461 41.1004H192.461L192.469 40.1004H191.469L191.461 41.1004ZM191.425 45.9987L191.418 46.9986H192.418L192.425 45.9987H191.425ZM166.74 45.9987H165.74L165.732 46.9986H166.732L166.74 45.9987ZM166.963 15.728L166.97 14.728H165.97L165.963 15.728H166.963ZM190.768 15.728H191.768L191.775 14.728H190.775L190.768 15.728ZM190.731 20.6263L190.724 21.6263H191.724L191.731 20.6263H190.731ZM173.265 20.6263L173.272 19.6263H172.272L172.265 20.6263H173.265ZM173.209 28.2316H172.209L172.201 29.2315H173.201L173.209 28.2316ZM189.365 28.2316H190.365L190.372 27.2316H189.372L189.365 28.2316ZM189.329 33.1299L189.321 34.1298H190.321L190.329 33.1299H189.329ZM173.172 33.1299L173.18 32.1299H172.18L172.172 33.1299H173.172ZM173.114 41.1004H172.114L172.106 42.1003H173.106L173.114 41.1004ZM190.461 41.1004L190.425 45.9987H192.425L192.461 41.1004H190.461ZM191.433 44.9987H166.747L166.732 46.9986H191.418L191.433 44.9987ZM167.74 45.9987L167.963 15.728H165.963L165.74 45.9987H167.74ZM166.956 16.728H190.76L190.775 14.728H166.97L166.956 16.728ZM189.768 15.728L189.731 20.6263H191.731L191.768 15.728H189.768ZM190.739 19.6263H173.272L173.257 21.6263H190.724L190.739 19.6263ZM172.265 20.6263L172.209 28.2316H174.209L174.265 20.6263H172.265ZM173.201 29.2315H189.357L189.372 27.2316H173.216L173.201 29.2315ZM188.365 28.2316L188.329 33.1299H190.329L190.365 28.2316H188.365ZM189.336 32.1299H173.18L173.165 34.1298H189.321L189.336 32.1299ZM172.172 33.1299L172.114 41.1004H174.114L174.172 33.1299H172.172ZM173.106 42.1003H191.454L191.469 40.1004H173.121L173.106 42.1003Z" fill="#E6E6E6" mask="url(#path-1-outside-1_20_5800)"/>
<path d="M38.8645 22.4524L38.4209 22.6833L38.8645 22.4524ZM35.505 18.3569L35.1185 18.0398L34.7952 18.4338L35.1954 18.7495L35.505 18.3569ZM40.6296 30.7237L40.1296 30.72L40.6296 30.7237ZM38.6565 38.995L38.2178 38.7551L38.2173 38.756L38.6565 38.995ZM33.2665 44.4733L33.0212 44.0376L33.02 44.0382L33.2665 44.4733ZM17.0238 44.5378L16.7788 44.9736L16.7809 44.9748L17.0238 44.5378ZM11.8217 39.1024L12.267 38.8749L11.8217 39.1024ZM10.0573 30.7237L9.55735 30.72L10.0573 30.7237ZM11.9234 22.4095L11.4825 22.1735L11.4814 22.1756L11.9234 22.4095ZM15.4203 18.2655L15.7234 18.6631L16.1334 18.3506L15.8085 17.9504L15.4203 18.2655ZM15.1275 11.4727L15.5725 11.7006L15.5725 11.7006L15.1275 11.4727ZM15.5194 10.6987L15.9661 10.9232L15.9661 10.9232L15.5194 10.6987ZM15.9134 10.0004L15.7678 10.4788V10.4788L15.9134 10.0004ZM15.9227 10.3179L16.422 10.3452V10.3452L15.9227 10.3179ZM18.23 15.5122L18.5121 15.0995L18.23 15.5122ZM19.1424 16.2697L18.7825 16.6169L19.0063 16.8488L19.3099 16.7408L19.1424 16.2697ZM31.8202 16.3089L31.6472 16.778L31.9575 16.8925L32.1843 16.6517L31.8202 16.3089ZM32.77 15.5122L32.4878 15.0995V15.0995L32.77 15.5122ZM35.0866 10.0004L35.2322 10.4788V10.4788L35.0866 10.0004ZM35.8725 11.4727L36.3175 11.2448V11.2448L35.8725 11.4727ZM31.8991 23.054L31.5131 23.3718L31.5143 23.3733L31.8991 23.054ZM34.1628 30.7237L33.6628 30.72L34.1628 30.7237ZM18.8153 23.0325L19.196 23.3566L19.1972 23.3551L18.8153 23.0325ZM16.4382 30.7237L16.9382 30.7274L16.4382 30.7237ZM17.4703 36.4384L17.9281 36.2374L17.4703 36.4384ZM20.4936 40.1551L20.2164 40.5712L20.2217 40.5746L20.4936 40.1551ZM31.784 38.6512L31.4008 38.33L31.3994 38.3318L31.784 38.6512ZM39.308 22.2216C38.4254 20.5263 37.2609 19.1051 35.8147 17.9644L35.1954 18.7495C36.5258 19.7989 37.6009 21.1081 38.4209 22.6833L39.308 22.2216ZM41.1296 30.7274C41.1537 27.4563 40.5539 24.6149 39.308 22.2216L38.4209 22.6833C39.5759 24.9018 40.1528 27.5746 40.1296 30.72L41.1296 30.7274ZM39.0952 39.2348C40.4332 36.7877 41.1058 33.9468 41.1296 30.7274L40.1296 30.72C40.1069 33.8024 39.4641 36.4757 38.2178 38.7551L39.0952 39.2348ZM33.5117 44.909C35.9097 43.5593 37.7734 41.6647 39.0957 39.2339L38.2173 38.756C36.9841 41.023 35.2544 42.7806 33.0212 44.0376L33.5117 44.909ZM25.1739 46.9283C28.3393 46.9283 31.1245 46.261 33.5129 44.9084L33.02 44.0382C30.8058 45.2923 28.1961 45.9283 25.1739 45.9283V46.9283ZM16.7809 44.9748C19.1379 46.2846 21.9421 46.9283 25.1739 46.9283V45.9283C22.075 45.9283 19.4457 45.3117 17.2667 44.1007L16.7809 44.9748ZM11.3765 39.3299C12.6207 41.7651 14.4238 43.65 16.7788 44.9736L17.2688 44.1019C15.0879 42.8761 13.4229 41.1374 12.267 38.8749L11.3765 39.3299ZM9.55735 30.72C9.53301 34.0192 10.1324 36.895 11.3765 39.3299L12.267 38.8749C11.1108 36.612 10.5339 33.9019 10.5573 30.7274L9.55735 30.72ZM11.4814 22.1756C10.2158 24.5676 9.58168 27.4218 9.55735 30.72L10.5573 30.7274C10.5808 27.5518 11.1907 24.8632 12.3653 22.6433L11.4814 22.1756ZM15.1172 17.8678C13.6179 19.0107 12.4063 20.448 11.4826 22.1735L12.3642 22.6454C13.2233 21.0407 14.3429 19.7154 15.7234 18.6631L15.1172 17.8678ZM14.6824 11.2448C13.7657 13.0351 13.4016 14.364 13.5224 15.5289C13.6442 16.7025 14.2499 17.617 15.0321 18.5806L15.8085 17.9504C15.0492 17.015 14.6071 16.2935 14.5171 15.4257C14.4262 14.5492 14.6863 13.4313 15.5725 11.7006L14.6824 11.2448ZM15.0726 10.4742C14.9689 10.6805 14.8409 10.9352 14.6824 11.2448L15.5725 11.7006C15.7329 11.3873 15.8624 11.1296 15.9661 10.9232L15.0726 10.4742ZM16.059 9.52212C15.8054 9.4449 15.6208 9.58644 15.5835 9.61631C15.526 9.66232 15.4876 9.71235 15.4695 9.73674C15.4292 9.79127 15.3913 9.85707 15.359 9.91571C15.291 10.0392 15.1966 10.2274 15.0726 10.4742L15.9661 10.9232C16.0947 10.6672 16.1786 10.5005 16.2351 10.3978C16.2651 10.3433 16.276 10.3281 16.2736 10.3313C16.2718 10.3337 16.2665 10.3408 16.2578 10.3505C16.2498 10.3594 16.2334 10.377 16.2087 10.3968C16.1859 10.415 16.1395 10.4487 16.0711 10.4727C15.9974 10.4985 15.889 10.5157 15.7678 10.4788L16.059 9.52212ZM16.422 10.3452C16.4269 10.2551 16.4324 10.1589 16.4319 10.0856C16.4316 10.0523 16.4304 9.99244 16.418 9.92956C16.4121 9.89935 16.398 9.83787 16.3615 9.77036C16.3251 9.7031 16.2357 9.5759 16.059 9.52212L15.7678 10.4788C15.5977 10.427 15.5138 10.3051 15.4821 10.2464C15.4502 10.1875 15.4398 10.1378 15.4368 10.1225C15.4303 10.0894 15.4318 10.072 15.4319 10.0926C15.4321 10.1274 15.4292 10.1859 15.4235 10.2907L16.422 10.3452ZM18.5121 15.0995C16.2566 13.5576 16.3735 11.2322 16.422 10.3452L15.4235 10.2907C15.374 11.1955 15.2079 14.052 17.9478 15.925L18.5121 15.0995ZM19.5023 15.9226C19.2316 15.642 18.903 15.3667 18.5121 15.0995L17.9478 15.925C18.2905 16.1593 18.5654 16.3917 18.7825 16.6169L19.5023 15.9226ZM25.4467 14.7768C23.0585 14.7768 20.899 15.1144 18.9749 15.7986L19.3099 16.7408C21.1086 16.1012 23.152 15.7768 25.4467 15.7768V14.7768ZM31.9933 15.8398C30.0631 15.1277 27.8784 14.7768 25.4467 14.7768V15.7768C27.7832 15.7768 29.8474 16.114 31.6472 16.778L31.9933 15.8398ZM32.1843 16.6517C32.4064 16.4158 32.6917 16.1714 33.0522 15.925L32.4878 15.0995C32.0768 15.3804 31.7346 15.6705 31.4562 15.9662L32.1843 16.6517ZM33.0522 15.925C34.7127 14.7899 35.3104 13.2852 35.5071 12.0737C35.6048 11.4722 35.6041 10.9431 35.59 10.5692C35.5864 10.4759 35.582 10.392 35.5781 10.3204C35.5741 10.2467 35.571 10.1911 35.5693 10.1459C35.5673 10.0955 35.5685 10.0837 35.5679 10.0903C35.5679 10.0905 35.5654 10.1291 35.5471 10.1807C35.5371 10.209 35.4665 10.4074 35.2322 10.4788L34.941 9.52212C34.6974 9.59624 34.6196 9.80397 34.6042 9.84783C34.5804 9.91509 34.5741 9.97543 34.5717 10.0034C34.5662 10.0656 34.5681 10.1332 34.57 10.1838C34.5721 10.2396 34.5759 10.3066 34.5796 10.3747C34.5834 10.4449 34.5875 10.5222 34.5907 10.6071C34.6035 10.9461 34.603 11.4024 34.52 11.9134C34.3554 12.9269 33.8682 14.1558 32.4878 15.0995L33.0522 15.925ZM35.2322 10.4788C35.0581 10.5318 34.9173 10.4741 34.8554 10.4397C34.7946 10.406 34.7583 10.3679 34.7476 10.3565C34.7243 10.3315 34.7172 10.3166 34.7299 10.3371C34.7511 10.3711 34.7877 10.4382 34.8491 10.5577C34.9834 10.8192 35.1356 11.1307 35.4275 11.7006L36.3175 11.2448C36.0614 10.7445 35.847 10.3118 35.7386 10.1008C35.6786 9.98394 35.6248 9.88257 35.5793 9.80927C35.5587 9.77614 35.5242 9.72286 35.4785 9.67391C35.4566 9.65052 35.4104 9.60406 35.3408 9.56542C35.2701 9.52616 35.1217 9.46711 34.941 9.52212L35.2322 10.4788ZM35.4275 11.7006C36.3278 13.459 36.582 14.5849 36.4782 15.4677C36.3751 16.345 35.9096 17.0756 35.1185 18.0398L35.8916 18.6741C36.6982 17.6911 37.3323 16.7682 37.4714 15.5844C37.6099 14.4063 37.2489 13.0636 36.3175 11.2448L35.4275 11.7006ZM31.5143 23.3733C32.949 25.1021 33.6864 27.5299 33.6628 30.72L34.6628 30.7274C34.6874 27.3864 33.9157 24.7011 32.2838 22.7347L31.5143 23.3733ZM25.4099 20.7611C28.0799 20.7611 30.0905 21.6442 31.5131 23.3718L32.2851 22.7362C30.6414 20.7399 28.3259 19.7611 25.4099 19.7611V20.7611ZM19.1972 23.3551C20.6459 21.6399 22.693 20.7611 25.4099 20.7611V19.7611C22.4549 19.7611 20.1056 20.7299 18.4333 22.7099L19.1972 23.3551ZM16.9382 30.7274C16.9619 27.5075 17.7357 25.0722 19.196 23.3566L18.4345 22.7084C16.774 24.6593 15.9631 27.3515 15.9382 30.72L16.9382 30.7274ZM17.9281 36.2374C17.2584 34.7122 16.9223 32.8803 16.9382 30.7274L15.9382 30.72C15.9216 32.9785 16.2735 34.9564 17.0124 36.6394L17.9281 36.2374ZM20.7709 39.739C19.5478 38.9241 18.5984 37.7641 17.9281 36.2374L17.0124 36.6394C17.7507 38.3209 18.8169 39.6387 20.2164 40.5712L20.7709 39.739ZM25.2107 40.9441C23.4732 40.9441 21.9986 40.5348 20.7656 39.7355L20.2217 40.5746C21.64 41.4941 23.3101 41.9441 25.2107 41.9441V40.9441ZM31.3994 38.3318C29.9648 40.0591 27.9263 40.9441 25.2107 40.9441V41.9441C28.1669 41.9441 30.5106 40.9671 32.1687 38.9707L31.3994 38.3318ZM33.6628 30.72C33.6381 34.0737 32.8614 36.5874 31.4008 38.33L32.1672 38.9724C33.8278 36.9911 34.637 34.2198 34.6628 30.7274L33.6628 30.72Z" fill="#FC2424"/>
<g filter="url(#filter0_f_20_5800)">
<mask id="path-4-outside-2_20_5800" maskUnits="userSpaceOnUse" x="44.1326" y="13.9995" width="149.243" height="32.9991" fill="black">
<rect fill="white" x="44.1326" y="13.9995" width="149.243" height="32.9991"/>
<path d="M51.844 28.1456L51.7123 45.9987H46.0834L46.3067 15.728H53.5469L66.7583 39.2313C66.5165 37.0542 66.4021 35.0849 66.4151 33.3232L66.5449 15.728H72.1739L71.9505 45.9987H64.5169L51.4975 22.6888C51.6181 23.8202 51.7036 24.8443 51.7541 25.7609C51.8191 26.6633 51.849 27.4582 51.844 28.1456ZM100.496 41.1004L100.46 45.9987H77.8802L78.1035 15.728H84.4414L84.2543 41.1004H100.496ZM115.741 33.581L115.65 45.9987H109.333L109.425 33.581L98.7715 15.728H105.41L112.577 28.5323L120.02 15.728H126.658L115.741 33.581ZM135.852 27.6515L135.716 45.9987H130.087L130.311 15.728H138.797L144.086 32.6572C144.323 33.6025 144.566 34.555 144.817 35.5146C145.068 36.4599 145.311 37.4051 145.548 38.3504C145.71 37.8062 145.864 37.2691 146.011 36.7392C146.158 36.1949 146.306 35.6506 146.453 35.1064C146.614 34.5621 146.776 34.025 146.937 33.4951L152.633 15.728H161.076L160.853 45.9987H155.224L155.359 27.6515C155.362 27.2362 155.383 26.4054 155.421 25.1594C155.473 23.899 155.54 22.5312 155.623 21.056C155.107 22.9752 154.651 24.608 154.255 25.9543C153.872 27.3006 153.557 28.3533 153.308 29.1124L147.726 45.9987H143.214L137.882 29.1124L135.642 21.056C135.716 22.7174 135.77 24.0995 135.805 25.2024C135.84 26.2909 135.856 27.1073 135.852 27.6515ZM191.461 41.1004L191.425 45.9987H166.74L166.963 15.728H190.768L190.731 20.6263H173.265L173.209 28.2316H189.365L189.329 33.1299H173.172L173.114 41.1004H191.461Z"/>
</mask>
<path d="M51.7123 45.9987L51.7049 46.9986H52.7049L52.7123 45.9987H51.7123ZM46.0834 45.9987H45.0834L45.076 46.9986H46.076L46.0834 45.9987ZM46.3067 15.728L46.314 14.728H45.314L45.3067 15.728H46.3067ZM53.5469 15.728L54.4195 15.2332L54.1356 14.728H53.5543L53.5469 15.728ZM66.7583 39.2313L65.8857 39.7261L67.7522 39.1137L66.7583 39.2313ZM66.5449 15.728L66.5523 14.728H65.5523L65.5449 15.728H66.5449ZM72.1739 15.728H73.1739L73.1812 14.728H72.1812L72.1739 15.728ZM71.9505 45.9987L71.9432 46.9986H72.9432L72.9505 45.9987H71.9505ZM64.5169 45.9987L63.643 46.4912L63.9265 46.9986H64.5096L64.5169 45.9987ZM51.4975 22.6888L52.3714 22.1963L50.5031 22.8019L51.4975 22.6888ZM51.7541 25.7609L50.7556 25.8233L50.7561 25.8317L50.7567 25.84L51.7541 25.7609ZM50.844 28.1456L50.7123 45.9987H52.7123L52.844 28.1456H50.844ZM51.7196 44.9987H46.0907L46.076 46.9986H51.7049L51.7196 44.9987ZM47.0834 45.9987L47.3067 15.728H45.3067L45.0834 45.9987H47.0834ZM46.2993 16.728H53.5395L53.5543 14.728H46.314L46.2993 16.728ZM52.6743 16.2228L65.8857 39.7261L67.6309 38.7364L54.4195 15.2332L52.6743 16.2228ZM67.7522 39.1137C67.5138 36.9667 67.4025 35.0375 67.4151 33.3232H65.4151C65.4018 35.1323 65.5193 37.1418 65.7644 39.3489L67.7522 39.1137ZM67.4151 33.3232L67.5449 15.728H65.5449L65.4151 33.3232H67.4151ZM66.5376 16.728H72.1665L72.1812 14.728H66.5523L66.5376 16.728ZM71.1739 15.728L70.9505 45.9987H72.9505L73.1739 15.728H71.1739ZM71.9579 44.9987H64.5243L64.5096 46.9986H71.9432L71.9579 44.9987ZM65.3909 45.5062L52.3714 22.1963L50.6236 23.1812L63.643 46.4912L65.3909 45.5062ZM50.5031 22.8019C50.6223 23.9203 50.7062 24.9271 50.7556 25.8233L52.7526 25.6986C52.701 24.7615 52.6139 23.7201 52.4919 22.5756L50.5031 22.8019ZM50.7567 25.84C50.8203 26.7237 50.8488 27.4913 50.844 28.1456H52.844C52.8493 27.425 52.8179 26.6028 52.7516 25.6818L50.7567 25.84ZM100.496 41.1004H101.496L101.504 40.1004H100.504L100.496 41.1004ZM100.46 45.9987L100.453 46.9986H101.453L101.46 45.9987H100.46ZM77.8802 45.9987H76.8802L76.8729 46.9986H77.8729L77.8802 45.9987ZM78.1035 15.728L78.1109 14.728H77.1109L77.1035 15.728H78.1035ZM84.4414 15.728H85.4414L85.4488 14.728H84.4488L84.4414 15.728ZM84.2543 41.1004H83.2543L83.2469 42.1003H84.2469L84.2543 41.1004ZM99.4964 41.1004L99.4603 45.9987H101.46L101.496 41.1004H99.4964ZM100.468 44.9987H77.8876L77.8729 46.9986H100.453L100.468 44.9987ZM78.8802 45.9987L79.1035 15.728H77.1035L76.8802 45.9987H78.8802ZM78.0962 16.728H84.4341L84.4488 14.728H78.1109L78.0962 16.728ZM83.4414 15.728L83.2543 41.1004H85.2543L85.4414 15.728H83.4414ZM84.2469 42.1003H100.489L100.504 40.1004H84.2616L84.2469 42.1003ZM115.741 33.581L114.889 33.064L114.743 33.3024L114.741 33.581H115.741ZM115.65 45.9987L115.642 46.9986H116.642L116.65 45.9987H115.65ZM109.333 45.9987H108.333L108.326 46.9986H109.326L109.333 45.9987ZM109.425 33.581H110.425L110.427 33.3024L110.285 33.064L109.425 33.581ZM98.7715 15.728L98.7789 14.728H97.0065L97.9117 16.2451L98.7715 15.728ZM105.41 15.728L106.284 15.2347L106 14.728H105.418L105.41 15.728ZM112.577 28.5323L111.704 29.0256L112.557 30.5504L113.441 29.03L112.577 28.5323ZM120.02 15.728L120.027 14.728H119.448L119.156 15.2303L120.02 15.728ZM126.658 15.728L127.51 16.2451L128.438 14.728H126.666L126.658 15.728ZM114.741 33.581L114.65 45.9987H116.65L116.741 33.581H114.741ZM115.657 44.9987H109.341L109.326 46.9986H115.642L115.657 44.9987ZM110.333 45.9987L110.425 33.581H108.425L108.333 45.9987H110.333ZM110.285 33.064L99.6313 15.211L97.9117 16.2451L108.565 34.0981L110.285 33.064ZM98.7641 16.728H105.403L105.418 14.728H98.7789L98.7641 16.728ZM104.537 16.2213L111.704 29.0256L113.451 28.0391L106.284 15.2347L104.537 16.2213ZM113.441 29.03L120.883 16.2257L119.156 15.2303L111.714 28.0347L113.441 29.03ZM120.012 16.728H126.651L126.666 14.728H120.027L120.012 16.728ZM125.806 15.211L114.889 33.064L116.593 34.0981L127.51 16.2451L125.806 15.211ZM135.716 45.9987L135.709 46.9986H136.709L136.716 45.9987H135.716ZM130.087 45.9987H129.087L129.08 46.9986H130.08L130.087 45.9987ZM130.311 15.728L130.318 14.728H129.318L129.311 15.728H130.311ZM138.797 15.728L139.752 15.4234L139.534 14.728H138.804L138.797 15.728ZM144.086 32.6572L145.056 32.4078L145.049 32.38L145.041 32.3526L144.086 32.6572ZM144.817 35.5146L143.849 35.774L143.85 35.7777L144.817 35.5146ZM145.548 38.3504L144.578 38.5999L145.464 42.141L146.506 38.6285L145.548 38.3504ZM146.011 36.7392L146.974 37.0001L146.976 36.9936L146.011 36.7392ZM146.453 35.1064L145.494 34.8283L145.491 34.8401L145.488 34.8519L146.453 35.1064ZM146.937 33.4951L145.985 33.1962L145.983 33.2032L145.981 33.2101L146.937 33.4951ZM152.633 15.728L152.64 14.728H151.906L151.681 15.4291L152.633 15.728ZM161.076 15.728H162.076L162.084 14.728H161.084L161.076 15.728ZM160.853 45.9987L160.846 46.9986H161.846L161.853 45.9987H160.853ZM155.224 45.9987H154.224L154.217 46.9986H155.217L155.224 45.9987ZM155.421 25.1594L154.421 25.1253L154.421 25.1364L155.421 25.1594ZM155.623 21.056L156.621 21.1045L154.657 20.8033L155.623 21.056ZM154.255 25.9543L153.296 25.6782L153.293 25.6877L154.255 25.9543ZM153.308 29.1124L154.257 29.4199L154.258 29.4178L153.308 29.1124ZM147.726 45.9987L147.719 46.9986H148.446L148.675 46.3062L147.726 45.9987ZM143.214 45.9987L142.26 46.3062L142.479 46.9986H143.207L143.214 45.9987ZM137.882 29.1124L136.918 29.3868L136.923 29.4034L136.928 29.4199L137.882 29.1124ZM135.642 21.056L136.606 20.7816L134.643 21.1076L135.642 21.056ZM135.805 25.2024L134.806 25.2413L134.806 25.2418L135.805 25.2024ZM134.852 27.6515L134.716 45.9987H136.716L136.852 27.6515H134.852ZM135.724 44.9987H130.095L130.08 46.9986H135.709L135.724 44.9987ZM131.087 45.9987L131.311 15.728H129.311L129.087 45.9987H131.087ZM130.303 16.728H138.79L138.804 14.728H130.318L130.303 16.728ZM137.842 16.0326L143.131 32.9618L145.041 32.3526L139.752 15.4234L137.842 16.0326ZM143.116 32.9067C143.353 33.8553 143.598 34.8111 143.849 35.774L145.785 35.2551C145.535 34.2988 145.292 33.3497 145.056 32.4078L143.116 32.9067ZM143.85 35.7777C144.1 36.7184 144.342 37.6592 144.578 38.5999L146.518 38.101C146.281 37.1511 146.036 36.2013 145.784 35.2515L143.85 35.7777ZM146.506 38.6285C146.67 38.0787 146.826 37.5359 146.974 37.0001L145.048 36.4782C144.902 37.0023 144.749 37.5336 144.589 38.0724L146.506 38.6285ZM146.976 36.9936C146.989 36.9469 147.019 36.8363 147.031 36.7895C147.044 36.7428 147.074 36.6322 147.087 36.5854C147.099 36.5387 147.129 36.4281 147.142 36.3814C147.155 36.3346 147.184 36.224 147.197 36.1773C147.266 35.9241 147.349 35.614 147.418 35.3609L145.488 34.8519C145.475 34.8986 145.445 35.0093 145.432 35.056C145.42 35.1027 145.39 35.2134 145.377 35.2601C145.365 35.3068 145.335 35.4175 145.322 35.4642C145.309 35.5109 145.279 35.6216 145.267 35.6683C145.198 35.9214 145.114 36.2315 145.046 36.4847L146.976 36.9936ZM147.411 35.3844C147.572 34.8424 147.733 34.3076 147.894 33.7801L145.981 33.2101C145.819 33.7424 145.656 34.2818 145.494 34.8283L147.411 35.3844ZM147.889 33.794L153.585 16.0269L151.681 15.4291L145.985 33.1962L147.889 33.794ZM152.625 16.728H161.069L161.084 14.728H152.64L152.625 16.728ZM160.076 15.728L159.853 45.9987H161.853L162.076 15.728H160.076ZM160.86 44.9987H155.231L155.217 46.9986H160.846L160.86 44.9987ZM156.224 45.9987L156.359 27.6515H154.359L154.224 45.9987H156.224ZM156.359 27.6515C156.362 27.2496 156.382 26.4303 156.42 25.1824L154.421 25.1364C154.383 26.3805 154.362 27.2227 154.359 27.6515H156.359ZM156.42 25.1935C156.472 23.9386 156.539 22.5757 156.621 21.1045L154.624 21.0075C154.542 22.4867 154.474 23.8594 154.422 25.1253L156.42 25.1935ZM154.657 20.8033C154.143 22.7176 153.689 24.3421 153.296 25.6782L155.214 26.2304C155.613 24.8738 156.072 23.2328 156.589 21.3087L154.657 20.8033ZM153.293 25.6877C152.912 27.0291 152.6 28.0668 152.358 28.807L154.258 29.4178C154.513 28.6398 154.833 27.5721 155.217 26.2209L153.293 25.6877ZM152.358 28.8049L146.777 45.6912L148.675 46.3062L154.257 29.4199L152.358 28.8049ZM147.733 44.9987H143.222L143.207 46.9986H147.719L147.733 44.9987ZM144.168 45.6912L138.836 28.8049L136.928 29.4199L142.26 46.3062L144.168 45.6912ZM138.845 28.838L136.606 20.7816L134.679 21.3304L136.918 29.3868L138.845 28.838ZM134.643 21.1076C134.717 22.7667 134.771 24.1442 134.806 25.2413L136.805 25.1634C136.77 24.0548 136.715 22.6681 136.641 21.0043L134.643 21.1076ZM134.806 25.2418C134.84 26.3274 134.855 27.1277 134.852 27.6515H136.852C136.856 27.0868 136.84 26.2543 136.805 25.1629L134.806 25.2418ZM191.461 41.1004H192.461L192.469 40.1004H191.469L191.461 41.1004ZM191.425 45.9987L191.418 46.9986H192.418L192.425 45.9987H191.425ZM166.74 45.9987H165.74L165.732 46.9986H166.732L166.74 45.9987ZM166.963 15.728L166.97 14.728H165.97L165.963 15.728H166.963ZM190.768 15.728H191.768L191.775 14.728H190.775L190.768 15.728ZM190.731 20.6263L190.724 21.6263H191.724L191.731 20.6263H190.731ZM173.265 20.6263L173.272 19.6263H172.272L172.265 20.6263H173.265ZM173.209 28.2316H172.209L172.201 29.2315H173.201L173.209 28.2316ZM189.365 28.2316H190.365L190.372 27.2316H189.372L189.365 28.2316ZM189.329 33.1299L189.321 34.1298H190.321L190.329 33.1299H189.329ZM173.172 33.1299L173.18 32.1299H172.18L172.172 33.1299H173.172ZM173.114 41.1004H172.114L172.106 42.1003H173.106L173.114 41.1004ZM190.461 41.1004L190.425 45.9987H192.425L192.461 41.1004H190.461ZM191.433 44.9987H166.747L166.732 46.9986H191.418L191.433 44.9987ZM167.74 45.9987L167.963 15.728H165.963L165.74 45.9987H167.74ZM166.956 16.728H190.76L190.775 14.728H166.97L166.956 16.728ZM189.768 15.728L189.731 20.6263H191.731L191.768 15.728H189.768ZM190.739 19.6263H173.272L173.257 21.6263H190.724L190.739 19.6263ZM172.265 20.6263L172.209 28.2316H174.209L174.265 20.6263H172.265ZM173.201 29.2315H189.357L189.372 27.2316H173.216L173.201 29.2315ZM188.365 28.2316L188.329 33.1299H190.329L190.365 28.2316H188.365ZM189.336 32.1299H173.18L173.165 34.1298H189.321L189.336 32.1299ZM172.172 33.1299L172.114 41.1004H174.114L174.172 33.1299H172.172ZM173.106 42.1003H191.454L191.469 40.1004H173.121L173.106 42.1003Z" fill="#D2D2D2" mask="url(#path-4-outside-2_20_5800)"/>
</g>
<g filter="url(#filter1_f_20_5800)">
<path d="M38.8645 22.4524L37.9774 22.9142L38.8645 22.4524ZM35.505 18.3569L34.732 17.7226L34.0853 18.5107L34.8857 19.1421L35.505 18.3569ZM40.6296 30.7237L39.6296 30.7163L40.6296 30.7237ZM38.6565 38.995L37.7791 38.5152L37.778 38.5171L38.6565 38.995ZM33.2665 44.4733L32.776 43.6019L32.7736 43.6032L33.2665 44.4733ZM17.0238 44.5378L16.5338 45.4095L16.538 45.4119L17.0238 44.5378ZM11.8217 39.1024L12.7122 38.6474L11.8217 39.1024ZM10.0573 30.7237L9.05737 30.7163L10.0573 30.7237ZM11.9234 22.4095L11.0417 21.9375L11.0395 21.9418L11.9234 22.4095ZM15.4203 18.2655L16.0265 19.0608L16.8465 18.4358L16.1967 17.6353L15.4203 18.2655ZM15.1275 11.4727L16.0176 11.9285V11.9285L15.1275 11.4727ZM15.5194 10.6987L16.4129 11.1476L16.4129 11.1476L15.5194 10.6987ZM15.9134 10.0004L15.6222 10.9571V10.9571L15.9134 10.0004ZM15.9227 10.3179L16.9212 10.3725V10.3725L15.9227 10.3179ZM18.23 15.5122L18.7943 14.6867V14.6867L18.23 15.5122ZM19.1424 16.2697L18.4227 16.964L18.8702 17.4279L19.4775 17.2119L19.1424 16.2697ZM31.8202 16.3089L31.4741 17.2471L32.0948 17.4761L32.5483 16.9944L31.8202 16.3089ZM32.77 15.5122L32.2057 14.6867V14.6867L32.77 15.5122ZM35.0866 10.0004L35.3778 10.9571V10.9571L35.0866 10.0004ZM35.8725 11.4727L36.7626 11.0169V11.0169L35.8725 11.4727ZM31.8991 23.054L31.1271 23.6896L31.1295 23.6926L31.8991 23.054ZM34.1628 30.7237L33.1628 30.7163V30.7163L34.1628 30.7237ZM18.8153 23.0325L19.5768 23.6807L19.5792 23.6777L18.8153 23.0325ZM16.4382 30.7237L17.4382 30.7311L16.4382 30.7237ZM17.4703 36.4384L18.3859 36.0364L17.4703 36.4384ZM20.4936 40.1551L19.9391 40.9873L19.9497 40.9942L20.4936 40.1551ZM31.784 38.6512L31.0176 38.0088L31.0147 38.0123L31.784 38.6512ZM39.7515 21.9907C38.8377 20.2354 37.6285 18.7582 36.1243 17.5718L34.8857 19.1421C36.1582 20.1458 37.1886 21.399 37.9774 22.9142L39.7515 21.9907ZM41.6296 30.7311C41.6542 27.3972 41.0429 24.4715 39.7515 21.9907L37.9774 22.9142C39.0868 25.0452 39.6524 27.6337 39.6296 30.7163L41.6296 30.7311ZM39.5339 39.4747C40.9178 36.9437 41.6053 34.019 41.6296 30.7311L39.6296 30.7163C39.6074 33.7302 38.9795 36.3197 37.7791 38.5152L39.5339 39.4747ZM33.7569 45.3448C36.2374 43.9486 38.168 41.9856 39.5349 39.4728L37.778 38.5171C36.5895 40.7021 34.9268 42.3913 32.776 43.6019L33.7569 45.3448ZM25.1739 47.4283C28.4108 47.4283 31.2839 46.7454 33.7593 45.3435L32.7736 43.6032C30.6464 44.8079 28.1245 45.4283 25.1739 45.4283V47.4283ZM16.538 45.4119C18.984 46.7711 21.8757 47.4283 25.1739 47.4283V45.4283C22.1414 45.4283 19.5996 44.8252 17.5095 43.6637L16.538 45.4119ZM10.9312 39.5574C12.2196 42.079 14.0917 44.0369 16.5338 45.4095L17.5138 43.666C15.42 42.4892 13.8241 40.8236 12.7122 38.6474L10.9312 39.5574ZM9.05737 30.7163C9.03257 34.0779 9.64319 37.0364 10.9312 39.5574L12.7122 38.6474C11.6 36.4705 11.0344 33.8433 11.0573 30.7311L9.05737 30.7163ZM11.0395 21.9418C9.72831 24.4197 9.08215 27.3569 9.05737 30.7163L11.0573 30.7311C11.0803 27.6168 11.6781 25.0111 12.8073 22.8772L11.0395 21.9418ZM14.8141 17.4702C13.2554 18.6583 11.9978 20.1517 11.0417 21.9375L12.805 22.8814C13.6318 21.337 14.7055 20.0678 16.0265 19.0608L14.8141 17.4702ZM14.2374 11.0169C13.3054 12.837 12.8893 14.2714 13.0251 15.5805C13.1627 16.907 13.8502 17.918 14.6439 18.8957L16.1967 17.6353C15.4489 16.714 15.0886 16.089 15.0144 15.3741C14.9384 14.6418 15.1466 13.6294 16.0176 11.9285L14.2374 11.0169ZM14.6258 10.2497C14.5222 10.4559 14.3949 10.7092 14.2374 11.0169L16.0176 11.9285C16.1789 11.6133 16.3092 11.3541 16.4129 11.1476L14.6258 10.2497ZM16.2046 9.04379C15.702 8.89079 15.3385 9.17188 15.2709 9.22607C15.1629 9.31255 15.0941 9.4035 15.0675 9.43945C15.0058 9.52288 14.9543 9.61397 14.9209 9.67468C14.8473 9.80855 14.7475 10.0075 14.6258 10.2497L16.4129 11.1476C16.5438 10.8871 16.6224 10.7312 16.6732 10.6388C16.702 10.5864 16.6993 10.5965 16.6756 10.6286C16.668 10.6389 16.6154 10.7116 16.5213 10.787C16.4723 10.8262 16.3763 10.8955 16.2365 10.9445C16.0864 10.9972 15.8669 11.0316 15.6222 10.9571L16.2046 9.04379ZM16.9212 10.3725C16.9258 10.2897 16.9325 10.1746 16.9319 10.0821C16.9316 10.0424 16.9304 9.94394 16.9086 9.8331C16.8982 9.78014 16.872 9.66307 16.8012 9.53234C16.7307 9.4021 16.5547 9.15035 16.2046 9.04379L15.6222 10.9571C15.2787 10.8525 15.1082 10.6061 15.0424 10.4844C14.9762 10.3623 14.9537 10.257 14.9462 10.2189C14.9368 10.1713 14.934 10.1356 14.933 10.1218C14.9325 10.1132 14.9322 10.1068 14.9321 10.1029C14.9319 10.099 14.9319 10.0966 14.9319 10.0962C14.9319 10.0956 14.9319 10.099 14.9317 10.108C14.9315 10.1167 14.9311 10.1282 14.9304 10.1436C14.929 10.1753 14.927 10.2131 14.9242 10.2634L16.9212 10.3725ZM18.7943 14.6867C16.7809 13.3104 16.8733 11.2506 16.9212 10.3725L14.9242 10.2634C14.8743 11.1771 14.6836 14.2993 17.6656 16.3378L18.7943 14.6867ZM19.8621 15.5755C19.5647 15.2672 19.2092 14.9703 18.7943 14.6867L17.6656 16.3378C17.9843 16.5556 18.2322 16.7666 18.4227 16.964L19.8621 15.5755ZM25.4467 14.2768C23.0117 14.2768 20.7942 14.621 18.8073 15.3275L19.4775 17.2119C21.2135 16.5946 23.1988 16.2768 25.4467 16.2768V14.2768ZM32.1664 15.3708C30.171 14.6346 27.926 14.2768 25.4467 14.2768V16.2768C27.7356 16.2768 29.7396 16.6072 31.4741 17.2471L32.1664 15.3708ZM32.5483 16.9944C32.7423 16.7884 32.9992 16.5669 33.3344 16.3378L32.2057 14.6867C31.7694 14.985 31.3986 15.2979 31.0921 15.6234L32.5483 16.9944ZM33.3344 16.3378C35.1349 15.1069 35.7878 13.4644 36.0006 12.1539C36.1057 11.5071 36.1044 10.9416 36.0896 10.5503C36.0859 10.4528 36.0813 10.3656 36.0774 10.2933C36.0732 10.2167 36.0704 10.1669 36.0689 10.1269C36.067 10.0766 36.0696 10.0928 36.066 10.1338C36.0647 10.1481 36.0578 10.236 36.0186 10.3472C35.9959 10.4116 35.8511 10.813 35.3778 10.9571L34.7954 9.04379C34.3129 9.19064 34.1609 9.60143 34.1327 9.68137C34.0879 9.8081 34.0772 9.91789 34.0736 9.95995C34.0651 10.0565 34.0684 10.1521 34.0703 10.2028C34.0726 10.2638 34.0768 10.3365 34.0803 10.4018C34.0841 10.4714 34.088 10.5454 34.091 10.6261C34.1032 10.9476 34.1021 11.3675 34.0265 11.8333C33.878 12.7478 33.446 13.8388 32.2057 14.6867L33.3344 16.3378ZM35.3778 10.9571C35.0263 11.0641 34.741 10.9481 34.6127 10.8769C34.4867 10.8069 34.4091 10.7266 34.3822 10.6978C34.3482 10.6613 34.3267 10.6319 34.3187 10.6208C34.3138 10.6139 34.3102 10.6087 34.3083 10.6057C34.3073 10.6041 34.3065 10.603 34.306 10.6022C34.3055 10.6015 34.3053 10.6011 34.3053 10.6011C34.3053 10.601 34.3055 10.6013 34.3058 10.602C34.3062 10.6026 34.3068 10.6035 34.3075 10.6047C34.309 10.6072 34.311 10.6107 34.3137 10.6153C34.319 10.6247 34.326 10.6373 34.3349 10.6537C34.3529 10.6869 34.3756 10.7302 34.4044 10.7861C34.4624 10.8992 34.5357 11.0455 34.6325 11.2381C34.7282 11.4284 34.8438 11.6577 34.9824 11.9285L36.7626 11.0169C36.5243 10.5514 36.2788 10.0581 36.1834 9.87231C36.1241 9.75682 36.0617 9.63827 36.0039 9.54534C35.9794 9.5059 35.9241 9.41855 35.8439 9.33263C35.8058 9.29184 35.7183 9.20312 35.5835 9.12827C35.4464 9.05218 35.1534 8.93479 34.7954 9.04379L35.3778 10.9571ZM34.9824 11.9285C35.8673 13.6567 36.0681 14.6742 35.9817 15.4094C35.8966 16.1334 35.5154 16.7679 34.732 17.7226L36.2781 18.9913C37.0925 17.9988 37.8109 16.9798 37.968 15.6428C38.1238 14.317 37.7094 12.8659 36.7626 11.0169L34.9824 11.9285ZM31.1295 23.6926C32.4657 25.3026 33.1858 27.6016 33.1628 30.7163L35.1628 30.7311C35.188 27.3147 34.399 24.5005 32.6686 22.4154L31.1295 23.6926ZM25.4099 21.2611C27.9568 21.2611 29.8151 22.0963 31.1271 23.6896L32.671 22.4183C30.9168 20.2878 28.4489 19.2611 25.4099 19.2611V21.2611ZM19.5792 23.6777C20.9161 22.0949 22.8121 21.2611 25.4099 21.2611V19.2611C22.3359 19.2611 19.8354 20.2749 18.0513 22.3872L19.5792 23.6777ZM17.4382 30.7311C17.4614 27.5855 18.2166 25.2787 19.5768 23.6807L18.0537 22.3843C16.2931 24.4529 15.4636 27.2735 15.4382 30.7163L17.4382 30.7311ZM18.3859 36.0364C17.7509 34.5901 17.4227 32.8312 17.4382 30.7311L15.4382 30.7163C15.4212 33.0276 15.781 35.0784 16.5546 36.8404L18.3859 36.0364ZM21.0481 39.3229C19.9133 38.5668 19.0223 37.4858 18.3859 36.0364L16.5546 36.8404C17.3269 38.5992 18.4514 39.996 19.9391 40.9873L21.0481 39.3229ZM25.2107 40.4441C23.5548 40.4441 22.1778 40.0551 21.0376 39.316L19.9497 40.9942C21.4608 41.9737 23.2286 42.4441 25.2107 42.4441V40.4441ZM31.0147 38.0123C29.6919 39.6051 27.806 40.4441 25.2107 40.4441V42.4441C28.2872 42.4441 30.7835 41.4212 32.5533 39.2901L31.0147 38.0123ZM33.1628 30.7163C33.1386 34.0007 32.3782 36.3856 31.0176 38.0088L32.5504 39.2936C34.311 37.193 35.1365 34.2929 35.1628 30.7311L33.1628 30.7163Z" fill="#FC2424"/>
</g>
</g>
<defs>
<filter id="filter0_f_20_5800" x="40.0834" y="9.72803" width="157.565" height="42.2708" filterUnits="userSpaceOnUse" color-interpolation-filters="sRGB">
<feFlood flood-opacity="0" result="BackgroundImageFix"/>
<feBlend mode="normal" in="SourceGraphic" in2="BackgroundImageFix" result="shape"/>
<feGaussianBlur stdDeviation="3" result="effect1_foregroundBlur_20_5800"/>
</filter>
<filter id="filter1_f_20_5800" x="3.05664" y="2.99878" width="44.5736" height="50.4294" filterUnits="userSpaceOnUse" color-interpolation-filters="sRGB">
<feFlood flood-opacity="0" result="BackgroundImageFix"/>
<feBlend mode="normal" in="SourceGraphic" in2="BackgroundImageFix" result="shape"/>
<feGaussianBlur stdDeviation="3" result="effect1_foregroundBlur_20_5800"/>
</filter>
<clipPath id="clip0_20_5800">
<rect width="200" height="62" fill="white"/>
</clipPath>
</defs>
</svg>
