<svg width="317" height="105" viewBox="0 0 317 105" fill="none" xmlns="http://www.w3.org/2000/svg">
<g clip-path="url(#clip0_20_3995)">
<mask id="mask0_20_3995" style="mask-type:luminance" maskUnits="userSpaceOnUse" x="0" y="0" width="317" height="105">
<path d="M316.776 0H0V104.76H316.776V0Z" fill="white"/>
</mask>
<g mask="url(#mask0_20_3995)">
<mask id="mask1_20_3995" style="mask-type:luminance" maskUnits="userSpaceOnUse" x="69" y="23" width="238" height="57">
<path d="M306.284 23.6547H69.9008V79.4127H306.284V23.6547Z" fill="white"/>
<path d="M82.1148 47.5571L81.9062 77.7233H72.9907L73.3443 26.5753H84.812L105.737 66.2885C105.354 62.6099 105.173 59.2824 105.194 56.3057L105.399 26.5753H114.315L113.961 77.7233H102.187L81.566 38.3369C81.757 40.2486 81.8924 41.979 81.9724 43.5278C82.0753 45.0525 82.1227 46.3957 82.1148 47.5571ZM159.174 69.4467L159.117 77.7233H123.353L123.707 26.5753H133.745L133.449 69.4467H159.174ZM183.32 56.7413L183.176 77.7233H173.171L173.316 56.7413L156.442 26.5753H166.957L178.309 48.2106L190.098 26.5753H200.611L183.32 56.7413ZM215.174 46.7223L214.958 77.7233H206.042L206.397 26.5753H219.838L228.215 55.1803C228.591 56.7776 228.975 58.387 229.373 60.0084C229.771 61.6057 230.155 63.2028 230.531 64.8C230.787 63.8805 231.031 62.973 231.264 62.0776C231.497 61.1579 231.731 60.2382 231.964 59.3187C232.219 58.399 232.476 57.4915 232.731 56.5961L241.753 26.5753H255.125L254.772 77.7233H245.856L246.07 46.7223C246.075 46.0205 246.108 44.6168 246.169 42.5114C246.251 40.3817 246.357 38.0706 246.488 35.578C245.671 38.8208 244.949 41.5797 244.322 43.8545C243.715 46.1294 243.216 47.9081 242.822 49.1907L233.981 77.7233H226.834L218.389 49.1907L214.841 35.578C214.958 38.3852 215.044 40.7205 215.099 42.5841C215.155 44.4233 215.18 45.8027 215.174 46.7223ZM303.252 69.4467L303.195 77.7233H264.096L264.45 26.5753H302.154L302.095 34.8519H274.431L274.343 47.7025H299.932L299.875 55.979H274.284L274.192 69.4467H303.252Z" fill="black"/>
</mask>
<g mask="url(#mask1_20_3995)">
<path d="M81.9062 77.7232L81.8944 79.4128H83.4783L83.49 77.7232H81.9062ZM72.9907 77.7232H71.4068L71.3951 79.4128H72.9789L72.9907 77.7232ZM73.3443 26.5753L73.3559 24.8856H71.772L71.7605 26.5753H73.3443ZM84.812 26.5753L86.194 25.7392L85.7444 24.8856H84.8237L84.812 26.5753ZM105.737 66.2885L104.355 67.1245L107.311 66.0898L105.737 66.2885ZM105.399 26.5753L105.411 24.8856H103.827L103.815 26.5753H105.399ZM114.315 26.5753H115.899L115.91 24.8856H114.326L114.315 26.5753ZM113.961 77.7232L113.95 79.4128H115.533L115.545 77.7232H113.961ZM102.187 77.7232L100.803 78.5554L101.252 79.4128H102.176L102.187 77.7232ZM81.566 38.3369L82.9501 37.5047L79.9909 38.528L81.566 38.3369ZM81.9724 43.5277L80.3909 43.6332L80.3917 43.6474L80.3926 43.6614L81.9724 43.5277ZM80.5309 47.5571L80.3223 77.7232H83.49L83.6986 47.5571H80.5309ZM81.9177 76.0336H73.0022L72.9789 79.4128H81.8944L81.9177 76.0336ZM74.5745 77.7232L74.9282 26.5753H71.7605L71.4068 77.7232H74.5745ZM73.3326 28.265H84.8002L84.8237 24.8856H73.3559L73.3326 28.265ZM83.4299 27.4114L104.355 67.1245L107.119 65.4523L86.194 25.7392L83.4299 27.4114ZM107.311 66.0898C106.934 62.462 106.758 59.2023 106.778 56.3056H103.61C103.589 59.3625 103.775 62.7579 104.163 66.4872L107.311 66.0898ZM106.778 56.3056L106.983 26.5753H103.815L103.61 56.3056H106.778ZM105.388 28.265H114.303L114.326 24.8856H105.411L105.388 28.265ZM112.731 26.5753L112.377 77.7232H115.545L115.899 26.5753H112.731ZM113.973 76.0336H102.199L102.176 79.4128H113.95L113.973 76.0336ZM103.571 76.8911L82.9501 37.5047L80.1818 39.1689L100.803 78.5554L103.571 76.8911ZM79.9909 38.528C80.1797 40.4177 80.3126 42.1189 80.3909 43.6332L83.5539 43.4225C83.4722 41.8391 83.3342 40.0794 83.141 38.1456L79.9909 38.528ZM80.3926 43.6614C80.4933 45.1546 80.5385 46.4516 80.5309 47.5571H83.6986C83.707 46.3395 83.6573 44.9503 83.5523 43.3941L80.3926 43.6614ZM159.174 69.4467H160.758L160.77 67.757H159.186L159.174 69.4467ZM159.117 77.7232L159.106 79.4128H160.69L160.701 77.7232H159.117ZM123.353 77.7232H121.769L121.758 79.4128H123.341L123.353 77.7232ZM123.707 26.5753L123.718 24.8856H122.135L122.123 26.5753H123.707ZM133.745 26.5753H135.329L135.341 24.8856H133.757L133.745 26.5753ZM133.449 69.4467H131.865L131.853 71.1362H133.437L133.449 69.4467ZM157.591 69.4467L157.533 77.7232H160.701L160.758 69.4467H157.591ZM159.129 76.0336H123.365L123.341 79.4128H159.106L159.129 76.0336ZM124.937 77.7232L125.291 26.5753H122.123L121.769 77.7232H124.937ZM123.695 28.265H133.734L133.757 24.8856H123.718L123.695 28.265ZM132.161 26.5753L131.865 69.4467H135.033L135.329 26.5753H132.161ZM133.437 71.1362H159.163L159.186 67.757H133.46L133.437 71.1362ZM183.32 56.7412L181.971 55.8677L181.739 56.2705L181.736 56.7412H183.32ZM183.176 77.7232L183.163 79.4128H184.747L184.76 77.7232H183.176ZM173.171 77.7232H171.587L171.576 79.4128H173.159L173.171 77.7232ZM173.316 56.7412H174.9L174.903 56.2705L174.678 55.8677L173.316 56.7412ZM156.442 26.5753L156.454 24.8856H153.647L155.081 27.449L156.442 26.5753ZM166.957 26.5753L168.341 25.7418L167.891 24.8856H166.97L166.957 26.5753ZM178.309 48.2105L176.926 49.0441L178.277 51.6205L179.677 49.0515L178.309 48.2105ZM190.098 26.5753L190.109 24.8856H189.192L188.729 25.7343L190.098 26.5753ZM200.611 26.5753L201.961 27.449L203.431 24.8856H200.624L200.611 26.5753ZM181.736 56.7412L181.592 77.7232H184.76L184.904 56.7412H181.736ZM183.187 76.0336H173.183L173.159 79.4128H183.163L183.187 76.0336ZM174.754 77.7232L174.9 56.7412H171.732L171.587 77.7232H174.754ZM174.678 55.8677L157.804 25.7017L155.081 27.449L171.954 57.615L174.678 55.8677ZM156.431 28.265H166.946L166.97 24.8856H156.454L156.431 28.265ZM165.574 27.4088L176.926 49.0441L179.693 47.3772L168.341 25.7418L165.574 27.4088ZM179.677 49.0515L191.464 27.4163L188.729 25.7343L176.942 47.3698L179.677 49.0515ZM190.085 28.265H200.6L200.624 24.8856H190.109L190.085 28.265ZM199.262 25.7017L181.971 55.8677L184.67 57.615L201.961 27.449L199.262 25.7017ZM214.958 77.7232L214.947 79.4128H216.531L216.542 77.7232H214.958ZM206.042 77.7232H204.459L204.447 79.4128H206.031L206.042 77.7232ZM206.397 26.5753L206.408 24.8856H204.824L204.813 26.5753H206.397ZM219.838 26.5753L221.351 26.0606L221.005 24.8856H219.849L219.838 26.5753ZM228.215 55.1803L229.752 54.7589L229.74 54.7119L229.728 54.6656L228.215 55.1803ZM229.373 60.0084L227.84 60.4467L227.841 60.453L229.373 60.0084ZM230.531 64.8L228.994 65.2216L230.398 71.2049L232.048 65.2699L230.531 64.8ZM231.264 62.0776L232.789 62.5184L232.793 62.5075L231.264 62.0776ZM231.964 59.3187L230.445 58.8488L230.441 58.8687L230.436 58.8887L231.964 59.3187ZM232.731 56.5961L231.223 56.0911L231.22 56.1029L231.217 56.1145L232.731 56.5961ZM241.753 26.5753L241.764 24.8856H240.601L240.245 26.0703L241.753 26.5753ZM255.125 26.5753H256.709L256.722 24.8856H255.138L255.125 26.5753ZM254.772 77.7232L254.761 79.4128H256.345L256.356 77.7232H254.772ZM245.856 77.7232H244.273L244.262 79.4128H245.845L245.856 77.7232ZM246.169 42.5114L244.585 42.4538V42.4725L246.169 42.5114ZM246.488 35.5779L248.069 35.6599L244.958 35.151L246.488 35.5779ZM244.322 43.8545L242.803 43.388L242.798 43.4041L244.322 43.8545ZM242.822 49.1907L244.325 49.7103L244.326 49.7068L242.822 49.1907ZM233.981 77.7232L233.969 79.4128H235.121L235.484 78.2428L233.981 77.7232ZM226.834 77.7232L225.323 78.2428L225.67 79.4128H226.823L226.834 77.7232ZM218.389 49.1907L216.862 49.6544L216.87 49.6824L216.878 49.7103L218.389 49.1907ZM214.841 35.5779L216.368 35.1143L213.259 35.6651L214.841 35.5779ZM213.59 46.7223L213.374 77.7232H216.542L216.757 46.7223H213.59ZM214.971 76.0336H206.055L206.031 79.4128H214.947L214.971 76.0336ZM207.626 77.7232L207.981 26.5753H204.813L204.459 77.7232H207.626ZM206.385 28.265H219.827L219.849 24.8856H206.408L206.385 28.265ZM218.325 27.09L226.703 55.695L229.728 54.6656L221.351 26.0606L218.325 27.09ZM226.679 55.6019C227.054 57.2047 227.442 58.8197 227.84 60.4467L230.906 59.57C230.51 57.9541 230.125 56.3504 229.752 54.7589L226.679 55.6019ZM227.841 60.453C228.237 62.0425 228.621 63.6321 228.994 65.2216L232.067 64.3786C231.692 62.7736 231.304 61.1687 230.905 59.5639L227.841 60.453ZM232.048 65.2699C232.308 64.3409 232.555 63.4238 232.789 62.5184L229.739 61.6366C229.508 62.5222 229.265 63.4199 229.012 64.3303L232.048 65.2699ZM232.793 62.5075C232.813 62.4286 232.861 62.2417 232.88 62.1626C232.9 62.0837 232.948 61.8968 232.968 61.8177C232.987 61.7388 233.035 61.552 233.056 61.473C233.076 61.394 233.122 61.2071 233.143 61.1282C233.252 60.7003 233.383 60.1764 233.493 59.7487L230.436 58.8887C230.415 58.9676 230.368 59.1546 230.347 59.2335C230.328 59.3124 230.281 59.4995 230.26 59.5784C230.241 59.6573 230.193 59.8444 230.173 59.9233C230.152 60.0022 230.105 60.1892 230.086 60.2681C229.976 60.6958 229.843 61.2198 229.736 61.6476L232.793 62.5075ZM233.482 59.7884C233.737 58.8726 233.992 57.969 234.247 57.0777L231.217 56.1145C230.96 57.014 230.702 57.9254 230.445 58.8488L233.482 59.7884ZM234.239 57.1011L243.261 27.0804L240.245 26.0703L231.223 56.0911L234.239 57.1011ZM241.74 28.265H255.114L255.138 24.8856H241.764L241.74 28.265ZM253.541 26.5753L253.188 77.7232H256.356L256.709 26.5753H253.541ZM254.783 76.0336H245.868L245.845 79.4128H254.761L254.783 76.0336ZM247.44 77.7232L247.654 46.7223H244.486L244.273 77.7232H247.44ZM247.654 46.7223C247.659 46.0432 247.691 44.6588 247.751 42.5503L244.585 42.4725C244.524 44.5747 244.491 45.9977 244.486 46.7223H247.654ZM247.751 42.569C247.833 40.4486 247.939 38.1458 248.069 35.6599L244.906 35.496C244.776 37.9954 244.667 40.3148 244.585 42.4538L247.751 42.569ZM244.958 35.151C244.144 38.3855 243.425 41.1304 242.803 43.388L245.841 44.3211C246.473 42.0288 247.2 39.2561 248.018 36.0049L244.958 35.151ZM242.798 43.4041C242.195 45.6706 241.7 47.424 241.317 48.6747L244.326 49.7068C244.73 48.3922 245.237 46.5881 245.845 44.305L242.798 43.4041ZM241.317 48.6711L232.477 77.2037L235.484 78.2428L244.325 49.7103L241.317 48.6711ZM233.992 76.0336H226.847L226.823 79.4128H233.969L233.992 76.0336ZM228.345 77.2037L219.9 48.6711L216.878 49.7103L225.323 78.2428L228.345 77.2037ZM219.914 48.7271L216.368 35.1143L213.316 36.0416L216.862 49.6544L219.914 48.7271ZM213.259 35.6651C213.376 38.4685 213.461 40.796 213.517 42.6498L216.683 42.5182C216.628 40.645 216.54 38.3019 216.423 35.4906L213.259 35.6651ZM213.517 42.6498C213.571 44.4841 213.594 45.8372 213.59 46.7223H216.757C216.764 45.7681 216.738 44.3623 216.683 42.5182L213.517 42.6498ZM303.252 69.4467H304.836L304.848 67.757H303.264L303.252 69.4467ZM303.195 77.7232L303.184 79.4128H304.767L304.778 77.7232H303.195ZM264.096 77.7232H262.513L262.5 79.4128H264.084L264.096 77.7232ZM264.45 26.5753L264.461 24.8856H262.877L262.866 26.5753H264.45ZM302.154 26.5753H303.738L303.749 24.8856H302.165L302.154 26.5753ZM302.095 34.8519L302.084 36.5416H303.668L303.679 34.8519H302.095ZM274.431 34.8519L274.442 33.1622H272.859L272.847 34.8519H274.431ZM274.343 47.7024H272.759L272.746 49.392H274.33L274.343 47.7024ZM299.932 47.7024H301.516L301.527 46.0128H299.943L299.932 47.7024ZM299.875 55.979L299.862 57.6685H301.446L301.459 55.979H299.875ZM274.284 55.979L274.297 54.2893H272.713L272.7 55.979H274.284ZM274.192 69.4467H272.608L272.596 71.1362H274.179L274.192 69.4467ZM301.668 69.4467L301.611 77.7232H304.778L304.836 69.4467H301.668ZM303.207 76.0336H264.108L264.084 79.4128H303.184L303.207 76.0336ZM265.68 77.7232L266.034 26.5753H262.866L262.513 77.7232H265.68ZM264.439 28.265H302.141L302.165 24.8856H264.461L264.439 28.265ZM300.57 26.5753L300.512 34.8519H303.679L303.738 26.5753H300.57ZM302.108 33.1622H274.442L274.419 36.5416H302.084L302.108 33.1622ZM272.847 34.8519L272.759 47.7024H275.926L276.015 34.8519H272.847ZM274.33 49.392H299.919L299.943 46.0128H274.354L274.33 49.392ZM298.348 47.7024L298.291 55.979H301.459L301.516 47.7024H298.348ZM299.886 54.2893H274.297L274.273 57.6685H299.862L299.886 54.2893ZM272.7 55.979L272.608 69.4467H275.776L275.868 55.979H272.7ZM274.179 71.1362H303.241L303.264 67.757H274.203L274.179 71.1362Z" fill="#E6E6E6"/>
</g>
<path d="M56.2357 31.0174L55.6236 30.4816L55.1115 31.1473L55.7454 31.6807L56.2357 31.0174ZM61.2274 65.8892L60.5325 65.4839L60.5317 65.4854L61.2274 65.8892ZM52.6902 75.1459L52.3017 74.4097L52.2998 74.4107L52.6902 75.1459ZM26.9637 75.2548L26.5756 75.9912L26.579 75.9932L26.9637 75.2548ZM18.8853 37.865L18.1869 37.4662L18.1852 37.4698L18.8853 37.865ZM24.4239 30.8629L24.904 31.5347L25.5534 31.0067L25.0388 30.3305L24.4239 30.8629ZM30.3193 27.4907L29.7493 28.0773L30.1037 28.4692L30.5846 28.2867L30.3193 27.4907ZM50.3995 27.5569L50.1254 28.3495L50.6169 28.543L50.9761 28.1361L50.3995 27.5569ZM50.5244 38.954L49.913 39.491L49.9149 39.4935L50.5244 38.954ZM29.8012 38.9177L30.4042 39.4653L30.4061 39.4627L29.8012 38.9177ZM32.4595 67.8495L32.0204 68.5525L32.0288 68.5583L32.4595 67.8495ZM50.3421 65.3083L49.7352 64.7656L49.733 64.7687L50.3421 65.3083ZM62.2592 37.5475C60.8613 34.683 59.0169 32.2816 56.7263 30.3542L55.7454 31.6807C57.8526 33.4539 59.5554 35.666 60.8542 38.3276L62.2592 37.5475ZM65.1445 51.9196C65.1826 46.3925 64.2326 41.5914 62.2592 37.5475L60.8542 38.3276C62.6836 42.0762 63.5973 46.5924 63.5606 51.9071L65.1445 51.9196ZM61.9222 66.2944C64.0414 62.1596 65.1068 57.3594 65.1445 51.9196L63.5606 51.9071C63.5246 57.1154 62.5065 61.6324 60.5325 65.4839L61.9222 66.2944ZM53.0786 75.882C56.8767 73.6015 59.8286 70.4002 61.923 66.2929L60.5317 65.4854C58.5785 69.3159 55.8388 72.2857 52.3017 74.4097L53.0786 75.882ZM39.8725 79.294C44.8861 79.294 49.2976 78.1665 53.0805 75.881L52.2998 74.4107C48.7928 76.5297 44.6593 77.6043 39.8725 77.6043V79.294ZM26.579 75.9932C30.3122 78.2064 34.7537 79.294 39.8725 79.294V77.6043C34.9642 77.6043 30.7997 76.5625 27.3484 74.5163L26.579 75.9932ZM18.019 66.4551C19.9897 70.5698 22.8456 73.7547 26.5756 75.9912L27.3518 74.5183C23.8975 72.4471 21.2603 69.5092 19.4295 65.6863L18.019 66.4551ZM15.1377 51.9071C15.0992 57.4817 16.0485 62.3409 18.019 66.4551L19.4295 65.6863C17.5982 61.8627 16.6845 57.2835 16.7215 51.9196L15.1377 51.9071ZM18.1852 37.4698C16.1806 41.5115 15.1763 46.3342 15.1377 51.9071L16.7215 51.9196C16.7587 46.5538 17.7248 42.011 19.5852 38.26L18.1852 37.4698ZM23.9439 30.1909C21.5692 32.1221 19.65 34.5507 18.1869 37.4662L19.5834 38.2636C20.9442 35.5521 22.7175 33.3128 24.904 31.5347L23.9439 30.1909ZM23.2552 19.0002C21.8033 22.0252 21.2266 24.2706 21.4179 26.2389C21.6108 28.222 22.5702 29.7672 23.8091 31.3953L25.0388 30.3305C23.8362 28.75 23.1359 27.5309 22.9934 26.0646C22.8494 24.5836 23.2614 22.6947 24.665 19.7703L23.2552 19.0002ZM23.8732 17.6981C23.709 18.0467 23.5062 18.477 23.2552 19.0002L24.665 19.7703C24.9191 19.2409 25.1242 18.8055 25.2884 18.4568L23.8732 17.6981ZM25.4356 16.0894C25.0339 15.9589 24.7415 16.1981 24.6824 16.2485C24.5914 16.3263 24.5305 16.4108 24.5019 16.452C24.438 16.5442 24.378 16.6553 24.3269 16.7544C24.2192 16.9631 24.0696 17.2811 23.8732 17.6981L25.2884 18.4568C25.4921 18.0242 25.625 17.7425 25.7145 17.569C25.762 17.4769 25.7793 17.4512 25.7755 17.4566C25.7726 17.4607 25.7642 17.4727 25.7504 17.4891C25.7378 17.5041 25.7118 17.5338 25.6727 17.5673C25.6366 17.5981 25.5631 17.655 25.4547 17.6956C25.338 17.7391 25.1663 17.7682 24.9743 17.7059L25.4356 16.0894ZM26.0105 17.4801C26.0183 17.3279 26.027 17.1653 26.0262 17.0415C26.0257 16.9852 26.0238 16.8841 26.0042 16.7778C25.9948 16.7268 25.9725 16.6229 25.9147 16.5088C25.857 16.3952 25.7154 16.1802 25.4356 16.0894L24.9743 17.7059C24.7049 17.6183 24.572 17.4124 24.5218 17.3132C24.4713 17.2137 24.4548 17.1297 24.4501 17.1038C24.4398 17.0479 24.4422 17.0185 24.4423 17.0533C24.4426 17.1121 24.438 17.211 24.429 17.388L26.0105 17.4801ZM29.321 25.5134C25.7485 22.9081 25.9337 18.9789 26.0105 17.4801L24.429 17.388C24.3506 18.9169 24.0875 23.7434 28.4272 26.9082L29.321 25.5134ZM30.8894 26.9042C30.4606 26.43 29.9401 25.9649 29.321 25.5134L28.4272 26.9082C28.97 27.3041 29.4054 27.6968 29.7493 28.0773L30.8894 26.9042ZM40.3046 24.9681C36.522 24.9681 33.1016 25.5386 30.054 26.6946L30.5846 28.2867C33.4335 27.2059 36.67 26.6578 40.3046 26.6578V24.9681ZM50.6736 26.7643C47.6164 25.561 44.1561 24.9681 40.3046 24.9681V26.6578C44.0053 26.6578 47.2748 27.2276 50.1254 28.3495L50.6736 26.7643ZM50.9761 28.1361C51.3279 27.7375 51.7798 27.3246 52.3508 26.9082L51.4569 25.5134C50.8059 25.988 50.2639 26.4782 49.8229 26.9778L50.9761 28.1361ZM52.3508 26.9082C54.9808 24.9903 55.9275 22.4478 56.2391 20.4007C56.3938 19.3844 56.3927 18.4904 56.3704 17.8586C56.3647 17.701 56.3577 17.5592 56.3515 17.4382C56.3452 17.3137 56.3403 17.2197 56.3376 17.1434C56.3344 17.0582 56.3363 17.0383 56.3354 17.0494C56.3354 17.0498 56.3314 17.115 56.3024 17.2022C56.2866 17.25 56.1748 17.5852 55.8037 17.7059L55.3424 16.0894C54.9566 16.2146 54.8334 16.5656 54.809 16.6397C54.7713 16.7534 54.7613 16.8553 54.7575 16.9026C54.7488 17.0077 54.7518 17.1219 54.7548 17.2074C54.7581 17.3017 54.7642 17.4149 54.77 17.53C54.776 17.6486 54.7825 17.7792 54.7876 17.9226C54.8079 18.4954 54.8071 19.2665 54.6756 20.1299C54.4149 21.8424 53.6432 23.9188 51.4569 25.5134L52.3508 26.9082ZM55.8037 17.7059C55.5279 17.7954 55.3049 17.6979 55.2069 17.6398C55.1106 17.5829 55.0531 17.5185 55.0361 17.4992C54.9992 17.457 54.988 17.4318 55.0081 17.4664C55.0417 17.5239 55.0996 17.6373 55.1969 17.8392C55.4096 18.281 55.6507 18.8074 56.113 19.7703L57.5227 19.0002C57.117 18.1548 56.7774 17.4237 56.6057 17.0672C56.5107 16.8697 56.4255 16.6984 56.3534 16.5746C56.3208 16.5186 56.2662 16.4286 56.1938 16.3458C56.1591 16.3063 56.0859 16.2278 55.9757 16.1625C55.8637 16.0962 55.6286 15.9964 55.3424 16.0894L55.8037 17.7059ZM56.113 19.7703C57.539 22.7415 57.9416 24.6439 57.7772 26.1355C57.6139 27.6179 56.8766 28.8524 55.6236 30.4816L56.8481 31.5533C58.1256 29.8924 59.13 28.333 59.3503 26.3327C59.5697 24.3421 58.9979 22.0734 57.5227 19.0002L56.113 19.7703ZM49.9149 39.4935C52.1873 42.4146 53.3553 46.5168 53.3179 51.9071L54.9018 51.9196C54.9408 46.2744 53.7185 41.7371 51.1337 38.4145L49.9149 39.4935ZM40.2463 35.0797C44.4753 35.0797 47.6598 36.5719 49.913 39.491L51.1358 38.417C48.5324 35.0439 44.8649 33.39 40.2463 33.39V35.0797ZM30.4061 39.4627C32.7007 36.5646 35.943 35.0797 40.2463 35.0797V33.39C35.5659 33.39 31.8449 35.027 29.1962 38.3726L30.4061 39.4627ZM26.8281 51.9196C26.8657 46.479 28.0913 42.3641 30.4042 39.4653L29.1981 38.37C26.568 41.6664 25.2837 46.2154 25.2442 51.9071L26.8281 51.9196ZM28.396 61.2298C27.3353 58.6527 26.8029 55.5573 26.8281 51.9196L25.2442 51.9071C25.2179 55.7233 25.7753 59.0653 26.9456 61.909L28.396 61.2298ZM32.8987 67.1464C30.9614 65.7695 29.4577 63.8094 28.396 61.2298L26.9456 61.909C28.115 64.7502 29.8038 66.9769 32.0204 68.5525L32.8987 67.1464ZM39.9308 69.1826C37.1788 69.1826 34.8432 68.491 32.8903 67.1405L32.0288 68.5583C34.2752 70.1119 36.9205 70.8723 39.9308 70.8723V69.1826ZM49.733 64.7687C47.4607 67.6872 44.232 69.1826 39.9308 69.1826V70.8723C44.6131 70.8723 48.3252 69.2215 50.9514 65.8482L49.733 64.7687ZM53.3179 51.9071C53.2788 57.5738 52.0486 61.8212 49.7352 64.7656L50.9491 65.8511C53.5793 62.5033 54.8609 57.8207 54.9018 51.9196L53.3179 51.9071Z" fill="#FC2424"/>
<g filter="url(#filter0_f_20_3995)">
<mask id="mask2_20_3995" style="mask-type:luminance" maskUnits="userSpaceOnUse" x="69" y="23" width="238" height="57">
<path d="M306.284 23.6547H69.9008V79.4127H306.284V23.6547Z" fill="white"/>
<path d="M82.1148 47.5571L81.9062 77.7233H72.9907L73.3443 26.5753H84.812L105.737 66.2885C105.354 62.6099 105.173 59.2824 105.194 56.3057L105.399 26.5753H114.315L113.961 77.7233H102.187L81.566 38.3369C81.757 40.2486 81.8924 41.979 81.9724 43.5278C82.0753 45.0525 82.1227 46.3957 82.1148 47.5571ZM159.174 69.4467L159.117 77.7233H123.353L123.707 26.5753H133.745L133.449 69.4467H159.174ZM183.32 56.7413L183.176 77.7233H173.171L173.316 56.7413L156.442 26.5753H166.957L178.309 48.2106L190.098 26.5753H200.611L183.32 56.7413ZM215.174 46.7223L214.958 77.7233H206.042L206.397 26.5753H219.838L228.215 55.1803C228.591 56.7776 228.975 58.387 229.373 60.0084C229.771 61.6057 230.155 63.2028 230.531 64.8C230.787 63.8805 231.031 62.973 231.264 62.0776C231.497 61.1579 231.731 60.2382 231.964 59.3187C232.219 58.399 232.476 57.4915 232.731 56.5961L241.753 26.5753H255.125L254.772 77.7233H245.856L246.07 46.7223C246.075 46.0205 246.108 44.6168 246.169 42.5114C246.251 40.3817 246.357 38.0706 246.488 35.578C245.671 38.8208 244.949 41.5797 244.322 43.8545C243.715 46.1294 243.216 47.9081 242.822 49.1907L233.981 77.7233H226.834L218.389 49.1907L214.841 35.578C214.958 38.3852 215.044 40.7205 215.099 42.5841C215.155 44.4233 215.18 45.8027 215.174 46.7223ZM303.252 69.4467L303.195 77.7233H264.096L264.45 26.5753H302.154L302.095 34.8519H274.431L274.343 47.7025H299.932L299.875 55.979H274.284L274.192 69.4467H303.252Z" fill="black"/>
</mask>
<g mask="url(#mask2_20_3995)">
<path d="M81.9062 77.7232L81.8944 79.4128H83.4783L83.49 77.7232H81.9062ZM72.9907 77.7232H71.4068L71.3951 79.4128H72.9789L72.9907 77.7232ZM73.3443 26.5753L73.3559 24.8856H71.772L71.7605 26.5753H73.3443ZM84.812 26.5753L86.194 25.7392L85.7444 24.8856H84.8237L84.812 26.5753ZM105.737 66.2885L104.355 67.1245L107.311 66.0898L105.737 66.2885ZM105.399 26.5753L105.411 24.8856H103.827L103.815 26.5753H105.399ZM114.315 26.5753H115.899L115.91 24.8856H114.326L114.315 26.5753ZM113.961 77.7232L113.95 79.4128H115.533L115.545 77.7232H113.961ZM102.187 77.7232L100.803 78.5554L101.252 79.4128H102.176L102.187 77.7232ZM81.566 38.3369L82.9501 37.5047L79.9909 38.528L81.566 38.3369ZM81.9724 43.5277L80.3909 43.6332L80.3917 43.6474L80.3926 43.6614L81.9724 43.5277ZM80.5309 47.5571L80.3223 77.7232H83.49L83.6986 47.5571H80.5309ZM81.9177 76.0336H73.0022L72.9789 79.4128H81.8944L81.9177 76.0336ZM74.5745 77.7232L74.9282 26.5753H71.7605L71.4068 77.7232H74.5745ZM73.3326 28.265H84.8002L84.8237 24.8856H73.3559L73.3326 28.265ZM83.4299 27.4114L104.355 67.1245L107.119 65.4523L86.194 25.7392L83.4299 27.4114ZM107.311 66.0898C106.934 62.462 106.758 59.2023 106.778 56.3056H103.61C103.589 59.3625 103.775 62.7579 104.163 66.4872L107.311 66.0898ZM106.778 56.3056L106.983 26.5753H103.815L103.61 56.3056H106.778ZM105.388 28.265H114.303L114.326 24.8856H105.411L105.388 28.265ZM112.731 26.5753L112.377 77.7232H115.545L115.899 26.5753H112.731ZM113.973 76.0336H102.199L102.176 79.4128H113.95L113.973 76.0336ZM103.571 76.8911L82.9501 37.5047L80.1818 39.1689L100.803 78.5554L103.571 76.8911ZM79.9909 38.528C80.1797 40.4177 80.3126 42.1189 80.3909 43.6332L83.5539 43.4225C83.4722 41.8391 83.3342 40.0794 83.141 38.1456L79.9909 38.528ZM80.3926 43.6614C80.4933 45.1546 80.5385 46.4516 80.5309 47.5571H83.6986C83.707 46.3395 83.6573 44.9503 83.5523 43.3941L80.3926 43.6614ZM159.174 69.4467H160.758L160.77 67.757H159.186L159.174 69.4467ZM159.117 77.7232L159.106 79.4128H160.69L160.701 77.7232H159.117ZM123.353 77.7232H121.769L121.758 79.4128H123.341L123.353 77.7232ZM123.707 26.5753L123.718 24.8856H122.135L122.123 26.5753H123.707ZM133.745 26.5753H135.329L135.341 24.8856H133.757L133.745 26.5753ZM133.449 69.4467H131.865L131.853 71.1362H133.437L133.449 69.4467ZM157.591 69.4467L157.533 77.7232H160.701L160.758 69.4467H157.591ZM159.129 76.0336H123.365L123.341 79.4128H159.106L159.129 76.0336ZM124.937 77.7232L125.291 26.5753H122.123L121.769 77.7232H124.937ZM123.695 28.265H133.734L133.757 24.8856H123.718L123.695 28.265ZM132.161 26.5753L131.865 69.4467H135.033L135.329 26.5753H132.161ZM133.437 71.1362H159.163L159.186 67.757H133.46L133.437 71.1362ZM183.32 56.7412L181.971 55.8677L181.739 56.2705L181.736 56.7412H183.32ZM183.176 77.7232L183.163 79.4128H184.747L184.76 77.7232H183.176ZM173.171 77.7232H171.587L171.576 79.4128H173.159L173.171 77.7232ZM173.316 56.7412H174.9L174.903 56.2705L174.678 55.8677L173.316 56.7412ZM156.442 26.5753L156.454 24.8856H153.647L155.081 27.449L156.442 26.5753ZM166.957 26.5753L168.341 25.7418L167.891 24.8856H166.97L166.957 26.5753ZM178.309 48.2105L176.926 49.0441L178.277 51.6205L179.677 49.0515L178.309 48.2105ZM190.098 26.5753L190.109 24.8856H189.192L188.729 25.7343L190.098 26.5753ZM200.611 26.5753L201.961 27.449L203.431 24.8856H200.624L200.611 26.5753ZM181.736 56.7412L181.592 77.7232H184.76L184.904 56.7412H181.736ZM183.187 76.0336H173.183L173.159 79.4128H183.163L183.187 76.0336ZM174.754 77.7232L174.9 56.7412H171.732L171.587 77.7232H174.754ZM174.678 55.8677L157.804 25.7017L155.081 27.449L171.954 57.615L174.678 55.8677ZM156.431 28.265H166.946L166.97 24.8856H156.454L156.431 28.265ZM165.574 27.4088L176.926 49.0441L179.693 47.3772L168.341 25.7418L165.574 27.4088ZM179.677 49.0515L191.464 27.4163L188.729 25.7343L176.942 47.3698L179.677 49.0515ZM190.085 28.265H200.6L200.624 24.8856H190.109L190.085 28.265ZM199.262 25.7017L181.971 55.8677L184.67 57.615L201.961 27.449L199.262 25.7017ZM214.958 77.7232L214.947 79.4128H216.531L216.542 77.7232H214.958ZM206.042 77.7232H204.459L204.447 79.4128H206.031L206.042 77.7232ZM206.397 26.5753L206.408 24.8856H204.824L204.813 26.5753H206.397ZM219.838 26.5753L221.351 26.0606L221.005 24.8856H219.849L219.838 26.5753ZM228.215 55.1803L229.752 54.7589L229.74 54.7119L229.728 54.6656L228.215 55.1803ZM229.373 60.0084L227.84 60.4467L227.841 60.453L229.373 60.0084ZM230.531 64.8L228.994 65.2216L230.398 71.2049L232.048 65.2699L230.531 64.8ZM231.264 62.0776L232.789 62.5184L232.793 62.5075L231.264 62.0776ZM231.964 59.3187L230.445 58.8488L230.441 58.8687L230.436 58.8887L231.964 59.3187ZM232.731 56.5961L231.223 56.0911L231.22 56.1029L231.217 56.1145L232.731 56.5961ZM241.753 26.5753L241.764 24.8856H240.601L240.245 26.0703L241.753 26.5753ZM255.125 26.5753H256.709L256.722 24.8856H255.138L255.125 26.5753ZM254.772 77.7232L254.761 79.4128H256.345L256.356 77.7232H254.772ZM245.856 77.7232H244.273L244.262 79.4128H245.845L245.856 77.7232ZM246.169 42.5114L244.585 42.4538V42.4725L246.169 42.5114ZM246.488 35.5779L248.069 35.6599L244.958 35.151L246.488 35.5779ZM244.322 43.8545L242.803 43.388L242.798 43.4041L244.322 43.8545ZM242.822 49.1907L244.325 49.7103L244.326 49.7068L242.822 49.1907ZM233.981 77.7232L233.969 79.4128H235.121L235.484 78.2428L233.981 77.7232ZM226.834 77.7232L225.323 78.2428L225.67 79.4128H226.823L226.834 77.7232ZM218.389 49.1907L216.862 49.6544L216.87 49.6824L216.878 49.7103L218.389 49.1907ZM214.841 35.5779L216.368 35.1143L213.259 35.6651L214.841 35.5779ZM213.59 46.7223L213.374 77.7232H216.542L216.757 46.7223H213.59ZM214.971 76.0336H206.055L206.031 79.4128H214.947L214.971 76.0336ZM207.626 77.7232L207.981 26.5753H204.813L204.459 77.7232H207.626ZM206.385 28.265H219.827L219.849 24.8856H206.408L206.385 28.265ZM218.325 27.09L226.703 55.695L229.728 54.6656L221.351 26.0606L218.325 27.09ZM226.679 55.6019C227.054 57.2047 227.442 58.8197 227.84 60.4467L230.906 59.57C230.51 57.9541 230.125 56.3504 229.752 54.7589L226.679 55.6019ZM227.841 60.453C228.237 62.0425 228.621 63.6321 228.994 65.2216L232.067 64.3786C231.692 62.7736 231.304 61.1687 230.905 59.5639L227.841 60.453ZM232.048 65.2699C232.308 64.3409 232.555 63.4238 232.789 62.5184L229.739 61.6366C229.508 62.5222 229.265 63.4199 229.012 64.3303L232.048 65.2699ZM232.793 62.5075C232.813 62.4286 232.861 62.2417 232.88 62.1626C232.9 62.0837 232.948 61.8968 232.968 61.8177C232.987 61.7388 233.035 61.552 233.056 61.473C233.076 61.394 233.122 61.2071 233.143 61.1282C233.252 60.7003 233.383 60.1764 233.493 59.7487L230.436 58.8887C230.415 58.9676 230.368 59.1546 230.347 59.2335C230.328 59.3124 230.281 59.4995 230.26 59.5784C230.241 59.6573 230.193 59.8444 230.173 59.9233C230.152 60.0022 230.105 60.1892 230.086 60.2681C229.976 60.6958 229.843 61.2198 229.736 61.6476L232.793 62.5075ZM233.482 59.7884C233.737 58.8726 233.992 57.969 234.247 57.0777L231.217 56.1145C230.96 57.014 230.702 57.9254 230.445 58.8488L233.482 59.7884ZM234.239 57.1011L243.261 27.0804L240.245 26.0703L231.223 56.0911L234.239 57.1011ZM241.74 28.265H255.114L255.138 24.8856H241.764L241.74 28.265ZM253.541 26.5753L253.188 77.7232H256.356L256.709 26.5753H253.541ZM254.783 76.0336H245.868L245.845 79.4128H254.761L254.783 76.0336ZM247.44 77.7232L247.654 46.7223H244.486L244.273 77.7232H247.44ZM247.654 46.7223C247.659 46.0432 247.691 44.6588 247.751 42.5503L244.585 42.4725C244.524 44.5747 244.491 45.9977 244.486 46.7223H247.654ZM247.751 42.569C247.833 40.4486 247.939 38.1458 248.069 35.6599L244.906 35.496C244.776 37.9954 244.667 40.3148 244.585 42.4538L247.751 42.569ZM244.958 35.151C244.144 38.3855 243.425 41.1304 242.803 43.388L245.841 44.3211C246.473 42.0288 247.2 39.2561 248.018 36.0049L244.958 35.151ZM242.798 43.4041C242.195 45.6706 241.7 47.424 241.317 48.6747L244.326 49.7068C244.73 48.3922 245.237 46.5881 245.845 44.305L242.798 43.4041ZM241.317 48.6711L232.477 77.2037L235.484 78.2428L244.325 49.7103L241.317 48.6711ZM233.992 76.0336H226.847L226.823 79.4128H233.969L233.992 76.0336ZM228.345 77.2037L219.9 48.6711L216.878 49.7103L225.323 78.2428L228.345 77.2037ZM219.914 48.7271L216.368 35.1143L213.316 36.0416L216.862 49.6544L219.914 48.7271ZM213.259 35.6651C213.376 38.4685 213.461 40.796 213.517 42.6498L216.683 42.5182C216.628 40.645 216.54 38.3019 216.423 35.4906L213.259 35.6651ZM213.517 42.6498C213.571 44.4841 213.594 45.8372 213.59 46.7223H216.757C216.764 45.7681 216.738 44.3623 216.683 42.5182L213.517 42.6498ZM303.252 69.4467H304.836L304.848 67.757H303.264L303.252 69.4467ZM303.195 77.7232L303.184 79.4128H304.767L304.778 77.7232H303.195ZM264.096 77.7232H262.513L262.5 79.4128H264.084L264.096 77.7232ZM264.45 26.5753L264.461 24.8856H262.877L262.866 26.5753H264.45ZM302.154 26.5753H303.738L303.749 24.8856H302.165L302.154 26.5753ZM302.095 34.8519L302.084 36.5416H303.668L303.679 34.8519H302.095ZM274.431 34.8519L274.442 33.1622H272.859L272.847 34.8519H274.431ZM274.343 47.7024H272.759L272.746 49.392H274.33L274.343 47.7024ZM299.932 47.7024H301.516L301.527 46.0128H299.943L299.932 47.7024ZM299.875 55.979L299.862 57.6685H301.446L301.459 55.979H299.875ZM274.284 55.979L274.297 54.2893H272.713L272.7 55.979H274.284ZM274.192 69.4467H272.608L272.596 71.1362H274.179L274.192 69.4467ZM301.668 69.4467L301.611 77.7232H304.778L304.836 69.4467H301.668ZM303.207 76.0336H264.108L264.084 79.4128H303.184L303.207 76.0336ZM265.68 77.7232L266.034 26.5753H262.866L262.513 77.7232H265.68ZM264.439 28.265H302.141L302.165 24.8856H264.461L264.439 28.265ZM300.57 26.5753L300.512 34.8519H303.679L303.738 26.5753H300.57ZM302.108 33.1622H274.442L274.419 36.5416H302.084L302.108 33.1622ZM272.847 34.8519L272.759 47.7024H275.926L276.015 34.8519H272.847ZM274.33 49.392H299.919L299.943 46.0128H274.354L274.33 49.392ZM298.348 47.7024L298.291 55.979H301.459L301.516 47.7024H298.348ZM299.886 54.2893H274.297L274.273 57.6685H299.862L299.886 54.2893ZM272.7 55.979L272.608 69.4467H275.776L275.868 55.979H272.7ZM274.179 71.1362H303.241L303.264 67.757H274.203L274.179 71.1362Z" fill="#D2D2D2"/>
</g>
</g>
<g filter="url(#filter1_f_20_3995)">
<path d="M56.2357 31.0173L55.0114 29.9456L53.9871 31.2772L55.2548 32.3441L56.2357 31.0173ZM61.2273 65.8892L59.8376 65.0785L59.8359 65.0817L61.2273 65.8892ZM52.6902 75.1458L51.9133 73.6734L51.9095 73.6756L52.6902 75.1458ZM26.9637 75.2548L26.1876 76.7277L26.1943 76.7318L26.9637 75.2548ZM18.8853 37.865L17.4888 37.0674L17.4853 37.0747L18.8853 37.865ZM24.4239 30.8629L25.3841 32.2067L26.6829 31.1507L25.6537 29.7981L24.4239 30.8629ZM30.3193 27.4906L29.1794 28.6638L29.8882 29.4476L30.8501 29.0827L30.3193 27.4906ZM50.3995 27.5569L49.8513 29.1421L50.8344 29.5291L51.5527 28.7152L50.3995 27.5569ZM50.5244 38.954L49.3017 40.0279L49.3055 40.033L50.5244 38.954ZM29.8012 38.9176L31.0073 40.0129L31.0112 40.0078L29.8012 38.9176ZM32.4595 67.8494L31.5812 69.2556L31.598 69.2673L32.4595 67.8494ZM50.3421 65.3083L49.1282 64.2229L49.1236 64.2288L50.3421 65.3083ZM62.9617 37.1573C61.5143 34.1914 59.5991 31.6954 57.2166 29.6908L55.2548 32.3441C57.2703 34.04 58.9024 36.1575 60.1517 38.7178L62.9617 37.1573ZM65.9364 51.9258C65.9753 46.2926 65.0071 41.3491 62.9617 37.1573L60.1517 38.7178C61.9089 42.3185 62.8047 46.6922 62.7686 51.9008L65.9364 51.9258ZM62.617 66.6998C64.809 62.4232 65.8979 57.4814 65.9364 51.9258L62.7686 51.9008C62.7335 56.9934 61.7389 61.3688 59.8376 65.0785L62.617 66.6998ZM53.467 76.6184C57.3958 74.2593 60.4536 70.9424 62.6186 66.6966L59.8359 65.0817C57.9535 68.7737 55.3199 71.6279 51.9133 73.6734L53.467 76.6184ZM39.8725 80.1389C44.9994 80.1389 49.55 78.985 53.4708 76.6162L51.9095 73.6756C48.5403 75.7112 44.5459 76.7595 39.8725 76.7595V80.1389ZM26.1943 76.7318C30.0684 79.0284 34.6485 80.1389 39.8725 80.1389V76.7595C35.0694 76.7595 31.0435 75.7404 27.733 73.7779L26.1943 76.7318ZM17.3137 66.8395C19.3544 71.1002 22.3196 74.4085 26.1876 76.7277L27.7398 73.7818C24.4235 71.7933 21.8958 68.979 20.1346 65.3019L17.3137 66.8395ZM14.3458 51.9008C14.3065 57.5809 15.2737 62.5798 17.3137 66.8395L20.1346 65.3019C18.373 61.6236 17.4772 57.1845 17.5135 51.9258L14.3458 51.9008ZM17.4853 37.0747C15.4085 41.2616 14.3851 46.2245 14.3458 51.9008L17.5135 51.9258C17.5499 46.6637 18.4967 42.2608 20.2853 38.6552L17.4853 37.0747ZM23.4638 29.5191C20.995 31.5266 19.0031 34.05 17.4888 37.0674L20.2816 38.6623C21.5912 36.0528 23.2918 33.9082 25.3841 32.2067L23.4638 29.5191ZM22.5504 18.6151C21.0742 21.6905 20.4151 24.1141 20.6302 26.3261C20.8482 28.5675 21.9371 30.2757 23.1942 31.9278L25.6537 29.7981C24.4692 28.2414 23.8986 27.1853 23.781 25.9774C23.6607 24.74 23.9904 23.0294 25.37 20.1554L22.5504 18.6151ZM23.1656 17.3187C23.0015 17.6671 22.7998 18.0951 22.5504 18.6151L25.37 20.1554C25.6255 19.6228 25.8319 19.1848 25.9961 18.8359L23.1656 17.3187ZM25.6662 15.2811C24.8701 15.0226 24.2944 15.4976 24.1873 15.5891C24.0163 15.7352 23.9073 15.8889 23.8652 15.9497C23.7674 16.0906 23.6859 16.2446 23.633 16.3471C23.5164 16.5733 23.3583 16.9095 23.1656 17.3187L25.9961 18.8359C26.2034 18.3957 26.3279 18.1323 26.4084 17.9762C26.454 17.8877 26.4497 17.9047 26.4122 17.959C26.4002 17.9764 26.3168 18.0992 26.1678 18.2266C26.0902 18.2928 25.9381 18.4099 25.7167 18.4927C25.479 18.5818 25.1313 18.6399 24.7437 18.514L25.6662 15.2811ZM26.8012 17.5262C26.8085 17.3863 26.8191 17.1918 26.8181 17.0355C26.8177 16.9685 26.8158 16.8021 26.7812 16.6148C26.7648 16.5253 26.7233 16.3275 26.6111 16.1066C26.4995 15.8866 26.2207 15.4612 25.6662 15.2811L24.7437 18.514C24.1997 18.3373 23.9296 17.9209 23.8254 17.7153C23.7205 17.509 23.6849 17.3311 23.673 17.2667C23.6581 17.1863 23.6537 17.1259 23.6521 17.1026C23.6513 17.0881 23.6509 17.0773 23.6507 17.0707C23.6504 17.0641 23.6504 17.06 23.6504 17.0594C23.6504 17.0584 23.6504 17.0641 23.6501 17.0793C23.6497 17.094 23.6491 17.1134 23.648 17.1395C23.6458 17.193 23.6426 17.2569 23.6382 17.3419L26.8012 17.5262ZM29.768 24.8159C26.579 22.4904 26.7253 19.0099 26.8012 17.5262L23.6382 17.3419C23.5591 18.8858 23.2571 24.1613 27.9802 27.6057L29.768 24.8159ZM31.4592 26.3177C30.9882 25.7967 30.4251 25.2951 29.768 24.8159L27.9802 27.6057C28.485 27.9737 28.8777 28.3302 29.1794 28.6638L31.4592 26.3177ZM40.3046 24.1233C36.4478 24.1233 32.9356 24.7049 29.7886 25.8986L30.8501 29.0827C33.5997 28.0396 36.7442 27.5026 40.3046 27.5026V24.1233ZM50.9478 25.9718C47.7873 24.7278 44.2315 24.1233 40.3046 24.1233V27.5026C43.9299 27.5026 47.104 28.0609 49.8513 29.1421L50.9478 25.9718ZM51.5527 28.7152C51.86 28.3671 52.2668 27.9928 52.7978 27.6057L51.01 24.8159C50.319 25.3199 49.7317 25.8486 49.2462 26.3986L51.5527 28.7152ZM52.7978 27.6057C55.6495 25.5259 56.6837 22.7506 57.0207 20.5362C57.1872 19.4433 57.1851 18.4878 57.1617 17.8267C57.1558 17.6619 57.1485 17.5146 57.1424 17.3924C57.1357 17.263 57.1313 17.1788 57.1289 17.1112C57.1259 17.0263 57.13 17.0536 57.1243 17.1229C57.1222 17.1471 57.1113 17.2956 57.0492 17.4835C57.0133 17.5923 56.7839 18.2705 56.0343 18.514L55.1118 15.2811C54.3476 15.5293 54.1068 16.2234 54.0622 16.3584C53.9912 16.5726 53.9743 16.7581 53.9686 16.8292C53.9551 16.9923 53.9603 17.1538 53.9633 17.2395C53.967 17.3426 53.9736 17.4654 53.9792 17.5757C53.9852 17.6933 53.9914 17.8184 53.9961 17.9547C54.0155 18.498 54.0137 19.2075 53.894 19.9945C53.6588 21.5397 52.9745 23.3832 51.01 24.8159L52.7978 27.6057ZM56.0343 18.514C55.4775 18.6948 55.0257 18.4988 54.8224 18.3785C54.6229 18.2602 54.5 18.1245 54.4574 18.0759C54.4035 18.0142 54.3694 17.9645 54.3568 17.9458C54.349 17.9341 54.3433 17.9253 54.3403 17.9203C54.3387 17.9176 54.3375 17.9157 54.3367 17.9144C54.3373 17.9154 54.3379 17.9165 54.339 17.9186C54.3414 17.9228 54.3446 17.9287 54.3489 17.9365C54.3573 17.9524 54.3683 17.9737 54.3824 18.0014C54.4109 18.0575 54.4469 18.1306 54.4925 18.2251C54.5844 18.4162 54.7005 18.6634 54.8538 18.9888C55.0054 19.3104 55.1885 19.6978 55.408 20.1554L58.2276 18.6151C57.8502 17.8285 57.4613 16.995 57.3102 16.6811C57.2163 16.4859 57.1175 16.2856 57.0259 16.1286C56.9871 16.0619 56.8995 15.9144 56.7725 15.7692C56.7122 15.7003 56.5736 15.5503 56.3601 15.4239C56.1429 15.2953 55.6788 15.097 55.1118 15.2811L56.0343 18.514ZM55.408 20.1554C56.8096 23.0755 57.1276 24.7947 56.9908 26.037C56.856 27.2603 56.2522 28.3324 55.0114 29.9456L57.4602 32.0893C58.7501 30.4123 59.888 28.6905 60.1368 26.4314C60.3836 24.1912 59.7272 21.7393 58.2276 18.6151L55.408 20.1554ZM49.3055 40.033C51.4218 42.7534 52.5624 46.638 52.526 51.9008L55.6937 51.9258C55.7337 46.1532 54.484 41.3981 51.7432 37.8749L49.3055 40.033ZM40.2463 35.9245C44.2803 35.9245 47.2236 37.3358 49.3017 40.0279L51.747 37.8798C48.9686 34.28 45.0597 32.5452 40.2463 32.5452V35.9245ZM31.0112 40.0078C33.1286 37.3334 36.1317 35.9245 40.2463 35.9245V32.5452C35.3774 32.5452 31.4169 34.2582 28.5911 37.8273L31.0112 40.0078ZM27.6201 51.9258C27.6568 46.6108 28.853 42.713 31.0073 40.0129L28.5949 37.8224C25.8064 41.3177 24.4925 46.0836 24.4523 51.9008L27.6201 51.9258ZM29.1211 60.8901C28.1153 58.4463 27.5955 55.4744 27.6201 51.9258L24.4523 51.9008C24.4254 55.8062 24.9953 59.2714 26.2205 62.2486L29.1211 60.8901ZM33.3377 66.4433C31.5403 65.1657 30.1291 63.3392 29.1211 60.8901L26.2205 62.2486C27.4438 65.2205 29.2248 67.5806 31.5812 69.2556L33.3377 66.4433ZM39.9308 68.3378C37.308 68.3378 35.127 67.6805 33.3211 66.4316L31.598 69.2673C33.9914 70.9223 36.7914 71.7171 39.9308 71.7171V68.3378ZM49.1236 64.2288C47.0285 66.9201 44.0414 68.3378 39.9308 68.3378V71.7171C44.8036 71.7171 48.7574 69.9888 51.5606 66.3879L49.1236 64.2288ZM52.526 51.9008C52.4876 57.4504 51.2833 61.4802 49.1282 64.2229L51.556 66.3938C54.3446 62.8444 55.6521 57.9442 55.6937 51.9258L52.526 51.9008Z" fill="#FC2424"/>
</g>
</g>
</g>
<defs>
<filter id="filter0_f_20_3995" x="65.3951" y="18.8856" width="245.453" height="66.5271" filterUnits="userSpaceOnUse" color-interpolation-filters="sRGB">
<feFlood flood-opacity="0" result="BackgroundImageFix"/>
<feBlend mode="normal" in="SourceGraphic" in2="BackgroundImageFix" result="shape"/>
<feGaussianBlur stdDeviation="3" result="effect1_foregroundBlur_20_3995"/>
</filter>
<filter id="filter1_f_20_3995" x="8.34467" y="9.20496" width="63.5928" height="76.934" filterUnits="userSpaceOnUse" color-interpolation-filters="sRGB">
<feFlood flood-opacity="0" result="BackgroundImageFix"/>
<feBlend mode="normal" in="SourceGraphic" in2="BackgroundImageFix" result="shape"/>
<feGaussianBlur stdDeviation="3" result="effect1_foregroundBlur_20_3995"/>
</filter>
<clipPath id="clip0_20_3995">
<rect width="316.776" height="104.76" fill="white"/>
</clipPath>
</defs>
</svg>
